<?xml version="1.0" encoding="UTF-8"?>
<svg id="Layer_1" data-name="Layer 1" xmlns="http://www.w3.org/2000/svg" viewBox="0 0 386.3 104.26">
  <defs>
    <style>
      .cls-1 {
        fill: #fff;
      }

      .cls-2 {
        fill: none;
      }
    </style>
  </defs>
  <path class="cls-2" d="M378.25,58.55h-4.78v-12.83h4.78V12.83h-4.78v-4.86h-32.83v4.86h-12.84v-4.86h-32.83v4.86h-4.95v32.88h4.95v12.84h-4.95v32.88h4.95v4.78h32.83v-4.78h12.84v4.78h32.83v-4.78h4.78v-32.88ZM318.56,80.6h-13.04v-45.87h-11.27v-10.46h24.3v56.33ZM360.1,64.71s0,0,0,0c.07.03.13.06.19.09.03.01.07.02.1.03,1.94.82,2.87,2.93,1.71,4.81-.47.76-1.23,1.39-1.85,2.01-1.3,1.3-2.6,2.6-3.9,3.9,3.51,3.51,7.01,7.01,10.52,10.52.47.47.47,1.28,0,1.75-1.44,1.44-2.88,2.88-4.32,4.32-.47.47-1.28.47-1.75,0-3.5-3.5-7.01-7.01-10.51-10.51-1.67,1.69-3.32,3.42-5.05,5.04-1.77,1.66-4.31,1.65-5.53-.66-.32-.6-.51-1.3-.74-1.93-2.1-5.75-4.19-11.49-6.29-17.24-.89-2.44-1.78-4.87-2.66-7.31-.18-.48-.38-.97-.5-1.47-.53-2.28,1.21-3.81,3.42-3.23,1.49.39,2.95,1.06,4.39,1.59,3.08,1.12,6.16,2.25,9.24,3.37.46.17.93.34,1.39.51l11.22-25.4h-18.67v9.17h-11.59v-19.8h45.15v8.45l-13.98,32Z"/>
  <polygon class="cls-1" points="294.25 34.72 305.52 34.72 305.52 80.6 318.56 80.6 318.56 24.26 294.25 24.26 294.25 34.72"/>
  <path class="cls-1" d="M374.08,24.26h-45.15v19.8h11.59v-9.17h18.67l-11.22,25.4c4.04,1.47,8.09,2.95,12.13,4.42l13.98-32v-8.45Z"/>
  <rect class="cls-1" x="285.4" y="3.28" width="6.28" height="6.28"/>
  <rect class="cls-1" x="376.74" y="3.28" width="6.28" height="6.28"/>
  <path class="cls-1" d="M386.3,12.83V0h-12.84v4.7h-32.83V0h-12.84v4.7h-32.83V0h-12.84v12.83h4.61v32.88h-4.61v12.84h4.61v32.88h-4.61v12.84h12.84v-4.78h32.83v4.78h12.84v-4.78h32.83v4.78h12.84v-12.84h-4.78v-32.88h4.78v-12.83h-4.78V12.83h4.78ZM331.07,3.28h6.28v6.28h-6.28V3.28ZM285.4,9.56V3.28h6.28v6.28h-6.28ZM285.4,55.27v-6.28h6.28v6.28h-6.28ZM291.69,100.99h-6.28v-6.28h6.28v6.28ZM337.36,100.99h-6.28v-6.28h6.28v6.28ZM373.47,96.21h-32.83v-4.78h-12.84v4.78h-32.83v-4.78h-4.95v-32.88h4.95v-12.84h-4.95V12.83h4.95v-4.86h32.83v4.86h12.84v-4.86h32.83v4.86h4.78v32.88h-4.78v12.83h4.78v32.88h-4.78v4.78ZM383.03,94.7v6.28h-6.28v-6.28h6.28ZM383.03,48.99v6.28h-6.28v-6.28h6.28ZM376.74,9.56V3.28h6.28v6.28h-6.28Z"/>
  <rect class="cls-1" x="285.4" y="94.7" width="6.28" height="6.28"/>
  <rect class="cls-1" x="376.74" y="94.7" width="6.28" height="6.28"/>
  <rect class="cls-1" x="285.4" y="48.99" width="6.28" height="6.28"/>
  <rect class="cls-1" x="376.74" y="48.99" width="6.28" height="6.28"/>
  <rect class="cls-1" x="331.07" y="3.28" width="6.28" height="6.28"/>
  <rect class="cls-1" x="331.07" y="94.7" width="6.28" height="6.28"/>
  <path class="cls-1" d="M344.99,61.83c-4.11-1.5-8.2-3.16-12.36-4.51-.83-.27-.85-.32-.57.56.03.09.06.17.09.26.23.65.47,1.3.71,1.95.93,2.55,1.86,5.09,2.79,7.64,1.92,5.26,3.84,10.53,5.76,15.79.14.39.25.81.43,1.18.68,1.41,1.65.22,2.35-.47,1.74-1.74,3.49-3.49,5.23-5.23.47-.47,1.28-.47,1.75,0,3.51,3.51,7.01,7.01,10.52,10.52.86-.86,1.71-1.71,2.57-2.57-3.51-3.51-7.01-7.01-10.52-10.52-.47-.47-.47-1.28,0-1.75,1.22-1.22,2.45-2.45,3.67-3.67.67-.67,1.35-1.33,2.01-2.01.78-.8.99-1.42-.14-1.95-4.76-1.74-9.53-3.47-14.29-5.21Z"/>
  <path class="cls-1" d="M346.58,59.78c-3.08-1.12-6.16-2.25-9.24-3.37-1.44-.53-2.9-1.2-4.39-1.59-2.21-.58-3.95.95-3.42,3.23.12.5.32.99.5,1.47.89,2.44,1.78,4.87,2.66,7.31,2.1,5.75,4.19,11.49,6.29,17.24.23.63.43,1.33.74,1.93,1.22,2.31,3.75,2.32,5.53.66,1.73-1.62,3.38-3.34,5.05-5.04,3.5,3.5,7.01,7.01,10.51,10.51.47.47,1.28.47,1.75,0,1.44-1.44,2.88-2.88,4.32-4.32.47-.47.47-1.28,0-1.75-3.51-3.51-7.01-7.01-10.52-10.52,1.3-1.3,2.6-2.6,3.9-3.9.63-.63,1.38-1.25,1.85-2.01,1.17-1.88.23-3.99-1.71-4.81-.03-.01-.07-.02-.1-.03-.06-.03-.12-.07-.19-.09,0,0,0,0,0,0-4.04-1.47-8.09-2.95-12.13-4.42-.46-.17-.93-.34-1.39-.51ZM359.28,67.04c1.13.53.92,1.16.14,1.95-.66.68-1.34,1.34-2.01,2.01-1.22,1.22-2.45,2.45-3.67,3.67-.47.47-.47,1.28,0,1.75,3.51,3.51,7.01,7.01,10.52,10.52-.86.86-1.71,1.71-2.57,2.57-3.51-3.51-7.01-7.01-10.52-10.52-.47-.47-1.28-.47-1.75,0-1.74,1.74-3.49,3.49-5.23,5.23-.7.7-1.67,1.89-2.35.47-.18-.37-.29-.79-.43-1.18-1.92-5.26-3.84-10.53-5.76-15.79-.93-2.55-1.86-5.09-2.79-7.64-.24-.65-.48-1.3-.71-1.95-.03-.09-.07-.17-.09-.26-.28-.87-.26-.83.57-.56,4.16,1.35,8.25,3.01,12.36,4.51,4.76,1.74,9.53,3.47,14.29,5.21Z"/>
  <g>
    <path class="cls-1" d="M47.73,60.91H13.29c1.27,5.67,6.09,9.14,13.03,9.14,4.82,0,8.29-1.44,11.42-4.4l7.02,7.62c-4.23,4.82-10.58,7.36-18.79,7.36-15.74,0-25.98-9.9-25.98-23.44s10.41-23.44,24.29-23.44,23.69,8.97,23.69,23.61c0,1.02-.17,2.45-.25,3.55ZM13.12,53.21h22.43c-.93-5.75-5.25-9.48-11.17-9.48s-10.32,3.64-11.26,9.48Z"/>
    <path class="cls-1" d="M80.65,79.95l-9.99-13.96-10.32,13.96h-14.39l17.52-22.93-16.93-22.59h14.81l9.65,13.29,9.9-13.29h14.05l-16.92,22.26,17.6,23.27h-14.98Z"/>
    <path class="cls-1" d="M149.96,57.19c0,14.3-9.9,23.44-22.68,23.44-5.67,0-10.32-1.78-13.71-5.5v21.24h-13.2v-61.95h12.61v5.25c3.3-3.98,8.21-5.92,14.3-5.92,12.78,0,22.68,9.14,22.68,23.44ZM136.59,57.19c0-7.87-4.99-12.61-11.59-12.61s-11.59,4.74-11.59,12.61,4.99,12.61,11.59,12.61,11.59-4.74,11.59-12.61Z"/>
    <path class="cls-1" d="M199.72,60.91h-34.44c1.27,5.67,6.09,9.14,13.03,9.14,4.82,0,8.29-1.44,11.42-4.4l7.02,7.62c-4.23,4.82-10.58,7.36-18.79,7.36-15.74,0-25.98-9.9-25.98-23.44s10.41-23.44,24.29-23.44,23.69,8.97,23.69,23.61c0,1.02-.17,2.45-.25,3.55ZM165.11,53.21h22.43c-.93-5.75-5.25-9.48-11.17-9.48s-10.32,3.64-11.26,9.48Z"/>
    <path class="cls-1" d="M231.96,33.75v12.19c-1.1-.08-1.95-.17-2.96-.17-7.28,0-12.1,3.98-12.1,12.69v21.5h-13.2v-45.53h12.61v6.01c3.21-4.4,8.63-6.69,15.66-6.69Z"/>
    <path class="cls-1" d="M272.5,77.75c-2.71,1.95-6.69,2.88-10.75,2.88-10.75,0-17.01-5.5-17.01-16.33v-18.7h-7.02v-10.15h7.02v-11.09h13.2v11.09h11.34v10.15h-11.34v18.53c0,3.89,2.12,6.01,5.67,6.01,1.95,0,3.89-.59,5.33-1.69l3.55,9.31Z"/>
  </g>
</svg>