<?xml version="1.0" encoding="utf-8"?>
<!-- Generator: Adobe Illustrator 26.2.1, SVG Export Plug-In . SVG Version: 6.00 Build 0)  -->
<svg version="1.1" id="Layer_1" xmlns="http://www.w3.org/2000/svg" xmlns:xlink="http://www.w3.org/1999/xlink" x="0px" y="0px"
	 viewBox="0 0 290.1 88.5" style="enable-background:new 0 0 290.1 88.5;" xml:space="preserve">
<style type="text/css">
	.logo-st0{fill:#004288;}
	.logo-st1{fill:#FFFFFF;}
	.logo-st2{fill:#B9C1C5;}
</style>
<g>
	<path class="logo-st0" d="M110,77.3h3.6c2.3,0,3.7,0.9,4.5,2c0.8,1.1,1.1,2.5,1.1,3.5c0,1.5-0.6,3.1-1.4,3.9c-1.3,1.3-2.8,1.6-4.3,1.6
		H110V77.3L110,77.3z M111.6,87h1.9c1.9,0,4.1-1,4.1-4c0-1.7-1-4.1-4-4.1h-2V87L111.6,87z"/>
	<polygon class="logo-st0" points="121.8,77.3 123.4,77.3 123.4,88.5 121.8,88.5 121.8,77.3 	"/>
	<polygon class="logo-st0" points="126.2,88.5 126.2,77.3 131.8,77.3 131.8,78.8 127.8,78.8 127.8,82.2 131.8,82.2 131.8,83.7 
		127.8,83.7 127.8,88.5 126.2,88.5 	"/>
	<polygon class="logo-st0" points="134.2,88.5 134.2,77.3 139.7,77.3 139.7,78.8 135.8,78.8 135.8,82.2 139.7,82.2 139.7,83.7 
		135.8,83.7 135.8,88.5 134.2,88.5 	"/>
	<polygon class="logo-st0" points="142.1,88.5 142.1,77.3 148,77.3 148,78.8 143.7,78.8 143.7,82.1 148,82.1 148,83.6 143.7,83.6 
		143.7,87 148,87 148,88.5 142.1,88.5 	"/>
	<path class="logo-st0" d="M155.8,88.5l-3.6-5.2h0v5.2h-1.6V77.3h3.4c1.5,0,2.4,0.4,2.9,0.9c0.7,0.7,1,1.7,1,2.6c0,2.9-2.4,3.4-3.2,3.4
		l3.1,4.2H155.8L155.8,88.5z M152.2,83.1h1.1c0.7,0,3,0,3-2.2c0-0.9-0.6-2.1-2.4-2.1h-1.7V83.1L152.2,83.1z"/>
	<polygon class="logo-st0" points="160.2,88.5 160.2,77.3 166.1,77.3 166.1,78.8 161.8,78.8 161.8,82.1 166.1,82.1 166.1,83.6 
		161.8,83.6 161.8,87 166.1,87 166.1,88.5 160.2,88.5 	"/>
	<polygon class="logo-st0" points="175.9,88.5 170.4,79.9 170.4,79.9 170.4,88.5 168.8,88.5 168.8,77.3 170.6,77.3 175.9,85.8 176,85.8 
		176,77.3 177.6,77.3 177.6,88.5 175.9,88.5 	"/>
	<path class="logo-st0" d="M188.8,80.2c-0.3-0.4-1.3-1.6-3.1-1.6c-2.3,0-4.1,1.9-4.1,4.3c0,2.4,1.9,4.3,4.1,4.3c1.2,0,2.3-0.6,3-1.5h2
		c-1.2,2.2-3.3,3-5,3c-3.1,0-5.7-2.7-5.7-5.8c0-3.2,2.6-5.7,5.7-5.7c0.8,0,2.2,0.2,3.4,1.1c1,0.7,1.4,1.5,1.7,2H188.8L188.8,80.2z"
		/>
	<polygon class="logo-st0" points="192.8,77.3 192.8,88.5 198.8,88.5 198.8,87 194.4,87 194.4,83.6 198.8,83.6 198.8,82.1 194.4,82.1 
		194.4,78.8 198.8,78.8 198.8,77.3 192.8,77.3 	"/>
	<polygon class="logo-st0" points="216.3,88.5 216.3,79.1 216.3,79.1 212.6,88.5 211.6,88.5 207.9,79.1 207.9,79.1 207.9,88.5 
		206.2,88.5 206.2,77.3 208.8,77.3 212.1,85.9 215.4,77.3 217.9,77.3 217.9,88.5 216.3,88.5 	"/>
	<path class="logo-st0" d="M228.1,88.5l-1.2-3.3h-4l-1.2,3.3H220l4.2-11.1h1.4l4.2,11.1H228.1L228.1,88.5z M226.3,83.7l-1.4-4.3h0
		l-1.4,4.3H226.3L226.3,83.7z"/>
	<polygon class="logo-st0" points="237.9,88.5 233.7,82.9 233.7,82.9 233.7,88.5 232.1,88.5 232.1,77.3 233.7,77.3 233.7,82.9 
		233.7,82.9 237.9,77.3 239.9,77.3 235.6,82.9 239.9,88.5 237.9,88.5 	"/>
	<polygon class="logo-st0" points="241.7,88.5 241.7,77.3 247.6,77.3 247.6,78.8 243.3,78.8 243.3,82.1 247.6,82.1 247.6,83.6 
		243.3,83.6 243.3,87 247.6,87 247.6,88.5 241.7,88.5 	"/>
	<path class="logo-st0" d="M255.4,88.5l-3.6-5.2h0v5.2h-1.6V77.3h3.4c1.6,0,2.4,0.4,2.9,0.9c0.7,0.7,1,1.7,1,2.6c0,2.9-2.4,3.4-3.2,3.4
		l3.1,4.2H255.4L255.4,88.5z M251.8,83.1h1.1c0.7,0,3,0,3-2.2c0-0.9-0.6-2.1-2.4-2.1h-1.7V83.1L251.8,83.1z"/>
	<path class="logo-st0" d="M260.7,85.2c0,0.4,0.2,2,1.8,2c1,0,1.8-0.7,1.8-1.9c0-1.2-1-1.5-1.8-1.8c-1.5-0.6-1.8-0.8-2.3-1.2
		c-0.5-0.5-0.7-1.3-0.7-2.1c0-1.3,1-3,3.1-3c1.8,0,3.2,1.2,3.2,3.1H264c0-1.2-0.9-1.6-1.5-1.6c-1,0-1.5,0.9-1.5,1.5
		c0,1.1,1,1.4,1.5,1.5c1.4,0.5,3.4,1,3.4,3.6c0,1.9-1.4,3.4-3.4,3.4c-1.5,0-3.4-1-3.4-3.5H260.7L260.7,85.2z"/>
	<polygon class="logo-st0" points="270.6,78 269.7,78 269.7,77.6 271.9,77.6 271.9,78 271,78 271,81.2 270.6,81.2 270.6,78 	"/>
	<polygon class="logo-st0" points="272.5,81.2 272.5,77.6 273.1,77.6 274.4,80.6 275.7,77.6 276.3,77.6 276.3,81.2 275.9,81.2 275.9,78 
		274.5,81.2 274.3,81.2 272.9,78 272.9,81.2 272.5,81.2 	"/>
	<path class="logo-st0" d="M97.4,45.2c0.8,8.5,7.1,10.3,10.3,10.3c5.3,0,10.3-4.1,10.3-9.8c0-7.2-6.2-8.8-12.2-10.8
		c-4.2-1.2-13.1-3.9-13.1-13.6c-0.1-9.1,7.4-14.2,15.3-14.2c6.4,0,13.8,3.5,14.6,13.3h-5.7c-0.6-3.3-2.3-8.4-9.1-8.4
		c-5.1,0-9.4,3.5-9.4,8.8c-0.1,6.3,5,7.8,12.8,10.4c4.9,1.9,12.5,4.6,12.5,14c0,8.4-6.3,15.1-15.9,15.1c-8.6,0-15.8-5.4-16.1-15.2
		H97.4L97.4,45.2z M276.2,39.8h-20.4L266,14.2L276.2,39.8L276.2,39.8z M254.1,44.5H278l5.9,14.4h6.2L269,7.8h-5.5l-21.3,51.1h6.1
		L254.1,44.5L254.1,44.5z M242.7,45.1c-3.3,7.9-12.2,14.6-23.5,14.6c-15.1,0-26.6-11.7-26.6-26.4c0-14.6,11.3-26.4,26.6-26.4
		c12.6,0,20.6,8.4,23.5,14.9h-6.1c-1.7-3-7.5-9.9-17.4-9.9c-11.9,0-20.9,9.5-20.9,21.3c0,12.1,9,21.5,20.9,21.5
		c10.7,0,16.1-7.7,17.4-9.6H242.7L242.7,45.1z M179,58.9h5.7V7.8H179V58.9L179,58.9z M149.2,14.2l-10.1,25.6h20.4L149.2,14.2
		L149.2,14.2z M131.5,58.9h-6.1l21.3-51.1h5.5l21.1,51.1h-6.2l-5.9-14.4h-23.8L131.5,58.9L131.5,58.9z"/>
	<path class="logo-st0" d="M32.8,0C51,0,65.7,14.7,65.7,32.8v32.8H32.9C14.7,65.6,0,50.9,0,32.8C0,14.7,14.7,0,32.8,0"/>
	<path class="logo-st1" d="M13.6,32.8c0,9.9,7.5,18.1,17.1,19.3v5.8c-12.8-1.2-22.9-12-22.9-25.1c0-13.1,10-23.9,22.9-25.1v5.8
		C21.1,14.7,13.6,22.8,13.6,32.8 M39.4,32.2h13c-0.2-8.3-5.6-15.2-13-17.8V32.2L39.4,32.2z M33.6,52.2V38v-5.8V13.4V7.6
		C47.3,7.8,58.3,19,58.3,32.8v4.7V58h-5.8V47.3V38H39.4v20h-5.8V52.2L33.6,52.2z"/>
	<polyline class="logo-st2" points="79.6,61.1 78.4,61.1 78.4,7.7 79.6,7.7 79.6,61.1 	"/>
</g>
</svg>
