<?xml version="1.0" encoding="UTF-8"?>
<svg id="Layer_2" data-name="Layer 2" xmlns="http://www.w3.org/2000/svg" viewBox="0 0 863.01 623.51">
  <defs>
    <style>
      .cls-1 {
        fill: #e07d5a;
      }

      .cls-2 {
        fill: #fff;
      }

      .cls-3 {
        fill: #733821;
      }

      .cls-4 {
        fill: #3ab063;
      }

      .cls-5 {
        fill: #8d84b8;
      }

      .cls-6 {
        fill: #e3e6ff;
      }

      .cls-7 {
        fill: #e06b51;
      }

      .cls-8 {
        fill: #221d3b;
      }

      .cls-9 {
        fill: #3c6cc7;
      }
    </style>
  </defs>
  <g id="Layer_4" data-name="Layer 4">
    <g>
      <path class="cls-6" d="M28.97,464.66c26.05,62.81,89.44,134.03,281.29,153.14,227.66,22.68,412.28-24.31,494.32-104.08,88.68-86.24,71.4-216.64-18.04-283.2-50.08-37.26-130.61-80.16-284.2-91.94C332.64,125.57,28.97,464.66,28.97,464.66Z"/>
      <g>
        <ellipse class="cls-8" cx="555.78" cy="365.03" rx="41.61" ry="115.96"/>
        <ellipse class="cls-8" cx="245.99" cy="422.23" rx="58.06" ry="132.87"/>
        <path class="cls-8" d="M236.36,553.27c13.01,4.96,72.39,5.4,92.96,1.05,20.57-4.36,2.72-61.47,2.72-61.47l-88.12,4.32-7.56,56.1Z"/>
        <path class="cls-9" d="M92.59,31.41c6.46-5.65,31.58-21.69,31.58-21.69,0,0,296.11-24.05,354.23,3.51,27.08,12.84,55.13,43.37,77.38,73.4,25.51,34.43,43.37,67.89,43.37,67.89,0,0,52.48,6.14,76.16,32.44,23.67,26.3,25.05,92.94,25.05,121.75s-4.3,54.39-5.89,59.37c-3.51,11.02-20.5,22.66-45.09,28.18-27.62,6.2-327.3,67.39-374.9,68.39-47.6,1-108.22,0-137.28,0H28.97S-11.74,321.81,3.36,209.13C16.95,107.67,61.22,58.81,92.59,31.41Z"/>
        <g>
          <path class="cls-8" d="M491.08,192.87c-.35,8.62,8,13.84,15.59,15.11,8.82,1.48,19.45-.9,25.32-8.09,2.67-3.27,3.91-7.42,3.35-11.63-.15-1.13-1.95-1.15-1.8,0,.44,3.32-.25,6.67-2.14,9.44-2.18,3.19-5.58,5.48-9.13,6.9-7.62,3.07-17.61,2.95-24.4-2.09-3.12-2.31-5.15-5.71-4.99-9.65.05-1.16-1.75-1.16-1.8,0h0Z"/>
          <path class="cls-8" d="M535.3,188.03c-.69-4.42-4.09-7.86-8.09-9.58-4.19-1.8-8.88-1.41-13.32-1.19-6.18.3-13.13,1.05-17.99,5.3-3.02,2.64-4.45,6.39-4.81,10.32-.11,1.15,1.69,1.15,1.8,0,.3-3.22,1.43-6.3,3.78-8.58,2.03-1.97,4.68-3.15,7.38-3.89,2.77-.76,5.63-1.09,8.5-1.27,3.6-.23,7.43-.61,10.99.07,4.77.91,9.25,4.3,10.04,9.31.18,1.14,1.91.66,1.74-.48h0Z"/>
          <path class="cls-8" d="M534.14,187.4c-14.06,1.53-28.11,3.05-42.17,4.58-1.14.12-1.15,1.93,0,1.8,14.06-1.53,28.11-3.05,42.17-4.58,1.14-.12,1.15-1.93,0-1.8h0Z"/>
        </g>
        <path class="cls-8" d="M672.43,354.81c9.68.02,19.14-4.4,25.29-11.88.73-.89-.54-2.17-1.27-1.27-5.86,7.13-14.77,11.37-24.01,11.36-1.16,0-1.16,1.8,0,1.8h0Z"/>
        <path class="cls-8" d="M130.25,320.11c-2.82,5.88-4.72,8.64-7.11,10.99-7.02,6.93-13.99,9.18-33.62,9.18H4.92c-.79-6.61-1.52-13.34-2.15-20.17h127.48Z"/>
        <path class="cls-8" d="M6.62,341.18h42.9c14.37,0,28.76.24,43.12-.03,9.19-.17,19.4-.89,27.22-6.27,6.87-4.72,10.75-12.53,14.26-19.84,5.62-11.68,10.36-23.96,13.57-36.52.29-1.12-1.45-1.6-1.74-.48-2.85,11.16-6.96,22.07-11.73,32.54-1.99,4.36-4.1,8.68-6.55,12.8-1.9,3.18-4.08,6.17-6.92,8.58-6.9,5.82-16.46,6.95-25.16,7.31-6.88.28-13.79.12-20.67.12H6.62c-1.16,0-1.16,1.8,0,1.8h0Z"/>
        <path class="cls-8" d="M198.8,218.57c8.76-9.76,16.82-20.15,24.09-31.06,7.3-10.96,13.81-22.44,19.45-34.34,3.16-6.67,6.05-13.46,8.67-20.36.41-1.08-1.33-1.55-1.74-.48-9.22,24.31-21.97,47.26-37.69,67.97-4.45,5.86-9.14,11.52-14.06,17-.77.86.5,2.14,1.27,1.27h0Z"/>
        <path class="cls-8" d="M384.18,415.58c25.47-4.85,50.94-9.69,76.42-14.54,25.47-4.85,50.94-9.69,76.42-14.54,14.28-2.72,28.56-5.43,42.85-8.15,1.14-.22.66-1.95-.48-1.74-25.47,4.85-50.94,9.69-76.42,14.54-25.47,4.85-50.94,9.69-76.42,14.54-14.28,2.72-28.56,5.43-42.85,8.15-1.14.22-.66,1.95.48,1.74h0Z"/>
        <ellipse class="cls-8" cx="323.02" cy="422.23" rx="58.06" ry="132.87"/>
        <path class="cls-8" d="M393.23,446.68h0c-55.34,10.03-102.23,25.4-118.75,25.75-15.73.34-32.81-2.76-49.84-7.32h-.01c10.53-.01,23.8-8.71,23.8-19.62s.95-109.92,24.8-153.32c17.09-31.07,58.19-56.03,86.58-21.57,35.67,43.32,33.43,123.6,33.43,176.07Z"/>
        <path class="cls-8" d="M222.37,395.8c2.19-21.93,5.46-44.01,12.41-64.99,4.99-15.06,12-29.66,20.54-43.03,8.49-13.28,19.11-26.22,33.07-34,6.85-3.82,14.32-5.99,22.15-6.31,8.73-.36,17.48,1.38,25.38,5.12,14.27,6.75,25.72,19.53,31.13,34.34.62,1.7,1.16,3.42,1.61,5.17.29,1.12,2.03.65,1.74-.48-4-15.36-14.4-29.12-27.86-37.47-14.42-8.94-33.07-11.37-48.93-4.87-14.96,6.13-26.57,18.51-35.74,31.48-9.04,12.78-16.22,26.93-21.92,41.49-8.13,20.8-11.95,43.13-14.49,65.23-.32,2.77-.61,5.55-.89,8.32-.12,1.15,1.69,1.14,1.8,0h0Z"/>
        <path class="cls-8" d="M553.75,382.86c-.56-16.66-.53-33.37,1.17-49.96,1.4-13.68,4-27.21,7.76-40.44,3.28-11.52,7.38-22.87,12.77-33.58,5.17-10.28,11.6-20.28,20.34-27.89,3.96-3.45,8.46-6.37,13.39-8.25,6.36-2.42,13.29-3,20.03-2.29,2.2.23,4.38.63,6.54,1.15,1.13.27,1.61-1.47.48-1.74-7.55-1.8-15.66-2.12-23.23-.22-5.17,1.3-10.02,3.7-14.34,6.79-9.39,6.73-16.42,16.35-22.01,26.34-6.02,10.77-10.56,22.36-14.2,34.13-3.93,12.72-6.77,25.76-8.51,38.96-2.19,16.66-2.57,33.48-2.18,50.26.05,2.24.12,4.49.19,6.73.04,1.16,1.84,1.16,1.8,0h0Z"/>
        <path class="cls-5" d="M278.21,287.84c15.87-.48,31.76.6,47.51,2.56,1.15.14,1.14-1.66,0-1.8-15.75-1.96-31.63-3.04-47.51-2.56-1.16.03-1.16,1.84,0,1.8h0Z"/>
        <path class="cls-8" d="M14.36,393.25h181.02c4.16,0,8.34-.12,12.5.27,6.33.59,12.6,2.29,18.12,5.5,9.81,5.7,15.9,15.57,19.81,25.96.49,1.31.96,2.64,1.4,3.97.36,1.09,2.1.63,1.74-.48-3.51-10.63-8.74-21.14-17.77-28.13-4.74-3.67-10.29-6.15-16.12-7.49-7.84-1.8-15.92-1.4-23.9-1.4H14.36c-1.16,0-1.16,1.8,0,1.8h0Z"/>
        <path class="cls-5" d="M312.52,551.96c-10.67-4.71-18.27-14.64-23.91-24.51-7.98-13.95-12.98-29.54-16.46-45.16-4.35-19.53-6.24-39.59-6.28-59.58-.03-19.81,1.76-39.68,5.95-59.06,3.39-15.7,8.29-31.36,16.11-45.45,5.51-9.93,12.91-20.04,23.38-25.15,8.76-4.28,18.49-3.33,26.66,1.8,10.33,6.49,17.4,17.5,22.7,28.21,7.39,14.93,11.94,31.24,14.96,47.57,3.71,20.01,5.02,40.47,4.41,60.81-.16,5.33-.46,10.65-.9,15.96-.1,1.15,1.7,1.15,1.8,0,1.78-21.43,1.33-43.08-1.53-64.39-2.37-17.65-6.36-35.26-13.11-51.77-4.99-12.21-11.59-24.59-21.56-33.49-7.46-6.65-17.08-10.79-27.16-8.74-10.77,2.19-19.22,10.48-25.42,19.1-8.87,12.32-14.54,26.89-18.67,41.4-5.28,18.55-8.03,37.81-9.02,57.05-1.07,20.83-.07,41.82,3.29,62.42,2.81,17.19,7.26,34.32,14.57,50.18,5.29,11.47,12.36,23.09,22.78,30.6,2.03,1.47,4.2,2.73,6.5,3.75,1.05.46,1.97-1.09.91-1.55h0Z"/>
        <path class="cls-2" d="M217.51,214.12c-1.34-4.03-3.66-7.77-6.96-9.09-1.84-.74-3.74-.49-5.56-.19-8.84,1.44-17.53,3.75-26.01,6.53-5.01,1.64-9.94,3.52-14.78,5.63-2.4,1.05-4.79,2.15-7.15,3.31-2.18,1.07-4.39,2.13-6.43,3.51-1.87,1.27-3.59,2.84-4.83,4.95-1.24,2.11-1.95,4.64-2.4,7.23-.49,2.8-.7,5.71-.95,8.59-.28,3.33-.54,6.66-.76,10-.45,6.59-.8,13.21-1.04,19.85-.12,3.37-.22,6.74-.29,10.11-.06,2.91-.12,5.83.14,8.78.24,2.76.78,5.58,1.93,8.14,1.04,2.31,2.54,4.3,4.34,5.81,3.52,2.93,7.8,4.01,11.76,4.16,9.54.36,18.54-3.62,25.93-9.6,7.71-6.23,13.77-14.87,18.73-24.26,2.5-4.73,4.75-9.68,6.83-14.73,2.13-5.17,4.07-10.49,5.6-16.04,1.49-5.42,2.59-11.07,3.06-16.9.23-2.87.34-5.81.2-8.75-.1-2.14-.56-4.64-1.36-7.04Z"/>
        <path class="cls-8" d="M151.15,224.96H3.42c-1.16,0-1.16,1.8,0,1.8h147.73c1.16,0,1.16-1.8,0-1.8h0Z"/>
        <path class="cls-8" d="M329.39,172.56c3.37,20.87,5.98,41.86,7.82,62.92.52,5.97.98,11.94,1.37,17.91.08,1.15,1.88,1.16,1.8,0-1.41-21.18-3.59-42.31-6.54-63.33-.84-6-1.75-12-2.71-17.99-.18-1.14-1.92-.66-1.74.48h0Z"/>
        <path class="cls-8" d="M593.96,163c5.51,14.67,10.17,29.64,13.87,44.87,1.03,4.24,1.98,8.51,2.86,12.78.23,1.13,1.97.65,1.74-.48-3.13-15.22-7.23-30.24-12.2-44.96-1.44-4.26-2.95-8.49-4.53-12.69-.4-1.07-2.14-.61-1.74.48h0Z"/>
        <path class="cls-8" d="M465.92,171.44c4.62,28.58,8.58,57.27,11.88,86.03,3.27,28.55,5.89,57.17,7.86,85.84,1.1,16.11,2,32.23,2.69,48.36.05,1.15,1.85,1.16,1.8,0-1.24-28.86-3.13-57.68-5.69-86.45-2.55-28.7-5.76-57.35-9.62-85.9-2.18-16.15-4.58-32.26-7.18-48.35-.18-1.14-1.92-.66-1.74.48h0Z"/>
        <ellipse class="cls-6" cx="323.02" cy="422.23" rx="41.15" ry="90.22"/>
        <path class="cls-8" d="M357.42,422.23c-.02,15.52-1.79,31.2-6.34,46.07-1.83,5.97-4.12,11.84-7.19,17.29-2.41,4.29-5.32,8.4-9.07,11.63-2.94,2.53-6.54,4.5-10.46,4.84-3.85.33-7.55-.89-10.74-3.01-3.86-2.56-6.93-6.25-9.44-10.1-3.26-4.99-5.72-10.47-7.71-16.07-5.05-14.24-7.26-29.47-7.75-44.53-.52-15.88.84-31.98,4.87-47.37,1.64-6.28,3.74-12.47,6.57-18.31,2.3-4.74,5.07-9.34,8.71-13.18,2.79-2.95,6.17-5.5,10.13-6.59,3.62-.99,7.45-.57,10.82,1.04,3.98,1.9,7.23,5.08,9.89,8.55,3.41,4.43,6.03,9.49,8.15,14.65,5.56,13.53,8.17,28.25,9.14,42.79.27,4.1.4,8.21.41,12.32,0,1.16,1.8,1.16,1.8,0-.02-15.99-1.87-32.2-6.7-47.49-1.91-6.04-4.3-11.99-7.48-17.48-2.52-4.36-5.59-8.56-9.51-11.76-3.19-2.61-6.94-4.51-11.09-4.89-4.03-.37-8.03.87-11.41,3.03-4.04,2.58-7.26,6.28-9.93,10.22-3.38,5-5.94,10.55-8.01,16.21-5.33,14.54-7.63,30.21-8.17,45.63-.57,16.38.85,33.04,5.1,48.91,1.72,6.43,3.93,12.75,6.89,18.72,2.4,4.84,5.34,9.53,9.14,13.39,2.97,3.02,6.58,5.58,10.73,6.65,3.87,1,7.89.54,11.52-1.09,4.11-1.85,7.53-5.06,10.31-8.55,3.58-4.5,6.31-9.6,8.55-14.87,5.87-13.84,8.59-28.98,9.62-43.92.29-4.23.43-8.47.43-12.71,0-1.16-1.8-1.16-1.8,0Z"/>
        <path class="cls-8" d="M317.75,379.02c.08-6.21.65-16.64.23-22.82-.21-3.16-.59-7.36-3.26-9.67-2.89-2.51-6.18.38-11.9,8.09-4.29,5.79-6.39,12.6-8.47,19.26-1.59,5.11-2.86,9.86-.48,14.84,1.95,4.07,13.08,12.39,17.76,16.12,2,1.59,4.94-1.7,5.2-4.18.72-6.99.82-14.64.91-21.64Z"/>
        <path class="cls-8" d="M356.77,396.77c-.01-.11-.03-.22-.04-.34-2.06-15.11-7.82-32.47-16.95-45.11-.86-1.2-1.9-2.47-3.42-2.77-1.44-.28-2.48.29-3.2,1.52-.71,1.21-.53,6.45-.53,7.82,0,14.84.13,29.69.12,44.53,0,2.02,0,4.08.56,6.03.89,3.12,3.44,6.2,6.45,4.13,5.11-3.52,9.52-6.83,14.64-11.04.81-.66,1.91-1.92,2.26-2.85.23-.61.2-1.27.12-1.91Z"/>
        <path class="cls-8" d="M309.88,431.06c-.16-.7-.42-1.34-.72-1.97-.74-2.41-2.25-4.48-3.74-6.32-1.39-1.7-2.8-3.37-4.21-5.05-1.33-1.59-2.61-3.28-4.06-4.72-1.94-1.93-5.2-3.39-7.39-1.05-2.69,2.87-1.93,9.75-1.98,13.63-.07,6.1.42,16.59,1.29,22.6.67,4.61,2.12,14.1,6.23,15.99,3.21,1.49,5.69-4.97,7.18-8.29,1.78-3.98,3.96-8.75,5.69-12.76,1.59-3.68,2.67-7.94,1.7-12.07Z"/>
        <path class="cls-8" d="M335.04,477.69c-1.16-5.22-7.47-23.05-8.17-25.35-.73-2.42-1.93-4.18-3.07-4.4-1.41-.27-2.54.3-3.26,2.04-1.43,3.48-8.9,20.85-11.6,30.29-1.33,4.65-2.4,9.66-.32,14.36,1.94,4.4,6.59,6.68,11.11,8.15,6.8,2.21,17.79-3.19,17.66-12.21-.08-5.25-1.21-7.76-2.35-12.88Z"/>
        <path class="cls-8" d="M357.08,418.2c-1.63-4.02-9.7,2.25-18.39,8.47-7.56,5.41-6.45,12.85-4.72,16.44,1.38,2.86,11.01,24.74,16.35,21.71.86-.49,1.38-1.29,1.8-2.06.55-1.01.99-2.05,1.36-3.12,2.07-5.91,3.48-11.88,4.12-17.98.55-5.26,1.41-18.7-.52-23.46Z"/>
        <path class="cls-8" d="M549.33,479.5c20.95,9.04,70.4,6.99,84.02-.17,13.48-7.08-.59-52.67-.59-52.67l-63.16,3.77-20.28,49.07Z"/>
        <ellipse class="cls-8" cx="626.3" cy="365.03" rx="41.61" ry="115.96"/>
        <path class="cls-8" d="M676.62,386.17c-7.33,4.16-16.56,7.7-27.24,10.1-8.88,2-47.35,30.38-93.6,19.21,7.98-2.74,17.05-13.18,17.05-22.69s.69-103.39,17.78-141.27c12.25-27.11,41.71-48.89,62.06-18.82,25.53,37.75,23.96,107.67,23.96,153.46Z"/>
        <path class="cls-5" d="M594.18,247.86c11.31-.41,22.63.51,33.81,2.2,1.13.17,1.62-1.56.48-1.74-11.34-1.72-22.81-2.68-34.29-2.26-1.15.04-1.16,1.84,0,1.8h0Z"/>
        <path class="cls-5" d="M618.9,478.15c-8.11-4.36-13.24-13.26-17.03-21.31-5.85-12.44-9.33-26-11.8-39.48-3.13-17.1-4.46-34.53-4.48-51.9-.02-17.23,1.24-34.52,4.25-51.5,2.41-13.56,5.83-27.2,11.57-39.76,3.73-8.15,8.76-17.21,16.75-21.88,2.89-1.69,6.16-2.59,9.52-2.29,3.42.31,6.62,1.93,9.3,4.02,7.77,6.06,12.55,15.75,16.15,24.69,5.36,13.32,8.55,27.51,10.68,41.67,2.64,17.55,3.55,35.37,3.09,53.11-.12,4.5-.33,9-.64,13.49-.08,1.16,1.72,1.15,1.8,0,1.26-18.54.97-37.22-1.04-55.7-1.68-15.39-4.48-30.78-9.39-45.49-3.47-10.4-8-21.19-15.48-29.39-5.04-5.52-12.09-9.66-19.77-7.78-8.27,2.02-14.18,9.6-18.32,16.55-6.6,11.08-10.56,23.73-13.49,36.22-3.84,16.38-5.8,33.2-6.51,50-.76,18.15-.06,36.4,2.36,54.41,2,14.89,5.11,29.81,10.48,43.88,3.66,9.61,8.47,19.87,16.41,26.73,1.44,1.25,2.99,2.36,4.67,3.27,1.02.55,1.93-1,.91-1.55h0Z"/>
        <path class="cls-8" d="M296.37,49.55c-6.53,18.82-41.1,89.47-53.15,105.86-12.05,16.39-30.62,21.66-50.61,22.58-25.17,1.15-147.29,2.25-184.36,2.56C25.59,98.22,64.32,56.1,92.58,31.4c1.84-1.6,5.19-4.05,9.03-6.73,17.24.25,151.38,2.19,182.87,4.73,15.46,1.25,16.98,5.47,11.89,20.15Z"/>
        <path class="cls-8" d="M420.91,19.74c-24.05.16-52.78,3.82-75.44,14-34.66,15.57-57.66,83.83-62.22,98.49-4.56,14.66,2.03,34.96,20.79,42.84,9.32,3.91,35.2,7.62,53.11,6.26,88.69-6.7,207.39-20.5,214.44-21.04,9.77-.75,14.37-12.36,9.39-21.04-13.15-22.92-41.34-75.53-82.3-104.72-17.95-12.79-35.7-15.06-77.79-14.78Z"/>
        <path class="cls-7" d="M217.52,214.12c-1.35-4.02-3.67-7.78-6.96-9.1-1.83-.73-3.74-.48-5.56-.19-8.84,1.44-17.53,3.75-26.01,6.53-5,1.65-9.94,3.52-14.78,5.63-2.41,1.05-4.78,2.15-7.14,3.31-2.18,1.07-4.4,2.13-6.44,3.51-1.87,1.27-3.6,2.84-4.83,4.96-1.24,2.11-1.96,4.63-2.41,7.23-.49,2.81-.71,5.72-.95,8.59-.28,3.33-.53,6.66-.77,10-.3,4.42-.55,8.84-.76,13.28.83.41,1.69.76,2.54,1.04,5.57,1.86,11.26,1.19,16.56.01,10.38-2.3,20.36-6.16,29.97-10.75,9.05-4.32,17.79-9.35,26.45-14.53,1.07-4.44,1.86-9.02,2.24-13.72.24-2.87.34-5.81.21-8.75-.11-2.14-.57-4.64-1.36-7.03Z"/>
        <path class="cls-8" d="M151.39,226.04c6.65-2.59,13.77-5.26,21-3.6,3.05.7,5.99,2.07,8.27,4.25,2.47,2.35,3.89,5.48,4.49,8.8.59,3.23.43,6.58.14,9.83-.34,3.87-.81,7.74-1.31,11.6-1.04,8.02-2.37,16-3.96,23.92-1.77,8.8-3.89,17.52-6.33,26.15-.32,1.12,1.42,1.59,1.74.48,4.57-16.15,7.97-32.62,10.19-49.26.55-4.11,1.04-8.24,1.43-12.37.32-3.43.47-6.89-.07-10.31-1.07-6.8-5.51-12.02-12.01-14.23-8.16-2.78-16.39.02-24.05,3-1.07.42-.6,2.16.48,1.74h0Z"/>
        <path class="cls-8" d="M172.75,310.88c-.13,9.45-.23,18.91-.31,28.36-.1,11.53-.18,23.07-.24,34.6-.07,11.61-.12,23.22-.15,34.83-.02,5.12-.03,10.24-.04,15.36,0,4.53-.29,9.17.34,13.67.71,5.02,2.38,9.96,4.84,14.39,2.33,4.21,5.59,8.25,9.93,10.49.99.51,2.04.92,3.12,1.23,1.12.31,1.59-1.42.48-1.74-4.64-1.3-8.2-4.9-10.75-8.85-2.75-4.25-4.59-9.1-5.55-14.07-.86-4.44-.61-8.98-.61-13.48,0-4.99.02-9.99.03-14.98.03-11.26.08-22.52.14-33.78.06-11.41.14-22.81.23-34.22.08-9.61.17-19.22.29-28.84.01-.99.03-1.99.04-2.98.02-1.16-1.78-1.16-1.8,0h0Z"/>
        <path class="cls-5" d="M17.14,153.05c14.78-.02,29.56-.04,44.34.02,14.3.05,28.59.18,42.89.44,14.06.26,28.12.65,42.17,1.25,14.04.6,28.07,1.37,42.08,2.44,13.1,1,26.2,2.43,39.14,4.74,1.55.28,3.1.57,4.65.88,1.13.23,1.62-1.51.48-1.74-12.94-2.58-26.08-4.13-39.22-5.27-13.74-1.19-27.53-1.95-41.3-2.59-14.11-.65-28.22-1.1-42.34-1.4-14.32-.3-28.64-.45-42.96-.53-14.78-.08-29.56-.07-44.34-.05-1.86,0-3.73,0-5.59,0-1.16,0-1.16,1.8,0,1.8h0Z"/>
        <path class="cls-5" d="M314.53,67.6c4.17,29.25,8.34,58.49,12.51,87.74,1.16,8.17,2.33,16.33,3.49,24.5.16,1.14,1.9.66,1.74-.48-4.17-29.25-8.34-58.49-12.51-87.74-1.16-8.17-2.33-16.33-3.49-24.5-.16-1.14-1.9-.66-1.74.48h0Z"/>
        <path class="cls-5" d="M442.09,20.54l9.32,58.12c3.09,19.3,6.19,38.6,9.28,57.9,1.74,10.87,3.48,21.74,5.23,32.61.18,1.14,1.92.66,1.74-.48l-9.32-58.12c-3.09-19.3-6.19-38.6-9.28-57.9-1.74-10.87-3.48-21.74-5.23-32.61-.18-1.14-1.92-.66-1.74.48h0Z"/>
        <path class="cls-9" d="M578.27,163.12c17.94,3.8,47.35,2.73,64.87,3.95,4.04.28,8.29.52,11.61-1.29,3.55-1.94,5.4-5.98,5.82-10.15.42-4.18-.29-8.55-1.21-12.85-2.08-9.69-7.59-15.68-15.36-19.12-7.72-3.42-17.35-3.15-25.23-3.34-4.9-.12-10.14,0-14.66,1.63-5.12,1.83-7.54,5.67-10.99,9.41-3.69,4-9.42,5.57-13.88,8.73-4.46,3.16-8.27,17.3-.97,23.03h0Z"/>
        <path class="cls-8" d="M573.48,161.95c3.46,2.93,8.15,3.62,12.52,4.07,4.49.46,9,.83,13.5,1.15,9.88.71,19.78,1.22,29.69,1.58,5.06.18,10.13.33,15.2.4,1.16.02,1.16-1.78,0-1.8-18.51-.27-37.07-1.12-55.5-2.85-4.71-.44-10.33-.62-14.12-3.83-.88-.74-2.16.52-1.27,1.27h0Z"/>
        <path class="cls-8" d="M653.13,139.72c-.95-2.57-2.08-5.14-3.95-7.29-6.21-7.14-17.42-7.36-25.42-7.84-4.61-.28-8.79.48-13.26.78-3.66.24-7.12,1.18-9,4.27-2.56,4.23-1.96,10.18-1.16,15.26.45,2.86,1.13,5.75,2.12,8.55.88,2.48,2.02,4.82,4.53,6.15,2.57,1.36,5.54,1.73,8.25,2.03,3.15.34,6.31.5,9.45.67,6.1.34,12.22.59,18.28.56,2.94-.01,5.96-.16,8.69-.99,2.58-.78,3.56-2.46,3.99-5.08.91-5.52-.48-11.5-2.53-17.06Z"/>
        <path class="cls-8" d="M582.34,139.01c.75-.45,1.52-.86,2.31-1.24.2-.1.4-.19.6-.28.08-.04.16-.07.24-.11.03-.01.34-.14.19-.08.41-.17.82-.33,1.24-.49.44-.16.79-.62.63-1.11-.14-.43-.63-.8-1.11-.63-1.74.64-3.42,1.43-5.02,2.38-.4.24-.59.82-.32,1.23.26.41.8.58,1.23.32h0Z"/>
        <path class="cls-8" d="M139.21,453.96c-6.03-3.66-12.69-5.91-19.56-7.45-8.09-1.82-16.38-2.59-24.67-2.63-2.46-.01-4.76-.01-6.89-.01H23.64c3.17,13.14,5.34,20.79,5.34,20.79h108.22c4.26,0,9.21.02,14.69.06-3.71-4.15-7.89-7.84-12.68-10.75Z"/>
        <path class="cls-2" d="M73.75,242.23v34.86c0,8.09-6.56,14.66-14.66,14.66H.73c-1.07-21.39-1.05-43.12.67-64.17h57.7c8.09,0,14.66,6.56,14.66,14.66Z"/>
        <path class="cls-8" d="M329.7,422.23c-.02,3.16-.35,6.33-1.24,9.38-.62,2.14-1.53,4.49-3.2,6.04-3.55,3.28-6.43-2.27-7.38-5.11-1.97-5.88-2.07-12.72-.56-18.71.65-2.57,2.99-9.76,6.99-7.7,2.06,1.06,3.17,3.74,3.86,5.8,1.11,3.32,1.51,6.82,1.53,10.31,0,1.16,1.81,1.16,1.8,0-.02-3.63-.43-7.33-1.59-10.79-.78-2.34-1.93-4.84-3.94-6.38-1.57-1.2-3.57-1.42-5.3-.4-2.08,1.22-3.3,3.59-4.15,5.76-2.57,6.56-2.63,14.61-.75,21.35,1.01,3.63,3.95,10.36,8.91,8.38,2.51-1,3.94-3.73,4.87-6.1,1.46-3.73,1.95-7.83,1.97-11.81,0-1.16-1.79-1.16-1.8,0Z"/>
        <ellipse class="cls-6" cx="626.24" cy="365.03" rx="31.67" ry="82.14"/>
        <path class="cls-8" d="M652.5,365.03c-.01,14.06-1.34,28.25-4.86,41.89-1.39,5.38-3.13,10.71-5.51,15.74-1.8,3.8-3.98,7.55-6.94,10.57-2.13,2.18-4.83,4.07-7.94,4.4-2.96.31-5.78-.87-8.07-2.68-3.11-2.46-5.41-5.86-7.31-9.3-2.52-4.58-4.36-9.51-5.86-14.51-3.93-13.09-5.58-26.85-5.96-40.47-.4-14.41.61-28.99,3.72-43.09,1.25-5.65,2.84-11.25,5.01-16.62,1.72-4.24,3.82-8.47,6.68-12.07,2.04-2.56,4.6-5.02,7.79-6.04,2.76-.88,5.63-.46,8.13.96,3.14,1.78,5.55,4.7,7.49,7.69,2.7,4.16,4.68,8.76,6.3,13.43,4.33,12.48,6.27,25.78,7.01,38.92.21,3.72.31,7.44.31,11.16,0,1.16,1.8,1.16,1.8,0-.01-14.49-1.41-29.14-5.14-43.17-1.47-5.51-3.31-10.96-5.83-16.08-1.9-3.87-4.23-7.69-7.36-10.7-2.38-2.29-5.31-4.09-8.65-4.44-3.18-.33-6.28.84-8.81,2.73-3.25,2.43-5.71,5.79-7.71,9.28-2.69,4.67-4.66,9.76-6.25,14.89-4.16,13.43-5.89,27.64-6.3,41.65-.43,14.87.64,29.92,3.93,44.45,1.33,5.86,3.04,11.66,5.38,17.2,1.82,4.3,4.03,8.49,7.02,12.09,2.21,2.65,4.98,5.04,8.34,6.06,3.03.92,6.22.48,9-.99,3.32-1.76,5.91-4.71,8-7.78,2.83-4.14,4.89-8.79,6.59-13.5,4.63-12.81,6.66-26.58,7.45-40.13.22-3.85.33-7.71.33-11.57,0-1.16-1.8-1.16-1.8,0Z"/>
        <path class="cls-8" d="M622.18,325.69c.06-5.65.5-15.15.18-20.78-.16-2.88-.46-6.7-2.51-8.8-2.22-2.28-4.76.34-9.16,7.36-3.3,5.27-4.92,11.47-6.52,17.54-1.23,4.65-2.2,8.98-.37,13.51,1.5,3.71,10.06,11.28,13.67,14.68,1.54,1.45,3.8-1.55,4-3.81.55-6.37.63-13.33.7-19.7Z"/>
        <path class="cls-8" d="M652.21,341.85c-.01-.1-.02-.2-.03-.31-1.59-13.75-6.02-29.56-13.05-41.07-.67-1.09-1.46-2.25-2.63-2.52-1.11-.26-1.91.27-2.46,1.38-.55,1.1-.41,5.87-.41,7.12,0,13.51.1,27.03.09,40.55,0,1.84,0,3.71.43,5.49.68,2.84,2.65,5.65,4.97,3.76,3.93-3.21,7.32-6.21,11.27-10.05.62-.6,1.47-1.75,1.74-2.6.17-.55.15-1.15.09-1.74Z"/>
        <path class="cls-8" d="M616.12,373.07c-.13-.64-.32-1.22-.55-1.79-.57-2.19-1.73-4.08-2.88-5.75-1.07-1.55-2.16-3.07-3.24-4.59-1.02-1.45-2.01-2.99-3.12-4.3-1.49-1.76-4-3.08-5.69-.96-2.07,2.62-1.49,8.88-1.52,12.41-.05,5.55.32,15.1.99,20.58.52,4.2,1.63,12.83,4.8,14.56,2.47,1.35,4.38-4.52,5.52-7.55,1.37-3.62,3.04-7.96,4.38-11.62,1.23-3.35,2.05-7.23,1.31-10.99Z"/>
        <path class="cls-8" d="M635.49,415.52c-.89-4.75-5.75-20.98-6.28-23.08-.56-2.21-1.49-3.8-2.37-4-1.09-.24-1.96.28-2.51,1.86-1.1,3.17-6.85,18.98-8.93,27.57-1.02,4.23-1.85,8.8-.25,13.08,1.5,4.01,5.07,6.08,8.55,7.42,5.23,2.02,13.69-2.9,13.59-11.12-.06-4.78-.93-7.06-1.81-11.73Z"/>
        <path class="cls-8" d="M652.45,361.36c-1.26-3.66-7.46,2.05-14.15,7.71-5.82,4.93-4.97,11.7-3.64,14.97,1.06,2.6,8.48,22.53,12.58,19.76.66-.44,1.07-1.18,1.39-1.88.42-.92.76-1.87,1.05-2.84,1.59-5.38,2.68-10.81,3.17-16.37.43-4.79,1.08-17.03-.4-21.36Z"/>
        <path class="cls-8" d="M631.17,365.03c-.01,2.86-.26,5.73-.94,8.51-.46,1.88-1.09,4.01-2.42,5.48-2.72,3.02-4.8-2.74-5.34-4.68-1.5-5.35-1.57-11.38-.44-16.81.34-1.63,2.09-9.03,5.12-7.08,1.6,1.03,2.34,3.41,2.83,5.12.89,3.07,1.18,6.28,1.2,9.46,0,1.16,1.81,1.16,1.8,0-.02-3.28-.33-6.61-1.22-9.78-.58-2.07-1.43-4.43-3.09-5.89-1.24-1.09-2.89-1.35-4.31-.42-1.74,1.15-2.67,3.35-3.31,5.25-2.04,6.09-2.06,13.28-.61,19.5.67,2.87,2.89,9.69,7.17,7.72,2.08-.96,3.14-3.51,3.82-5.54,1.16-3.47,1.52-7.2,1.54-10.84,0-1.16-1.79-1.16-1.8,0Z"/>
        <g>
          <path class="cls-8" d="M396.92,203.16c-.35,8.62,8,13.84,15.59,15.11,8.82,1.48,19.45-.9,25.32-8.09,2.67-3.27,3.91-7.42,3.35-11.63-.15-1.13-1.95-1.15-1.8,0,.44,3.32-.25,6.67-2.14,9.44-2.18,3.19-5.58,5.48-9.13,6.9-7.62,3.07-17.61,2.95-24.4-2.09-3.12-2.31-5.15-5.71-4.99-9.65.05-1.16-1.75-1.16-1.8,0h0Z"/>
          <path class="cls-8" d="M441.14,198.32c-.69-4.42-4.09-7.86-8.09-9.58-4.19-1.8-8.88-1.41-13.32-1.19-6.18.3-13.13,1.05-17.99,5.3-3.02,2.64-4.45,6.39-4.81,10.32-.11,1.15,1.69,1.15,1.8,0,.29-3.22,1.43-6.3,3.78-8.58,2.03-1.97,4.68-3.15,7.38-3.89,2.77-.76,5.63-1.09,8.5-1.27,3.6-.23,7.43-.61,10.99.07,4.77.91,9.25,4.3,10.04,9.31.18,1.14,1.91.66,1.74-.48h0Z"/>
          <path class="cls-8" d="M439.98,197.69l-42.17,4.58c-1.14.12-1.15,1.93,0,1.8,14.06-1.53,28.11-3.05,42.17-4.58,1.14-.12,1.15-1.92,0-1.8h0Z"/>
        </g>
      </g>
      <g>
        <path class="cls-1" d="M329.88,471.25c-.98-6.65-4.24-12.61-7.07-18.61-1.43-3.02-2.71-6.09-3.67-9.29-.4-1.34-.9-2.78-2.08-3.63-1.24-.9-2.86-.9-4.33-.93-2.88-.04-5.83.37-8.58,1.3-.03-.02-.05-.03-.08-.05-1.63-.96-3.25-1.94-4.85-2.95-3.17-1.99-6.28-4.07-9.33-6.23s-6.04-4.41-8.96-6.75c-2.58-2.06-5.27-4.73-8.78-4.8-3.1-.06-5.24,2.17-5.62,5.16-.41,3.23.96,6.41,2.51,9.17,1.99,3.54,4.31,6.94,6.64,10.26,1.09,1.55,2.21,3.07,3.38,4.56-2.94,1.62-5.94,3.15-9,4.55-3.92,1.8-7.93,3.39-12,4.8-3.81,1.31-8.16,2.01-11.7,3.98-3.1,1.73-5.35,5.17-4.23,8.78.89,2.89,3.38,4.71,6.16,5.49-3.07,1.74-5.29,5.16-4.18,8.75,1.17,3.79,5.08,5.76,8.8,5.92,1.68.07,3.4-.12,5.12-.43-2.22,1.78-3.59,4.56-2.7,7.44,1.11,3.6,4.82,5.47,8.36,5.62,3.93.17,8.08-1.14,11.84-2.15,3.91-1.05,7.76-2.31,11.54-3.76,12.82-4.91,25.78-11.59,37.27-19.1,1.49-.97,3.05-1.93,4.44-3.04,1.33-1.07,1.35-2.48,1.12-4.05Z"/>
        <path class="cls-8" d="M249.84,476.49c10.2-1.7,20.03-5.15,29.1-10.1,1.02-.55.11-2.11-.91-1.55-8.94,4.87-18.63,8.24-28.67,9.92-1.14.19-.66,1.92.48,1.74h0Z"/>
        <path class="cls-8" d="M257.67,490.41c10.2-1.7,20.03-5.15,29.1-10.1,1.02-.55.11-2.11-.91-1.55-8.94,4.87-18.63,8.24-28.67,9.92-1.14.19-.66,1.92.48,1.74h0Z"/>
        <path class="cls-4" d="M516.26,404.49c-.28-4.3-.68-8.8-2.03-12.91-1.19-3.61-3.46-6.65-6.78-8.53-2.69-1.52-5.82-2.12-8.86-1.69-8.51-8.95-20.64-14.39-33.03-14.6-8.56-.15-17.18,2.16-25.01,5.52-7.16,3.08-13.91,7.45-18.87,13.54-10.1,12.41-11.52,29.31-12.38,44.65-1.07,18.97-.94,38,.4,56.95.68,9.57,1.66,19.12,2.96,28.63,1.15,8.47,1.78,17.65,7.41,24.52,5.1,6.22,12.58,10.67,19.9,13.8,7.47,3.2,15.73,5.22,23.88,5.29,3.67.03,7.45-.44,10.81-1.98,3.27-1.5,5.84-3.99,7.54-7.15,1.75-3.25,2.58-6.92,3.23-10.52.79-4.37,1.49-8.76,2.35-13.12,1.81-9.21,3.98-18.35,6.52-27.39,2.57-9.17,5.6-18.19,8.65-27.21,5.96-17.62,11.89-35.52,13.22-54.2.32-4.53.38-9.09.08-13.62Z"/>
        <path class="cls-1" d="M401.53,370.57c3.98-4.23,3.81-11.35,3.31-16.72-.18-1.95-.48-3.88-.91-5.79-.36-1.61-.79-3.29-1.82-4.62-.96-1.23-2.36-1.95-3.71-2.66-1.74-.9-3.47-1.8-5.21-2.7-2.67-1.38-5.34-2.75-8.02-4.12-1.53-2.88-3.16-5.7-4.8-8.46-5.34-8.94-13.1-19.77-20.91-26.79-6.22-5.59-13.54,1.46-8.35,9.11,1.93,2.85,3.79,5.73,5.51,8.71,3.16,5.49,5.78,9.98,8.17,15.83-2.78-1.75-5.57-3.49-8.34-5.23-3.41-2.15-6.59-3.88-9.12-2.48-1.68.93-2.6,2.42-2.6,4.2,0,2.23,1.25,4.3,2.61,6,1.48,1.85,14.54,17.2,20.78,23.28,5.76,5.61,11.33,10.92,19.1,13.27,4.57,1.38,9.6,1.75,14.23.4.65-.19.61-1.11.09-1.25Z"/>
        <polygon class="cls-1" points="445.11 213.29 457.13 240 435.6 258.58 424.99 232.46 445.11 213.29"/>
        <path class="cls-2" d="M465.73,231.31c-3.29-3.16-8.08-5.16-12.48-3.95-3.46.95-6.1,3.66-8.58,6.25-4.31,4.53-8.67,9.12-11.74,14.58-3.07,5.45-3.03,9.89-1.59,15.98l41.8-21.44c-2.03-4.09-4.12-8.26-7.42-11.43Z"/>
        <path class="cls-4" d="M603.51,345.65c-11.05,5.82-14.96,11.79-25.87,17.83-25.66,14.22-50.85,29.35-77.25,42.16-5.08,3.68-10.11,7.42-15.07,11.25-17.67,13.62-34.64,28.15-50.81,43.53-8.12,7.72-16.03,15.65-23.73,23.78-15.28,16.13-33.23,39.08-38.41,60.88-4.47,18.8-.27,39.84,14.44,54.5,8.98,8.95,18.6,13.63,30.54,16.51,15.5,3.73,35.09,3.85,51.01,3.03,32.38-1.69,55.64-3.37,90.86-9.21,5.03-.83,13.25-3.56,17-7.05,3.87-3.59,5.65-9.12,6.53-14.32.95-5.59.6-11.38.36-17.02-.5-12.05-6.67-30.4-10.62-41.79-2.99-8.63-7.45-10.15-10.01-10.11-2.95.04-5.9.13-8.85.26-11.76.53-23.5,1.76-35.13,3.69,41.22-21.99,118.75-70.85,108.88-135.72-2.24-14.7-12.75-30.77-23.88-42.21Z"/>
        <path class="cls-2" d="M600.18,328.86c-6.5-8.74-36.14-40.16-43.64-47.61-7.74-7.68-15.65-15.18-23.72-22.51-7.57-6.87-15.17-14.08-24.17-19.05-8.47-4.68-18.13-6.77-27.76-6.57-23.77.49-46.5,15.38-55.57,37.78-10.73,26.52,2.95,56.09,10.82,82.37,2.9,9.67,21.22,12.97,26.94,21.28,5.63,8.19,11.76,14.92,18.28,21.07,7.27,6.85,14.25,11.32,23.41,12.72,10.05,1.53,8.48,2.47,18.24.13,10.44-2.51,80.59-51.32,83.48-60.4,2.52-7.91-.43-11.3-6.31-19.21Z"/>
        <path class="cls-4" d="M505.62,414.55c-1.97-.01-4.01.05-5.92-.53-1.88-.56-3.57-1.67-5.22-2.69-1.69-1.04-3.35-2.13-4.98-3.24-3.14-2.15-6.23-4.42-9.13-6.88-2.74-2.33-5.3-4.88-7.4-7.8-2.18-3.04-3.72-6.46-4.67-10.08-1.73-6.6-1.5-13.66.37-20.2,1.32-4.62,3.48-9,6.34-12.87,3.79,9.12,8.51,17.86,13.96,26.09,5.99,9.04,12.9,17.47,20.58,25.14,4.03,4.02,8.29,7.82,12.72,11.39-3.48,1.06-7.12,1.47-10.76,1.61-1.96.07-3.92.07-5.89.06Z"/>
        <path class="cls-8" d="M480.68,381.36c-1.98,5-4.23,9.88-6.68,14.67-1.79-1.44-3.5-2.98-5.1-4.62-.93-.95-1.81-1.94-2.67-2.96-.38-.45-.75-.9-1.11-1.37-.38-.49-.91-1.03-1.03-1.66-.13-.64.2-1.29.49-1.84.32-.61.66-1.21.99-1.82.63-1.16,1.25-2.31,1.86-3.48,1.25-2.37,2.46-4.75,3.65-7.14,4.74-9.59,8.98-19.42,12.7-29.44,1.72-4.63,3.97-13.11,5.46-17.82,1.14,8.22.42,20.39-.72,28.63-1.37,9.9-4.16,19.57-7.84,28.86Z"/>
        <path class="cls-8" d="M635.25,597.4c-.39-4.45-.77-7.07-2.05-11.33-6.69-22.26-16.43-43.93-25.43-65.29-.94-2.23-1.9-4.49-3.4-6.38-4.1-5.16-10.71-4.61-16.35-2.8-7.26,2.32-14.87,4.46-21.46,6.76-6.02,2.1-9.28,5.3-10.1,11.48-1.73,13.05-1.52,17.44-1.3,32.67.03,1.79.9,12.52,2.29,13.65,3.29,2.68,19.14,3.62,23.05,5.22,4.46,1.83,8.69,4.21,12.58,7.06,5.17,3.8,7.7,6.24,11.83,11.19,4.21,5.05,6.96,9.46,13.33,11.99,3.03,1.2,6.38,1.44,9.44.23,1.75-.69,3.31-1.77,4.46-3.19.08-.07.16-.13.24-.21,2.82-2.85,3.21-7.27,2.87-11.05Z"/>
        <path class="cls-5" d="M631.16,607.88c-5.44-2.32-7.85-8.21-9.99-13.31-2.86-6.82-5.71-13.63-8.5-20.48-5.6-13.75-10.94-27.61-15.49-41.75-1.21-3.75-2.76-7.67-2.81-11.66-.03-2.57.08-6.13,1.93-8.12.78-.85-.49-2.13-1.27-1.27-1.74,1.89-2.17,4.69-2.37,7.16-.27,3.32.34,6.47,1.3,9.64,2.24,7.4,4.78,14.72,7.44,21.98,5.36,14.63,11.35,29.01,17.37,43.37,2.5,5.96,5.06,13.25,11.49,15.99,1.05.45,1.97-1.1.91-1.55h0Z"/>
        <path class="cls-5" d="M586.09,513.7c-2.08,6.48-1.48,13.52.04,20.05,1.65,7.09,4.3,14.03,6.78,20.86,5.13,14.11,11.03,27.95,17.66,41.42,1.65,3.36,3.22,6.84,5.29,9.96,1.78,2.69,4.08,5.06,7.24,6.01,1.11.33,1.59-1.4.48-1.74-2.82-.84-4.81-3.07-6.35-5.47-1.75-2.7-3.11-5.66-4.54-8.54-3.2-6.46-6.24-13.01-9.1-19.63-2.86-6.63-5.55-13.33-8.06-20.1-2.46-6.64-4.92-13.35-6.86-20.17-2.03-7.13-3.15-14.99-.84-22.19.35-1.11-1.38-1.58-1.74-.48h0Z"/>
        <path class="cls-8" d="M436.89,549.42c21.78-5.06,43.29-11.24,64.43-18.52,6-2.07,11.97-4.22,17.91-6.47,1.07-.41.61-2.15-.48-1.74-20.92,7.89-42.23,14.71-63.85,20.41-6.14,1.62-12.3,3.14-18.48,4.58-1.13.26-.65,2,.48,1.74h0Z"/>
        <path class="cls-2" d="M490.6,295.36c-.37-10.4-2.21-20.87-6.46-30.43-2.04-4.6-4.71-8.92-8.01-12.73-3.46-4-7.44-7.52-12.63-9-14.59-4.15-24.86,7.34-32.55,17.12-17.23,21.93-30.62,70.4-44.05,94.25-10.51,18.68-56.77,57.57-64.93,64.57-4.08,3.5-8.33,6.78-12.41,10.27-1.78,1.52-3.5,3.39-3.98,5.76-.81,4.03.61,7.71,2,11.3,1.71,4.41,4.21,8.88,5.87,13.32,3.13,8.38,12.79,18.78,18.72,19.47,4.49.53,8.75-2.45,11.98-5.53,1.28-1.23,2.41-2.62,3.36-4.11,9.24,5.36,20.72,4.68,30.63,1.5,10.95-3.52,20.82-9.87,29.65-17.13,9.24-7.59,17.58-16.3,25.55-25.19,8.22-9.17,15.95-18.79,22.94-28.93,14.15-20.54,25.22-43.42,30.68-67.85,2.68-11.98,4.08-24.38,3.64-36.66Z"/>
        <path class="cls-8" d="M436.2,257.16c9.27-8.65,19.88-15.81,31.52-20.87,1.06-.46.14-2.01-.91-1.55-11.77,5.13-22.51,12.4-31.88,21.15-.85.79.43,2.06,1.27,1.27h0Z"/>
        <path class="cls-8" d="M321.7,422.76c2.75,13.91,8.68,27.2,17.3,38.48,2.43,3.18,5.06,6.19,7.88,9.02.82.82,2.09-.45,1.27-1.27-9.83-9.84-17.25-21.99-21.67-35.17-1.26-3.77-2.27-7.63-3.05-11.53-.22-1.14-1.96-.65-1.74.48h0Z"/>
        <path class="cls-8" d="M479.64,362.1c5.21-13.21,8.79-27,10.67-41.08.15-1.14-1.65-1.13-1.8,0-1.85,13.9-5.46,27.55-10.61,40.6-.43,1.08,1.31,1.55,1.74.48h0Z"/>
        <path class="cls-4" d="M593.66,369.71c-9.36-11.86-18.91-23.56-28.4-35.3-9.07-11.22-18.05-22.53-27.44-33.49-9.06-10.59-18.55-20.89-28.95-30.18-9.62-8.59-20.33-16.35-32.53-20.82-11.24-4.12-23.93-5.34-35.48-1.81-5.97,2.34-10.39,9.53-9.91,12.24,10.24-3.36,21.99-2.86,32.29.28,12.09,3.69,22.78,10.89,32.3,19.05,10.21,8.75,19.45,18.61,28.26,28.74,9.07,10.44,17.7,21.27,26.38,32.03,9.12,11.3,18.23,22.61,27.41,33.87,1.14,1.4,2.29,2.8,3.45,4.2.45.55,11.14-3.84,10.69-4.41-.24-.31-.52-.61-.78-.91,1.48-1.43,2.96-3.16,2.72-3.48Z"/>
        <path class="cls-8" d="M579.1,374.53c3.58-3.11,7.16-6.22,10.75-9.33.88-.76-.4-2.03-1.27-1.27-3.58,3.11-7.16,6.22-10.75,9.33-.88.76.4,2.03,1.27,1.27h0Z"/>
        <path class="cls-8" d="M466.32,387.95c5.45,6.93,12,12.96,19.3,17.9,1.82,1.23,3.68,2.39,5.58,3.47.98.56,1.98,1.1,2.98,1.62.91.48,1.92,1.16,2.92,1.44.55.15,1.21.13,1.77.18,1.37.11,2.75.17,4.12.19,4.59.07,9.27-.27,13.69-1.56,1.11-.32.64-2.06-.48-1.74-3.9,1.13-7.97,1.49-12.01,1.5-1.49,0-2.98-.04-4.46-.14-.72-.05-1.6,0-2.3-.2-.08-.02-.12-.1.02-.05-.46-.16-.92-.45-1.36-.67-1.01-.51-2.01-1.04-3-1.58-1.87-1.03-3.69-2.13-5.48-3.3-3.59-2.34-6.99-4.96-10.18-7.82-3.58-3.22-6.88-6.74-9.85-10.52-.72-.91-1.98.37-1.27,1.27h0Z"/>
        <path class="cls-8" d="M412.68,484.55c9.61-10.54,19.59-20.74,29.92-30.57,10.28-9.78,20.92-19.19,31.87-28.21,6.27-5.16,12.64-10.19,19.12-15.09.91-.69.02-2.25-.91-1.55-11.38,8.61-22.45,17.62-33.19,27.01-10.78,9.44-21.23,19.27-31.3,29.46-5.72,5.78-11.31,11.68-16.79,17.69-.78.85.49,2.13,1.27,1.27h0Z"/>
        <path class="cls-3" d="M396.24,154.33c-11.14,3.7-22.9,12.72-27.46,20.04-5.32,8.54-7.06,18.8-2.04,25.52,5.02,6.72,16.26,9.03,25.87,4.47,6.55-3.11,11.6-8.76,15.21-14.59,5.06-8.16,7.86-17.11,8-25.59.2-12.08-9.03-13.36-19.58-9.86Z"/>
        <path class="cls-2" d="M389,241.84c.54,1.68,2.81,6.47,3.92,7.9,1.11,1.43,11.53-9.73,11.53-9.73l-11.18-6.08-4.26,7.9Z"/>
        <path class="cls-1" d="M448.57,191.71c-.38-2.5-1.08-4.97-2.25-7.17-1.17-2.17-2.75-4.06-4.54-5.71-6.15-5.72-14.08-9.18-22.35-10.36-8.23-1.16-16.87-.01-24.68,3.45-6.53,2.89-17.76,5.37-17.92,12.87-.28,12.64,5.17,38.08,12.17,57.05l5.32-2.33s.92,5.36-1.41,10.23c2.27,3.19,5.43,5.9,9.54,7.18,4.57,1.43,10.74.15,15.35-1.45,9.31-3.24,16.08-11.46,20.96-20,5.01-8.76,8.29-18.51,9.59-28.47.66-5.05.97-10.3.21-15.29Z"/>
        <path class="cls-8" d="M426.02,239.35c1.07,2.23,2.15,4.46,3.22,6.69.21.44.84.55,1.23.32.45-.26.53-.79.32-1.23-1.07-2.23-2.15-4.46-3.22-6.69-.21-.44-.84-.55-1.23-.32-.45.26-.53.79-.32,1.23h0Z"/>
        <path class="cls-3" d="M453.42,164.34c-2.61-3.78-6.72-6.03-10.93-7.11-3.95-1.02-13.53-1.1-12.84.89,0,0,.27.77.76,2.13-.97.02-1.93.17-2.9.45-.88.26-.42,1.33.48,1.1.99-.25,1.95-.32,2.87-.26.13.37.27.76.42,1.18-6.04,1.76-11.75,4.15-16.93,7.11-3.06,1.75-5.92,3.69-8.52,5.8-2.57,2.08-5.61,4.46-6.61,7.17-1.02,2.76-.62,5.8-.35,8.56.27,2.82.82,5.62,1.69,8.35,1.73,5.39,4.76,10.52,9.44,14.8,8.23,7.52,23.18,12.54,37.17,9.45,1.6-.35,3-.97,3.64-2.15.35-.65.54-1.36.68-2.07,0,0,0,.02,0,.02,1.59-7.28,3-13.49,4.5-20.19,1.32-5.9,2.36-13.52,1.84-20.69-.4-5.41-1.68-10.55-4.42-14.51Z"/>
        <path class="cls-1" d="M380.18,232.29c-.41,1.88-.6,3.86.35,5.19,1.56,2.17,7.44,2.12,10.93,1.5l-6.5-25.12c-1.49,5.55-3.5,12.56-4.78,18.43Z"/>
        <path class="cls-3" d="M441.06,163.57c-.95-4.41-5.73-10.42-10.59-11.83-16.81-4.88-46.06,1.71-56.49,17.27-5.38,8.03-6.96,25.26,6.29,31.74,2.07,1.01,4.54,1.21,6.67.41-.2,1.23.06,2.55.71,3.7,1.4,2.48,3.98,3.53,6.76,3.32,3.27-.26,6.27-2,8.93-3.79,2.62-1.76,5.03-3.82,7.17-6.14.13-.14.24-.28.37-.42.16,1.08.57,2.12,1.27,2.96,1.62,1.95,4.2,1.92,6.4,1.08,2.49-.95,4.82-2.63,6.94-4.23,8.65-6.51,16.1-31.64,15.58-34.06Z"/>
        <path class="cls-8" d="M405.1,192.59c3.12,2.79,7.8,1.88,10.6-.84,3.08-2.99,4.03-7.28,2.73-11.34-.35-1.1-2.06-.64-1.74.48.57,1.99,3.25,2.83,5.1,2.75,2.61-.11,4.7-1.86,6.33-3.76,3.39-3.96,4.43-9.14,3.04-14.14-.31-1.11-2.05-.64-1.74.48,1.07,3.86.58,7.86-1.68,11.2-1.03,1.53-2.48,3.15-4.17,3.96-.96.46-2.03.58-3.06.34-.7-.16-1.87-.52-2.1-1.31-.58.16-1.16.32-1.74.48,1.02,3.19.52,6.55-1.77,9.08-2.08,2.29-5.92,3.7-8.55,1.35-.86-.77-2.14.5-1.27,1.27h0Z"/>
        <path class="cls-1" d="M423.28,204.44c-3.14-6.77-11.25-7.61-16.97-4.23-5.94,3.5-7.63,11.62-4.15,18.22,3.48,6.6,11.79,7.89,16.46,4.97,5.64-3.53,7.85-12.09,4.66-18.96Z"/>
        <path class="cls-3" d="M416.29,226.61c-2.75-7.01-10.21-26.96-11.21-28.34-.82-1.13-1.05,1.4-1.95.61-1.19-1.05-2.97-1.37-4.57-.85-2.1.68-1.14,3.58-.77,5.51,1.09,5.64,3.53,31.62,2.33,36.92-.41,1.8-1.38,4.71-3.48,6.56-1.35,1.19-2.52,1.39-3.74,2.72-3.88,4.27.51,11.18,4.34,12.6,4.75,1.77,11.33.03,16.02-1.89,16.08-5.99,17.47-13.83,17.47-13.83-6.23.78-12.14-14.12-14.45-20.01Z"/>
        <path class="cls-8" d="M413.14,206c3.12,1.21,4.11,5.12,4.09,8.08,0,1.16,1.79,1.16,1.8,0,.02-3.91-1.5-8.3-5.41-9.81-.45-.18-.99.19-1.11.63-.14.51.17.93.63,1.11h0Z"/>
        <path class="cls-3" d="M390.77,211.37c-1.34-3.83-9.46-5.28-11.2-1.14-.47,1.12-.51,2.4-.34,3.59.17,1.26.79,2.39,2.14,2.61,1.17.19,2.32-.33,3.38-.75,1.43-.56,2.85-1.14,4.26-1.74,1.09-.46,2.25-1.19,1.76-2.57Z"/>
        <path class="cls-8" d="M385.29,219.12c-2.98.84-1.16,6.47.64,8.36.58.6,1.42.9,2.22.73,4.13-.88.94-10.16-2.86-9.09Z"/>
        <path class="cls-8" d="M555.91,536.02c-.54,10.46-.91,20.96-.22,31.43.35,5.21.96,10.41,1.94,15.54.97,5.04,2.2,10.18,4.17,14.93,1.93,4.65,6.01,8.77,11.44,7.27,1.11-.31.64-2.05-.48-1.74-5.21,1.44-8.36-3.44-9.86-7.67-1.62-4.58-2.81-9.32-3.69-14.09-1.77-9.59-2.2-19.38-2.09-29.12.06-5.52.3-11.04.58-16.55.06-1.16-1.74-1.15-1.8,0h0Z"/>
      </g>
    </g>
  </g>
</svg>