<?xml version="1.0" encoding="UTF-8"?>
<svg id="Layer_2" data-name="Layer 2" xmlns="http://www.w3.org/2000/svg" viewBox="0 0 1340.14 1277.92">
  <defs>
    <style>
      .cls-1 {
        fill: #fff;
      }

      .cls-2 {
        fill: #979cc7;
      }

      .cls-3 {
        fill: #3ab063;
      }

      .cls-4 {
        fill: #ffbd66;
      }

      .cls-5 {
        fill: #8d84b8;
      }

      .cls-6 {
        fill: #e3e6ff;
      }

      .cls-7 {
        fill: #e06b51;
      }

      .cls-8 {
        fill: #6675e8;
      }

      .cls-9 {
        fill: #bdc0d9;
      }

      .cls-10 {
        fill: #f08f6c;
      }

      .cls-11 {
        fill: #221d3b;
      }
    </style>
  </defs>
  <g id="Layer_4" data-name="Layer 4">
    <g>
      <path class="cls-6" d="M168.69,1277.92C113.25,1277.92.03,1166.12,0,982.31-.06,675.19,104.49,396.37,275.21,322.53c170.73-73.84,511.89-9.99,688.99,75.42,177.11,85.41,333.44,310.18,368.92,530.06,35.49,219.88-69.5,349.91-184.83,349.91H168.69Z"/>
      <g>
        <g>
          <path class="cls-11" d="M1001.59,498.63h66.13c16.46,0,30.31,5.15,34.51,18.27v-.04c.02.06.03.12.05.18.26.84.48,1.7.66,2.61,11.87,48.45,11.25,156.63.13,208.74-.12.71-.28,1.39-.45,2.05-.02.09-.04.18-.06.27v-.04c-3.76,13.94-17.92,19.37-34.83,19.37h-66.13c-19.78,0-35.82-7.43-35.82-27.21v-197c0-19.78,16.04-27.21,35.82-27.21Z"/>
          <path class="cls-11" d="M309.17,498.63h-66.13c-16.46,0-30.31,5.15-34.51,18.27v-.04c-.02.06-.03.12-.05.18-.26.84-.48,1.7-.66,2.61-11.87,48.45-11.25,156.63-.13,208.74.12.71.28,1.39.45,2.05.02.09.04.18.06.27v-.04c3.76,13.94,17.92,19.37,34.83,19.37h66.13c19.78,0,35.82-7.43,35.82-27.21v-197c0-19.78-16.04-27.21-35.82-27.21Z"/>
          <path class="cls-2" d="M1090.72,569.28l-42.51,127.52c-1.03,3.1-3.94,5.2-7.21,5.2h-63.41c-2.76,0-5.15,1.93-5.71,4.62l-5.12,24.21h-21.5c-4.72,0-8.25-4.33-7.3-8.95h-143.97l-.79,3.26c-.81,3.34-3.8,5.69-7.24,5.69h-261.17c-3.44,0-6.43-2.35-7.24-5.69l-.79-3.26h-143.97c.95,4.62-2.58,8.95-7.3,8.95h-21.5l-5.12-24.21c-.57-2.69-2.95-4.62-5.71-4.62h-63.41c-3.27,0-6.18-2.1-7.21-5.19l-42.51-127.52h870.69Z"/>
          <g>
            <path class="cls-11" d="M366.59,692.01l6.09,28.77-6.09-28.77Z"/>
            <path class="cls-11" d="M365.72,692.25c1.78,8.39,3.55,16.79,5.33,25.18.25,1.2.51,2.39.76,3.59.24,1.13,1.98.65,1.74-.48-1.78-8.39-3.55-16.79-5.33-25.18-.25-1.2-.51-2.39-.76-3.59-.24-1.13-1.98-.65-1.74.48h0Z"/>
          </g>
          <g>
            <path class="cls-11" d="M344.99,589.98l11.27,53.23-11.27-53.23Z"/>
            <path class="cls-11" d="M344.12,590.22c1.27,6.02,2.55,12.04,3.82,18.06,2.01,9.52,4.03,19.03,6.04,28.55.47,2.21.93,4.41,1.4,6.62.24,1.13,1.98.65,1.74-.48-1.27-6.02-2.55-12.04-3.82-18.06-2.01-9.52-4.03-19.03-6.04-28.55-.47-2.21-.93-4.41-1.4-6.62-.24-1.13-1.98-.65-1.74.48h0Z"/>
          </g>
          <g>
            <path class="cls-11" d="M504.07,671.8l12.39,48.86-12.39-48.86Z"/>
            <path class="cls-11" d="M503.2,672.04c1.4,5.5,2.79,11.01,4.19,16.51,2.22,8.77,4.45,17.54,6.67,26.31l1.53,6.03c.28,1.12,2.02.65,1.74-.48-1.4-5.5-2.79-11.01-4.19-16.51-2.22-8.77-4.45-17.54-6.67-26.31l-1.53-6.03c-.28-1.12-2.02-.65-1.74.48h0Z"/>
          </g>
          <g>
            <path class="cls-11" d="M528.81,585.91l12.04,85.2-12.04-85.2Z"/>
            <path class="cls-11" d="M527.94,586.15c.4,2.82.8,5.64,1.2,8.47.96,6.78,1.92,13.56,2.87,20.33,1.16,8.2,2.32,16.4,3.48,24.61l3.01,21.28c.33,2.34.66,4.68.99,7.02.15,1.09.2,2.28.47,3.34.01.05.01.1.02.15.16,1.14,1.9.66,1.74-.48-.4-2.82-.8-5.64-1.2-8.47-.96-6.78-1.92-13.56-2.87-20.33-1.16-8.2-2.32-16.4-3.48-24.61l-3.01-21.28c-.33-2.34-.66-4.68-.99-7.02-.15-1.09-.2-2.28-.47-3.34-.01-.05-.01-.1-.02-.15-.16-1.14-1.9-.66-1.74.48h0Z"/>
          </g>
          <g>
            <path class="cls-11" d="M541.01,585.91l12.04,85.2-12.04-85.2Z"/>
            <path class="cls-11" d="M540.14,586.15c.4,2.82.8,5.64,1.2,8.47.96,6.78,1.92,13.56,2.87,20.33,1.16,8.2,2.32,16.4,3.48,24.61,1,7.09,2.01,14.19,3.01,21.28.33,2.34.66,4.68.99,7.02.15,1.09.2,2.28.47,3.34.01.05.01.1.02.15.16,1.14,1.9.66,1.74-.48l-1.2-8.47c-.96-6.78-1.92-13.56-2.87-20.33-1.16-8.2-2.32-16.4-3.48-24.61l-3.01-21.28c-.33-2.34-.66-4.68-.99-7.02-.15-1.09-.2-2.28-.47-3.34-.01-.05-.01-.1-.02-.15-.16-1.14-1.9-.66-1.74.48h0Z"/>
          </g>
          <path class="cls-11" d="M477.25,664.42h-48.88c-2.33,0-4.88.07-6.9,1.39-2.4,1.56-2.9,4.33-2.51,7,.33,2.25.92,4.48,1.38,6.7.44,2.14.87,4.29,1.31,6.43.3,1.49.78,3.03.93,4.55.14,1.36-.38,2.73-1.16,3.83-2.81,3.96-7.85,3.31-12.09,3.31h-41.37c-1.16,0-1.16,1.8,0,1.8h44.08c1.84,0,3.71.1,5.51-.39,2.96-.82,5.55-3.02,6.51-5.98.42-1.29.39-2.55.11-3.87-.36-1.69-.71-3.38-1.05-5.08-.45-2.23-.91-4.46-1.37-6.69-.42-2.03-1.1-4.14-1.12-6.22-.03-3.08,2.12-4.54,4.98-4.89,1.56-.19,3.18-.1,4.75-.1h21.42c8.34,0,16.7.13,25.04,0,.14,0,.29,0,.43,0,1.16,0,1.16-1.8,0-1.8h0Z"/>
          <path class="cls-11" d="M468.98,647.81h-43.67c-1.16,0-1.16,1.8,0,1.8h43.67c1.16,0,1.16-1.8,0-1.8h0Z"/>
          <path class="cls-11" d="M350.36,613h35.84c2.68,0,5.39-.1,8.07.04,3.04.15,6.12.85,8.7,2.51,2.7,1.75,4.46,4.5,5.35,7.55.72,2.48,1.11,5.06,1.76,7.56.71,2.73,1.56,5.41,2.67,8,2.28,5.32,6.19,10.86,12.56,10.94,1.16.01,1.16-1.79,0-1.8-5.64-.07-8.97-5.29-10.96-9.93-1.13-2.63-1.96-5.39-2.66-8.16-.64-2.5-.99-5.1-1.78-7.56-1.96-6.14-7.01-9.82-13.29-10.7-2.73-.38-5.51-.26-8.27-.26h-38.01c-1.16,0-1.16,1.8,0,1.8h0Z"/>
          <path class="cls-11" d="M328.08,630.68c8.88-1.44,17.13-5.93,23.17-12.59.78-.86-.49-2.13-1.27-1.27-5.86,6.45-13.77,10.73-22.38,12.12-1.14.18-.66,1.92.48,1.74h0Z"/>
          <path class="cls-11" d="M371.15,713.16c-9.29-6.71-20.79-10.11-32.24-9.55-1.15.06-1.16,1.86,0,1.8,11.17-.55,22.27,2.76,31.33,9.3.94.68,1.84-.88.91-1.55h0Z"/>
          <path class="cls-11" d="M520.1,672.25c7.4,9.88,18.37,17.03,30.48,19.56,11.81,2.47,24.48.25,34.84-5.91,5.8-3.45,10.78-8.11,14.67-13.62.67-.95-.89-1.85-1.55-.91-6.63,9.4-16.67,15.95-27.87,18.47-11.64,2.62-23.75.64-34.07-5.31-5.8-3.34-10.93-7.83-14.95-13.19-.69-.92-2.25-.02-1.55.91h0Z"/>
          <g>
            <path class="cls-11" d="M944.17,692.01l-5.99,28.28,5.99-28.28Z"/>
            <path class="cls-11" d="M943.3,691.77c-1.75,8.26-3.5,16.51-5.24,24.77-.25,1.17-.5,2.34-.74,3.51-.24,1.13,1.5,1.61,1.74.48,1.75-8.26,3.5-16.51,5.24-24.77.25-1.17.5-2.34.74-3.51.24-1.13-1.5-1.61-1.74-.48h0Z"/>
          </g>
          <g>
            <path class="cls-11" d="M965.77,589.98l-11.27,53.23,11.27-53.23Z"/>
            <path class="cls-11" d="M964.91,589.74c-1.27,6.02-2.55,12.04-3.82,18.06-2.01,9.52-4.03,19.03-6.04,28.55-.47,2.21-.93,4.41-1.4,6.62-.24,1.13,1.5,1.61,1.74.48,1.27-6.02,2.55-12.04,3.82-18.06,2.01-9.52,4.03-19.03,6.04-28.55.47-2.21.93-4.41,1.4-6.62.24-1.13-1.5-1.61-1.74-.48h0Z"/>
          </g>
          <g>
            <path class="cls-11" d="M806.69,671.8l-12.39,48.86,12.39-48.86Z"/>
            <path class="cls-11" d="M805.82,671.56c-1.4,5.5-2.79,11.01-4.19,16.51-2.22,8.77-4.45,17.54-6.67,26.31-.51,2.01-1.02,4.02-1.53,6.03-.28,1.12,1.45,1.6,1.74.48,1.4-5.5,2.79-11.01,4.19-16.51,2.22-8.77,4.45-17.54,6.67-26.31.51-2.01,1.02-4.02,1.53-6.03.28-1.12-1.45-1.6-1.74-.48h0Z"/>
          </g>
          <g>
            <path class="cls-11" d="M781.95,585.91l-12.04,85.2,12.04-85.2Z"/>
            <path class="cls-11" d="M781.08,585.68c-.4,2.82-.8,5.64-1.2,8.47-.96,6.78-1.92,13.56-2.87,20.33-1.16,8.2-2.32,16.4-3.48,24.61-1,7.09-2.01,14.19-3.01,21.28-.49,3.45-1.09,6.9-1.47,10.36,0,.05-.01.1-.02.15-.16,1.13,1.57,1.62,1.74.48l1.2-8.47c.96-6.78,1.92-13.56,2.87-20.33,1.16-8.2,2.32-16.4,3.48-24.61l3.01-21.28c.49-3.45,1.09-6.9,1.47-10.36,0-.05.01-.1.02-.15.16-1.13-1.57-1.62-1.74-.48h0Z"/>
          </g>
          <g>
            <path class="cls-11" d="M769.75,585.91l-12.04,85.2,12.04-85.2Z"/>
            <path class="cls-11" d="M768.88,585.68l-1.2,8.47c-.96,6.78-1.92,13.56-2.87,20.33-1.16,8.2-2.32,16.4-3.48,24.61-1,7.09-2.01,14.19-3.01,21.28-.49,3.45-1.09,6.9-1.47,10.36,0,.05-.01.1-.02.15-.16,1.13,1.57,1.62,1.74.48l1.2-8.47c.96-6.78,1.92-13.56,2.87-20.33,1.16-8.2,2.32-16.4,3.48-24.61,1-7.09,2.01-14.19,3.01-21.28.49-3.45,1.09-6.9,1.47-10.36,0-.05.01-.1.02-.15.16-1.13-1.57-1.62-1.74-.48h0Z"/>
          </g>
          <path class="cls-11" d="M842,589.37c6.82,1.91,12.05,7.65,12.78,14.79.43,4.24-1.48,8.05-2.94,11.92-4.29,11.35-8.58,22.7-12.81,34.07-1.67,4.48-2.93,9.84-5.63,13.81-3.12,4.59-8.24,6.92-13.69,6.94-4.04.01-8.08,0-12.12,0h-312.36c-1.43,0-2.85,0-4.28,0-5.62-.02-10.84-2.6-13.89-7.41-1.35-2.12-2.08-4.55-2.94-6.89-.86-2.34-1.73-4.68-2.6-7.02-2.2-5.92-4.43-11.83-6.65-17.74-2.02-5.36-4.04-10.72-6.07-16.07-1.56-4.14-3.46-8.05-2.68-12.6,1.15-6.73,6.12-11.96,12.64-13.79,1.11-.31.64-2.05-.48-1.74-6.4,1.79-11.47,6.54-13.4,12.95-.77,2.56-1.01,5.32-.52,7.96.33,1.74,1.09,3.41,1.71,5.06,4.26,11.27,8.52,22.54,12.73,33.82,1.68,4.51,3.25,9.07,5,13.55,2.47,6.34,8.08,10.89,14.9,11.62,3.78.4,7.73.1,11.53.1h317.32c1.65,0,3.32.06,4.97-.16,7.02-.92,12.35-5.8,14.73-12.34,3.88-10.67,7.9-21.29,11.9-31.91,1.88-4.98,3.76-9.97,5.64-14.95.66-1.76,1.43-3.49,1.71-5.36.41-2.75.04-5.62-.88-8.24-2.13-6.02-7-10.4-13.12-12.11-1.12-.31-1.59,1.42-.48,1.74h0Z"/>
          <path class="cls-11" d="M833.51,666.22h48.88c2.2,0,4.93-.03,6.6,1.65.92.92,1.17,2.21,1.14,3.47-.05,2.11-.73,4.24-1.16,6.3-.81,3.89-1.57,7.79-2.4,11.67-.6,2.8.44,5.54,2.54,7.47,3.43,3.15,8.02,2.66,12.31,2.66h41.37c1.16,0,1.16-1.8,0-1.8h-44.08c-1.88,0-3.8.13-5.6-.51-2.69-.95-5.31-3.67-4.93-6.73.19-1.54.64-3.09.96-4.62.44-2.16.88-4.31,1.32-6.47.45-2.21,1.05-4.42,1.36-6.65.19-1.39.18-2.85-.33-4.17-1.03-2.64-3.7-3.68-6.33-3.97-3.42-.38-7.01-.1-10.45-.1h-15.73c-8.34,0-16.7-.13-25.04,0-.14,0-.29,0-.43,0-1.16,0-1.16,1.8,0,1.8h0Z"/>
          <path class="cls-11" d="M841.77,649.61h43.67c1.16,0,1.16-1.8,0-1.8h-43.67c-1.16,0-1.16,1.8,0,1.8h0Z"/>
          <path class="cls-11" d="M960.4,611.2h-35.84c-2.68,0-5.39-.1-8.07.04-6.07.31-11.95,2.83-14.7,8.55-1.23,2.56-1.64,5.36-2.28,8.11-.62,2.67-1.35,5.32-2.29,7.9-1.92,5.26-5.34,11.94-11.78,12.02-1.16.01-1.16,1.81,0,1.8,5.54-.07,9.31-4.34,11.64-8.95,2.43-4.81,3.73-10.11,4.84-15.36.67-3.18,1.77-6.17,4.19-8.44,2.17-2.04,5.03-3.12,7.94-3.58,2.74-.44,5.57-.28,8.34-.28h38.01c1.16,0,1.16-1.8,0-1.8h0Z"/>
          <path class="cls-11" d="M983.16,628.94c-8.6-1.39-16.52-5.67-22.38-12.12-.78-.86-2.05.42-1.27,1.27,6.04,6.66,14.29,11.15,23.17,12.59,1.13.18,1.62-1.55.48-1.74h0Z"/>
          <path class="cls-11" d="M940.52,714.71c9.06-6.55,20.16-9.85,31.33-9.3,1.16.06,1.15-1.74,0-1.8-11.45-.56-22.95,2.84-32.24,9.55-.93.67-.03,2.23.91,1.55h0Z"/>
          <path class="cls-11" d="M769.04,671.59c-2.04,5.49-3.33,11.23-7.42,15.59-2.59,2.77-5.92,4.74-9.4,6.18-5.6,2.32-11.66,3.52-17.63,4.37-9.55,1.36-19.25,1.75-28.88,1.86-10.79.12-21.62-.08-32.36-1.11-7.18-.69-14.41-1.72-21.33-3.82-4.26-1.29-8.56-3.01-12.08-5.8-4.82-3.82-6.69-9.11-6.91-15-.03-.68-.03-1.36-.03-2.04,0-1.16-1.8-1.16-1.8,0,0,6.08,1.13,12.02,5.51,16.54,2.9,2.99,6.67,5.01,10.51,6.54,6.1,2.42,12.64,3.68,19.12,4.57,9.92,1.36,19.95,1.81,29.96,1.93,10.87.12,21.78-.07,32.6-1.17,6.97-.71,14.01-1.75,20.68-3.97,4.15-1.38,8.21-3.26,11.56-6.11,4.93-4.2,6.89-10.06,8.91-15.98.24-.7.48-1.4.74-2.09.4-1.09-1.34-1.56-1.74-.48h0Z"/>
          <path class="cls-11" d="M647.18,589.98v81.82c0,1.16,1.8,1.16,1.8,0v-81.82c0-1.16-1.8-1.16-1.8,0h0Z"/>
          <path class="cls-11" d="M661.78,589.98v81.82c0,1.16,1.8,1.16,1.8,0v-81.82c0-1.16-1.8-1.16-1.8,0h0Z"/>
          <path class="cls-11" d="M748.08,729.25c-.57-4.55-2.42-9.22-5.13-12.9-2.36-3.2-5.5-5.71-9.28-7-2.97-1.02-6.03-1.06-9.12-1.06h-135.37c-1.78,0-3.57,0-5.35,0-4.45.02-8.74,1.3-12.25,4.09-4.73,3.76-7.55,9.73-8.69,15.57-.08.43-.16.87-.21,1.3-.14,1.15,1.66,1.14,1.8,0-.03.23-.02.12.02-.11.05-.29.1-.59.16-.88.2-1.01.46-2.02.77-3,.92-2.97,2.27-5.86,4.18-8.32,2.4-3.1,5.69-5.37,9.51-6.31,2.57-.63,5.2-.54,7.82-.54h139.4c3.94,0,7.69.81,10.95,3.11,4.89,3.44,7.67,9.38,8.81,15.11.06.28.1.56.15.84.04.23.05.35.02.11.14,1.13,1.94,1.15,1.8,0h0Z"/>
        </g>
        <g>
          <path class="cls-11" d="M1223.86,684.41h15.71v111.88h-15.71c-4.66,0-8.44-3.78-8.44-8.44v-95c0-4.66,3.78-8.44,8.44-8.44Z" transform="translate(2454.99 1480.71) rotate(180)"/>
          <path class="cls-9" d="M1145.18,197.58h70.24v1068.84c0,6.35-5.15,11.5-11.5,11.5h-6.9c-28.61,0-51.83-23.23-51.83-51.83V197.58h0Z" transform="translate(2360.6 1475.51) rotate(180)"/>
          <path class="cls-11" d="M1167.57,199.16v1077.17c0,1.16,1.8,1.16,1.8,0V199.16c0-1.16-1.8-1.16-1.8,0h0Z"/>
          <path class="cls-9" d="M947.6,692.01h267.73c6.58,0,11.92-5.34,11.92-11.92v-24.95c0-6.58-5.34-11.92-11.92-11.92h-258.57c-1.31,0-2.45.92-2.72,2.2l-9.16,43.24c-.37,1.73.95,3.35,2.72,3.35Z"/>
          <path class="cls-11" d="M1227.04,665.3c-.11-7.09-5.8-12.75-12.88-12.82-.85,0-1.69,0-2.54,0h-236.5c-3.51,0-7.02-.06-10.52,0-.15,0-.3,0-.45,0-1.16,0-1.16,1.8,0,1.8h244.13c3.41,0,7.44-.45,10.6,1.03,3.89,1.82,6.3,5.74,6.37,10,.02,1.16,1.82,1.16,1.8,0h0Z"/>
          <g>
            <path class="cls-11" d="M964.15,653.38l-7.89,37.27,7.89-37.27Z"/>
            <path class="cls-11" d="M963.28,653.14c-2.3,10.88-4.61,21.76-6.91,32.64-.33,1.55-.65,3.09-.98,4.64-.24,1.13,1.5,1.61,1.74.48,2.3-10.88,4.61-21.76,6.91-32.64.33-1.55.65-3.09.98-4.64.24-1.13-1.5-1.61-1.74-.48h0Z"/>
          </g>
          <path class="cls-11" d="M1214.31,642.31h-68.57c-1.16,0-1.16,1.8,0,1.8h68.57c1.16,0,1.16-1.8,0-1.8h0Z"/>
          <path class="cls-11" d="M1214.31,691.11h-68.57c-1.16,0-1.16,1.8,0,1.8h68.57c1.16,0,1.16-1.8,0-1.8h0Z"/>
          <path class="cls-11" d="M1223.86,1083.85h70.29v194.07h-57.4c-11.77,0-21.33-9.56-21.33-21.33v-164.3c0-4.66,3.78-8.44,8.44-8.44Z" transform="translate(2509.57 2361.77) rotate(180)"/>
          <path class="cls-5" d="M1292.85,1133.64h-47.93c-1.16,0-1.16,1.8,0,1.8h47.93c1.16,0,1.16-1.8,0-1.8h0Z"/>
          <path class="cls-5" d="M1292.85,1148.92h-47.93c-1.16,0-1.16,1.8,0,1.8h47.93c1.16,0,1.16-1.8,0-1.8h0Z"/>
          <rect class="cls-9" x="1185.78" y="1128.95" width="59.27" height="26.62" rx="4.14" ry="4.14" transform="translate(2430.84 2284.51) rotate(180)"/>
          <path class="cls-11" d="M1216.32,1154.73v-24.77c0-1.16-1.8-1.16-1.8,0v24.77c0,1.16,1.8,1.16,1.8,0h0Z"/>
          <path class="cls-11" d="M964.86,652.6c-2.67-2.67-5.35-5.35-8.02-8.02-.82-.82-2.09.45-1.27,1.27,2.67,2.67,5.35,5.35,8.02,8.02.82.82,2.09-.45,1.27-1.27h0Z"/>
        </g>
        <g>
          <path class="cls-11" d="M79.63,684.41h15.71v111.88h-15.71c-4.66,0-8.44-3.78-8.44-8.44v-95c0-4.66,3.78-8.44,8.44-8.44Z"/>
          <path class="cls-9" d="M147.17,197.58h6.9c6.35,0,11.5,5.15,11.5,11.5v1068.84h-70.24V249.42c0-28.61,23.23-51.83,51.83-51.83Z"/>
          <path class="cls-11" d="M141.39,199.16v1077.17c0,1.16,1.8,1.16,1.8,0V199.16c0-1.16-1.8-1.16-1.8,0h0Z"/>
          <path class="cls-11" d="M37.94,1083.85h57.4v194.07H25.05c-4.66,0-8.44-3.78-8.44-8.44v-164.3c0-11.77,9.56-21.33,21.33-21.33Z"/>
          <path class="cls-5" d="M17.91,1135.44h47.93c1.16,0,1.16-1.8,0-1.8H17.91c-1.16,0-1.16,1.8,0,1.8h0Z"/>
          <path class="cls-5" d="M17.91,1150.72h47.93c1.16,0,1.16-1.8,0-1.8H17.91c-1.16,0-1.16,1.8,0,1.8h0Z"/>
          <rect class="cls-9" x="65.71" y="1128.95" width="59.27" height="26.62" rx="4.14" ry="4.14"/>
          <path class="cls-11" d="M96.24,1154.73v-24.77c0-1.16-1.8-1.16-1.8,0v24.77c0,1.16,1.8,1.16,1.8,0h0Z"/>
          <path class="cls-9" d="M363.99,692.01H95.43c-6.58,0-11.92-5.34-11.92-11.92v-24.95c0-6.58,5.34-11.92,11.92-11.92h259.11c1,0,1.86.7,2.06,1.67l9.44,44.58c.28,1.31-.72,2.54-2.06,2.54Z"/>
          <path class="cls-11" d="M85.52,665.3c.09-6.2,5.08-10.99,11.24-11.02,1.02,0,2.05,0,3.07,0h235.98c3.45,0,6.91.06,10.36,0,.15,0,.29,0,.44,0,1.16,0,1.16-1.8,0-1.8H101.6c-4.49,0-8.88-.34-12.75,2.57-3.23,2.44-5.07,6.22-5.13,10.25-.02,1.16,1.78,1.16,1.8,0h0Z"/>
          <g>
            <path class="cls-11" d="M346.61,653.38l7.89,37.27-7.89-37.27Z"/>
            <path class="cls-11" d="M345.75,653.62c2.3,10.88,4.61,21.76,6.91,32.64.33,1.55.65,3.09.98,4.64.24,1.13,1.98.65,1.74-.48-2.3-10.88-4.61-21.76-6.91-32.64-.33-1.55-.65-3.09-.98-4.64-.24-1.13-1.98-.65-1.74.48h0Z"/>
          </g>
          <path class="cls-11" d="M96.45,644.11h68.57c1.16,0,1.16-1.8,0-1.8h-68.57c-1.16,0-1.16,1.8,0,1.8h0Z"/>
          <path class="cls-11" d="M96.45,692.91h68.57c1.16,0,1.16-1.8,0-1.8h-68.57c-1.16,0-1.16,1.8,0,1.8h0Z"/>
          <path class="cls-11" d="M347.17,653.88l8.02-8.02c.82-.82-.45-2.09-1.27-1.27l-8.02,8.02c-.82.82.45,2.09,1.27,1.27h0Z"/>
        </g>
        <g>
          <g>
            <path class="cls-11" d="M289.78,391.1h-70.98c-17.67,0-32.54,5.53-37.04,19.61v-.04c-.02.06-.03.13-.05.19-.28.9-.52,1.83-.71,2.8-12.74,52-12.07,168.12-.14,224.05.13.76.3,1.49.49,2.21.02.1.04.2.06.29v-.05c4.03,14.96,19.24,20.79,37.39,20.79h70.98c21.23,0,38.44-7.97,38.44-29.2v-211.45c0-21.23-17.21-29.2-38.44-29.2Z"/>
            <path class="cls-5" d="M307.44,588.5c-.27,15.9,1.55,31.83,5.42,47.26,1.11,4.42,2.4,8.8,3.84,13.13.36,1.09,2.1.62,1.74-.48-5-15.01-8.03-30.65-8.93-46.45-.26-4.48-.34-8.97-.26-13.46.02-1.16-1.78-1.16-1.8,0h0Z"/>
          </g>
          <g>
            <path class="cls-11" d="M1020.98,391.1h70.98c17.67,0,32.54,5.53,37.04,19.61v-.04c.02.06.03.13.05.19.28.9.52,1.83.71,2.8,12.74,52,12.07,168.12.14,224.05-.13.76-.3,1.49-.49,2.21-.02.1-.04.2-.06.29v-.05c-4.03,14.96-19.24,20.79-37.39,20.79h-70.98c-21.23,0-38.44-7.97-38.44-29.2v-211.45c0-21.23,17.21-29.2,38.44-29.2Z"/>
            <path class="cls-5" d="M1001.52,588.5c.27,15.82-1.54,31.64-5.41,46.99-1.1,4.35-2.37,8.66-3.79,12.92-.37,1.1,1.37,1.57,1.74.48,5.03-15.09,8.06-30.83,8.98-46.71.27-4.55.35-9.12.27-13.68-.02-1.16-1.82-1.16-1.8,0h0Z"/>
          </g>
          <path class="cls-7" d="M1120.06,369.17c-.27-87.85-23.59-111.51-65.07-177.68-48.47-77.33-102.77-131.85-136.28-159.94-16.91-14.18-42.08-31.54-76.81-31.54h-373.02c-34.73,0-59.9,17.37-76.81,31.54-33.52,28.09-87.81,82.61-136.28,159.94-41.48,66.17-64.8,89.83-65.07,177.68-.25,80.59,3.99,125.92,18.49,172.26,13.8,44.11,65.06,48.55,97.59,48.55h697.18c32.53,0,83.79-4.44,97.59-48.55,14.5-46.35,18.74-91.68,18.49-172.26Z"/>
          <path class="cls-11" d="M483.48,269.17c4.54,20.93,10.76,41.51,18.86,61.35,2.19,5.37,4.52,10.69,6.99,15.94.49,1.05,2.04.13,1.55-.91-8.91-18.96-15.97-38.77-21.36-59.01-1.58-5.91-3.01-11.87-4.3-17.85-.25-1.13-1.98-.65-1.74.48h0Z"/>
          <path class="cls-11" d="M825.55,268.69c-4.5,20.74-10.64,41.13-18.63,60.79-2.2,5.42-4.55,10.78-7.04,16.07-.49,1.04,1.06,1.96,1.55.91,8.95-19.04,16.06-38.92,21.49-59.24,1.6-5.98,3.05-12,4.36-18.05.24-1.13-1.49-1.61-1.74-.48h0Z"/>
          <rect class="cls-1" x="510.1" y="273" width="290.55" height="82.59" rx="9.97" ry="9.97"/>
          <path class="cls-11" d="M1011.85,185.05c8.96,40.7,15.73,81.89,19.6,123.39,1.79,19.23,3.13,38.57,3.41,57.89.23,15.3.17,36.29-14.99,45-9.43,5.41-20.71,4.74-31.24,4.74H378.9c-21.51,0-43.01.04-64.52,0-8.26-.01-17.02-.73-24.22-5.18-15.1-9.31-14.56-31.18-14.22-46.68.88-39.96,5.13-79.92,11.51-119.36,3.24-20.04,7.1-39.98,11.46-59.81.25-1.13-1.49-1.61-1.74-.48-8.89,40.4-15.62,81.28-19.53,122.47-1.87,19.69-3.25,39.5-3.54,59.29-.21,14.37-.23,33.2,11.62,43.52,9.38,8.17,22.23,8.02,33.99,8.02h616.98c20.13,0,40.26.1,60.38,0,10.26-.05,21.54-1.56,29.15-9.14,11.15-11.1,10.7-30.01,10.38-44.53-.87-39.64-5.07-79.27-11.34-118.4-3.29-20.53-7.22-40.95-11.69-61.25-.25-1.13-1.98-.65-1.74.48h0Z"/>
          <path class="cls-11" d="M462.22,14.72c.9-4.33,1.79-8.66,2.69-12.99.23-1.13-1.5-1.61-1.74-.48-.9,4.33-1.79,8.66-2.69,12.99-.23,1.13,1.5,1.61,1.74.48h0Z"/>
          <path class="cls-4" d="M311.59,327.52v34.76c0,5.54-4.07,13.86-13.86,13.86h-107.04c0-2.3,0-4.61.01-6.96.24-82.05,20.62-108.1,57.11-165.12h3.89c7.02,0,27.72,5.18,34.74,26.98,7.03,21.81,25.14,79.48,25.14,96.48Z"/>
          <path class="cls-1" d="M311.59,329.56v32.72c0,5.54-4.07,13.86-13.86,13.86h-107.04c0-2.3,0-4.61.01-6.96.04-14.87.75-27.9,2.1-39.61h118.79Z"/>
          <path class="cls-11" d="M439.69,225.63c3.95,12.45,12.39,23.2,22.57,31.22,10.82,8.51,23.88,14.24,37.61,15.74,3.79.42,7.58.38,11.38.38h134.65c3.02,0,6.05.05,9.07,0,.13,0,.27,0,.4,0,1.16,0,1.16-1.8,0-1.8h-140.6c-2.62,0-5.24,0-7.86,0-12-.01-23.8-3.47-34.18-9.41-11.57-6.62-21.68-16.34-27.84-28.24-1.39-2.69-2.56-5.48-3.47-8.36-.35-1.1-2.09-.63-1.74.48h0Z"/>
          <path class="cls-11" d="M201.78,517.35c38.79-31.43,85.33-56.1,135.47-61.97,14.09-1.65,28.27-1.3,42.42-1.3h229.03c15.33,0,30.68.29,46.01,0,.22,0,.45,0,.67,0,1.16,0,1.16-1.8,0-1.8h-268.77c-11.87,0-23.82-.35-35.68.19-49.58,2.24-96.64,23.71-136.24,52.67-4.82,3.53-9.55,7.18-14.18,10.94-.9.73.38,2,1.27,1.27h0Z"/>
          <path class="cls-11" d="M191.59,376.14c0-15.22.71-30.43,1.76-45.61.08-1.16-1.72-1.15-1.8,0-1.05,15.18-1.75,30.39-1.76,45.61,0,1.16,1.8,1.16,1.8,0h0Z"/>
          <path class="cls-11" d="M284.23,228.26c-10.34-1.67-21.02.92-29.51,7.03-8.45,6.07-14.49,15.33-16.03,25.67-1.63,10.97,1.59,22.81,8.64,31.39,6.22,7.56,15.41,11.97,25,13.33,9.98,1.42,20.33-.06,29.68-3.75,1.17-.46,2.33-.96,3.47-1.49,1.05-.49.14-2.04-.91-1.55-8.7,4.02-18.43,6.02-28.01,5.43-9.21-.57-18.4-3.77-25.15-10.22-7.6-7.26-11.66-18.19-11.34-28.64.31-10.1,5.05-19.59,12.58-26.25,7.44-6.58,17.38-10.18,27.32-9.63,1.26.07,2.52.21,3.77.41,1.13.18,1.62-1.55.48-1.74h0Z"/>
          <path class="cls-11" d="M253.89,330.4c-6.37,3.16-11.23,9.03-13.3,15.81-2.1,6.86-.99,14.36,2.7,20.48,2.09,3.48,4.97,6.43,8.41,8.59.98.62,1.89-.94.91-1.55-5.67-3.57-9.61-9.5-10.88-16.06-1.27-6.54.53-13.33,4.51-18.62,2.26-3.01,5.2-5.43,8.57-7.1,1.04-.51.13-2.07-.91-1.55h0Z"/>
          <path class="cls-11" d="M850.28,14.24c-.9-4.33-1.8-8.66-2.69-12.99-.23-1.13-1.97-.65-1.74.48.9,4.33,1.79,8.66,2.69,12.99.23,1.13,1.97.65,1.74-.48h0Z"/>
          <path class="cls-4" d="M999.17,327.52v34.76c0,5.54,4.07,13.86,13.86,13.86h107.04c0-2.3,0-4.61-.01-6.96-.24-82.05-20.62-108.1-57.11-165.12h-3.89c-7.02,0-27.72,5.18-34.74,26.98-7.03,21.81-25.14,79.48-25.14,96.48Z"/>
          <path class="cls-1" d="M999.17,329.56v32.72c0,5.54,4.07,13.86,13.86,13.86h107.04c0-2.3,0-4.61-.01-6.96-.04-14.87-.75-27.9-2.1-39.61h-118.79Z"/>
          <path class="cls-11" d="M869.33,225.15c-3.97,12.5-12.64,23.24-22.99,31.1-11.04,8.39-24.48,13.91-38.38,14.79-3.01.19-6.05.13-9.06.13h-134.16c-2.99,0-5.98-.05-8.97,0-.13,0-.26,0-.39,0-1.16,0-1.16,1.8,0,1.8h141.29c2.42,0,4.84,0,7.27,0,12.84-.02,25.49-3.92,36.46-10.52,11.32-6.81,21.22-16.6,27.23-28.44,1.37-2.7,2.53-5.5,3.44-8.38.35-1.11-1.39-1.58-1.74-.48h0Z"/>
          <path class="cls-11" d="M1110.26,516.07c-38.36-31.09-84.04-55.49-133.48-62.09-14.71-1.96-29.48-1.71-44.28-1.71h-230.05c-15.46,0-30.94-.29-46.4,0-.22,0-.45,0-.67,0-1.16,0-1.16,1.8,0,1.8h267.25c11.12,0,22.27-.22,33.39.06,50.11,1.24,97.82,22.61,137.9,51.65,5.13,3.72,10.15,7.58,15.07,11.57.89.72,2.17-.54,1.27-1.27h0Z"/>
          <path class="cls-11" d="M885.19,549.32h-459.61c-29.57,0-63.34,11.09-75.9,40.66h611.42c-12.57-29.57-46.33-40.66-75.9-40.66Z"/>
          <path class="cls-11" d="M832.97,556.7c8.26-14.2,19.49-28.68,35.36-34.67,17.09-6.45,37.86-2.07,49.12,12.69,5.55,7.27,8.91,16.02,11.04,24.92l-95.51-2.93Z"/>
          <polygon class="cls-2" points="910.49 559.63 899.44 592.2 849.21 589.98 859.73 556.77 910.49 559.63"/>
          <path class="cls-11" d="M323.89,416.98h657.91c36.47,0,44.73-6.28,50.64-20.33H278.33c5.27,11.09,9.08,20.33,45.56,20.33Z"/>
          <path class="cls-11" d="M1120.97,376.14c0-15.22-.71-30.43-1.76-45.61-.08-1.15-1.88-1.16-1.8,0,1.05,15.18,1.75,30.39,1.76,45.61,0,1.16,1.8,1.16,1.8,0h0Z"/>
          <path class="cls-11" d="M1027.01,230c9.86-1.6,20.04,1.04,28.13,6.85,8.12,5.83,13.8,14.82,15.22,24.75,1.49,10.46-1.76,21.98-8.65,30.02-6.06,7.08-14.78,11.11-23.91,12.36-9.52,1.3-19.39-.19-28.3-3.67-1.12-.43-2.22-.91-3.3-1.41-1.04-.48-1.96,1.07-.91,1.55,9.15,4.23,19.39,6.37,29.48,5.64,9.64-.7,19.17-4.15,26.16-10.99,7.84-7.68,12.03-19.18,11.55-30.09-.46-10.53-5.46-20.47-13.42-27.35-7.83-6.77-18.19-10.51-28.57-9.85-1.32.08-2.64.24-3.95.46-1.14.18-.66,1.92.48,1.74h0Z"/>
          <path class="cls-11" d="M1055.96,331.96c5.92,2.93,10.45,8.28,12.43,14.58,2.01,6.41,1.03,13.36-2.38,19.11-1.94,3.28-4.62,6.06-7.85,8.09-.98.62-.08,2.17.91,1.55,6.09-3.83,10.42-10.23,11.74-17.3,1.31-7.02-.53-14.29-4.82-19.98-2.42-3.2-5.51-5.83-9.11-7.61-1.03-.51-1.95,1.04-.91,1.55h0Z"/>
          <path class="cls-11" d="M1011.73,164.87c-43.73-68.91-101.48-123.53-111.08-131.79-17.19-14.79-37.95-21.75-53.23-21.75h-384.08c-15.28,0-36.04,6.96-53.23,21.75-9.6,8.26-67.35,62.87-111.08,131.79-9.61,15.15-6.77,27.78,2.22,36.23,18.48,17.37,68.02,34.01,126.79,34.01h454.68c58.78,0,108.31-16.63,126.79-34.01,8.98-8.44,11.83-21.08,2.21-36.23Z"/>
          <path class="cls-5" d="M1010.51,196.14c-40.03-5.31-80.15-9.93-120.45-12.62-43.49-2.91-87.09-3.75-130.67-4.15-62.69-.57-125.39-.53-188.08-.15-45.58.27-91.2.83-136.71,3.43-39.33,2.25-78.5,6.31-117.57,11.3-5.59.71-11.18,1.44-16.77,2.18-1.13.15-1.15,1.95,0,1.8,40.03-5.31,80.15-9.93,120.45-12.62,43.49-2.91,87.09-3.75,130.67-4.15,62.69-.57,125.39-.53,188.08-.15,45.58.27,91.2.83,136.71,3.43,39.33,2.25,78.5,6.31,117.57,11.3,5.59.71,11.18,1.44,16.77,2.18,1.14.15,1.13-1.65,0-1.8h0Z"/>
          <path class="cls-11" d="M966.74,558.23c10.38-5.34,20.2-11.7,29.38-18.91,9.24-7.26,17.8-15.4,25.55-24.24,7.7-8.77,14.61-18.24,20.63-28.24,6.04-10.04,11.18-20.64,15.3-31.61,4.12-10.95,7.21-22.28,9.16-33.82.24-1.44.47-2.89.68-4.34.16-1.13-1.57-1.62-1.74-.48-1.66,11.47-4.43,22.77-8.24,33.71-3.82,10.98-8.66,21.59-14.42,31.69-5.76,10.1-12.43,19.69-19.91,28.6-7.45,8.88-15.69,17.09-24.62,24.48-8.95,7.41-18.61,13.97-28.81,19.54-1.29.7-2.58,1.39-3.88,2.06-1.03.53-.12,2.08.91,1.55h0Z"/>
          <path class="cls-11" d="M347.14,556.68c-10.33-5.32-20.15-11.64-29.28-18.84-9.1-7.18-17.53-15.2-25.17-23.9-7.68-8.74-14.56-18.17-20.55-28.15-5.98-9.96-11.08-20.47-15.15-31.35-4.06-10.85-7.11-22.08-9.04-33.5-.24-1.44-.47-2.89-.68-4.34-.17-1.14-1.9-.66-1.74.48,1.68,11.58,4.49,22.99,8.35,34.03,3.87,11.06,8.76,21.77,14.58,31.95,5.79,10.14,12.5,19.75,19.99,28.69,7.55,9.01,15.92,17.34,24.99,24.82,9,7.42,18.67,14.02,28.91,19.6,1.29.7,2.58,1.39,3.88,2.06,1.03.53,1.94-1.02.91-1.55h0Z"/>
          <path class="cls-2" d="M911,556.77c-1.25,12.22-13.75,22.12-27.9,22.12s-24.62-9.9-23.36-22.12c1.25-12.22,13.75-22.12,27.91-22.12s24.62,9.9,23.36,22.12Z"/>
          <path class="cls-11" d="M905.84,567.13c-9.08,11.9-29.49,15.31-40.34,3.88-2.55-2.68-4.2-6.02-4.79-9.67-.19-1.14-1.92-.66-1.74.48,1.18,7.25,6.45,12.99,13.1,15.81,7.83,3.31,17.02,2.69,24.62-.93,4.2-2,7.88-4.96,10.7-8.66.7-.92-.86-1.82-1.55-.91h0Z"/>
          <path class="cls-11" d="M849.79,625.72c16.87,1.26,33.4-6.75,42.87-20.76,2.52-3.73,4.49-7.82,5.87-12.1.36-1.11-1.38-1.58-1.74-.48-4.89,15.18-17.58,26.89-33.12,30.5-4.55,1.06-9.23,1.39-13.88,1.04-1.16-.09-1.15,1.71,0,1.8h0Z"/>
        </g>
      </g>
      <g>
        <path class="cls-11" d="M411.2,816.47c29.3,8.93,50.2,31.67,55.43,56.18,5.23,24.52-4.11,50.2-22.05,70.6l-54.66-68.27,21.29-58.51Z"/>
        <path class="cls-11" d="M391.18,747.38c16.46-7.46,39.4-2.79,49.86,11.96s8.84,36.83-3.65,49.89l-48.87-29.19,2.66-32.66Z"/>
        <path class="cls-11" d="M450.11,822.02c.74,2.45,1.95,6.9,2.26,11.85s-13.27-1.27-13.27-1.27l-6.61-12.62,17.62,2.04Z"/>
        <path class="cls-10" d="M452.68,838.82c-.03-1.68-.14-3.32-.31-4.95-1.17.23-2.36.29-3.55.16-4.97-.57-9.16-4.53-10.24-9.36-.08-.31.23-.59.51-.64,3.7-.53,7.37-1.2,11.02-2.01-1.03-3.89-2.29-7.74-3.62-11.59-5.17-15.04-11.29-29.79-17.45-44.44-.1-.22-.26-.34-.43-.38-3.08-7.31-7.6-14.07-15.8-15.98-5.32-1.25-10.88-.14-15.83,1.76-5.82,2.23-11.11,5.55-16.06,9.26-4.49,3.35-8.89,6.91-13.01,10.69-3.61,3.32-7.01,7.06-9.1,11.54-2.32,4.95-2.62,10.36-1.49,15.73,1.21,5.74,3.78,11.13,6.17,16.48,2.67,6.01,5.35,12.01,8.02,18.03,2.41,5.39,4.81,10.83,8.13,15.77,7.31,10.89,17.19,7.9,29.67,10.15,14.66,2.64,32.72,3.02,39.36-5.07,3.41-4.13,4.11-10.24,4.02-15.14Z"/>
        <path class="cls-11" d="M434.81,788.03c-.94-1.31-2.93-1.7-4.48-1.37-5.06,1.08-9.28,7.79-11.23,12.15-.28.62-.54,1.29-.47,1.96.07.68.58,1.36,1.26,1.39.43.02.82-.21,1.18-.44,3.36-2.19,6.59-4.58,9.78-7.02,1.95-1.5,5.96-3.89,3.95-6.67Z"/>
        <path class="cls-11" d="M383.64,809.98c5.47.92,11.21-.38,16-2.9,4.79-2.51,8.72-6.17,12.1-10.11,6.68-7.81,11.41-16.94,13.73-26.54,1.04-4.31,1.6-8.82.4-13.1-1.2-4.28-4.42-8.29-9.07-9.79-4.77-1.54-10.26-.18-14.34,2.5s-6.99,6.54-9.55,10.44c-5.08,7.73-9.18,16.1-10.76,24.95-1.57,8.85-3.32,16.68,1.48,24.55h0Z"/>
        <polygon class="cls-10" points="379.04 836.17 367.06 901.75 410.97 891.31 417.24 840.99 379.04 836.17"/>
        <path class="cls-11" d="M345.38,764.57c10.7-9.75,23.42-13.63,36.77-16.26,7.61-1.5,14.53-2.89,21.86-.38,1.03.35,2.03.76,3.01,1.22.15,6.15-.25,12.28-.68,17.56-1.3,16.17-7.81,31.62-11.76,47.48-3.16,12.69-12.8,35.21-25.39,39.09l-1.9-11.59c-3.65-1.07-7.19-2.61-10.28-4.97-11.08-8.44-19.87-25.06-22.56-38.61-2.23-11.22-1.23-22.45,10.92-33.53Z"/>
        <path class="cls-10" d="M453.17,807.13c1.66,1.34,3.2,2.91,3.3,4.72.16,2.95-4.95,6.99-8.38,8.89l-11.84-26.19c5.14,3.75,11.75,8.41,16.93,12.58Z"/>
        <path class="cls-11" d="M431.29,798.8c4.26-.83,7.08,5.32,6.43,8.86-.19,1.02-.78,1.98-1.83,2.38-5.57,2.11-9.67-10.25-4.6-11.24Z"/>
        <path class="cls-11" d="M424.84,1104.22l-84.7.89c-52.6,52.87-53.94,105.95-45.89,172.81l199.96-.48c-16.15-61.86-39.32-115.14-69.38-173.23Z"/>
        <path class="cls-5" d="M435.77,1275.84c-.49-23.35-2.42-46.7-5.2-69.88-.77-6.47-1.63-12.92-2.58-19.37-.17-1.14-1.9-.66-1.74.48,3.43,23.28,5.75,46.76,7.01,70.26.33,6.17.57,12.34.7,18.51.02,1.16,1.82,1.16,1.8,0h0Z"/>
        <path class="cls-3" d="M577.71,911.83s1.94-7.14,3.65-16.57c1.27-7-26.73-10.1-38.14-11.84-6.43-.99-13.57-1.61-19.11,2.1-5.46,3.65-7.74,10.42-9.58,16.67-6.25,21.12-11.97,42.36-17.18,63.72-2.51-4.35-5.09-8.73-7.75-13.16-16.22-27.04-29.22-60.25-72.19-68.59l.21,92.09c.63,43.27,8.01,86.17,21.79,126.7,5.1-.81,9.71-1.56,14.04-2.29,15.28,3.55,42.33,6.71,59.27,2.29,20.78-5.42,33.14-15.25,44.06-30.95,15.95-22.92,25.92-87.52,33.09-121.04,1.08-5.07,2.19-10.11,3.19-14.99.05-.24.1-.49.14-.72,2.45-14.56-15.49-23.41-15.49-23.41Z"/>
        <path class="cls-11" d="M453.58,1017.25c-4.7,16.79-7.83,33.96-9.35,51.23-1.01,11.28-1.3,22.59-.91,33.85,3.59-.58,6.94-1.12,10.14-1.66,5.99,1.39,13.8,2.72,22.09,3.56-5.01-25.91-15.28-63.7-21.97-86.97Z"/>
        <path class="cls-3" d="M455.54,1102.94h-.01s-.58,14.55-11.89,15.86c0,0,.82,14.52-3.51,17.01-2.48,1.43-6.35,1.96-9.6,2.19-35.43,2.58-73.72,2.72-114.31-1.39-19.1-1.93-27.04-27.85-28.19-55.73-.46-11.19-11.91-18.16-11.75-29.42,1.97-30.38,5.32-60.82,13.65-90.39,8.66-30.76,25.81-62.25,53.84-80,2.74-1.74,5.55-3.27,8.4-4.62,12.07-1.51,24.25-1.3,35.74.11,7.83.95,18.05,1.86,25.19,4.71,6.14,2.45,18.93,10.04,23.86,14.18,37.75,31.69,26.7,133.43,18.57,207.49Z"/>
        <path class="cls-11" d="M342.13,1121.65c26.01.73,52.04.45,78.03-.84,7.3-.36,14.6-.81,21.89-1.34,1.15-.08,1.16-1.88,0-1.8-25.93,1.87-51.92,2.72-77.92,2.56-7.34-.05-14.67-.17-22.01-.38-1.16-.03-1.16,1.77,0,1.8h0Z"/>
        <path class="cls-3" d="M422.37,889.92c.1-5.62.03-11.83-1.51-17.42-.63-2.29-1.63-4.42-4.03-5.49-2.59-1.15-5.86-1.23-8.75-1.57-3.47-.4-6.96-.74-10.46-1.01-7.11-.55-14.21-.49-21.3-.9-2.26-.13-4.58-.19-6.73.44-5.98,1.73-6.11,8.06-6.56,12.84-.46,4.91-.35,9.9.55,14.76.04.23.15.39.28.51.19,1.91.64,3.76,1.83,5.31,3.2,4.16,10.31,3.96,15.54,4.23,7.02.37,14.12.31,21.22-.16,3.2-.21,6.42-.48,9.61-1.04,2.64-.46,6.32-1.04,8.54-2.72,2.42-1.83,1.73-5.41,1.77-7.8Z"/>
        <path class="cls-10" d="M643.08,827.7c-2.88-12.75-42.81-4.98-50.91-2.52-2.36.72-4.67,1.56-6.94,2.5,1.65-.94,3.24-1.98,4.77-3.07,2.4-1.72,4.78-3.62,6.77-5.81,1.85-2.03,3.31-4.55,3.35-7.32.05-2.88-4.21-5.23-8.28-4.8-2.69.29-5.87.91-8.49,1.63-5.37,1.47-10.61,3.47-15.53,6.15-11.27,6.12-21.13,15.16-27.34,26.45-3.08,5.6-5.2,11.67-6.24,17.91-3.14,13.92-4.76,24.44-4.76,24.44,0,0,.9,5.42,14.92,8.67,19.79,4.58,30.7-2.07,30.7-2.07l4.71-18.19c.46-.26.9-.51,1.29-.72,12.03-6.76,24.05-13.54,36.07-20.32,8.27-4.67,22.93-9.95,25.78-20.21.28-1,.31-1.9.13-2.71Z"/>
        <path class="cls-11" d="M561.54,858.41c3.77-9.43,13.2-14.83,22.36-17.95,5.17-1.76,10.49-3.1,15.79-4.39,5.59-1.36,11.21-2.58,16.86-3.66,6.42-1.22,12.87-2.24,19.34-3.08,1.13-.15,1.15-1.95,0-1.8-11.91,1.53-23.73,3.68-35.41,6.49-10.5,2.52-21.96,4.96-30.79,11.54-4.32,3.22-7.88,7.34-9.89,12.37-.43,1.08,1.31,1.54,1.74.48h0Z"/>
        <path class="cls-11" d="M588.09,833.97c12.35-5.61,25.39-9.61,38.76-11.89,1.14-.19.66-1.93-.48-1.74-13.53,2.3-26.7,6.39-39.19,12.07-1.05.48-.14,2.03.91,1.55h0Z"/>
        <path class="cls-11" d="M562.23,839.98c7.34-4.88,15.29-8.82,23.75-11.34,1.11-.33.64-2.07-.48-1.74-8.61,2.56-16.71,6.55-24.18,11.52-.96.64-.06,2.2.91,1.55h0Z"/>
        <path class="cls-11" d="M581.27,831.29c2.97,2.06,5.94,4.11,8.92,6.17.4.28,1,.07,1.23-.32.26-.45.08-.95-.32-1.23-2.97-2.06-5.94-4.11-8.92-6.17-.4-.28-1-.07-1.23.32-.26.45-.08.95.32,1.23h0Z"/>
        <path class="cls-11" d="M387.6,818.01c-3.94-5.12-8.81-9.79-14.68-12.87-.63-.33-3.35.83-6.22,2.36-.06-.31-.11-.61-.19-.93-1.01-3.89-20.53-16.77-23.41-21.29-.72.04-1.44.08-2.15.13.36.98.73,1.96,1.07,2.93,2.77,7.77,4.83,15.6,3.7,23.86-1.04,7.56-4.33,14.93-9.47,20.78-10.36,11.77-26.64,16.56-37.83,27.45-17.28,16.81-20.47,43.36-13.71,65.67,3.07,10.14,8.19,23.39,19.69,26.12,10.85,2.58,21.88-4.89,27.95-13.32,5.87-8.16,9.28-17.74,15.63-25.61,5.36-6.65.89-17.89,11.26-21.63,11.05-3.98,13.35-4.97,23.99-5.8,5.5-.43,16.53-1.1,16.53-1.1,2.64-25.3,4.51-45.09-12.17-66.76Z"/>
        <path class="cls-5" d="M372.14,803.59c11.75-9.74,21.75-21.5,29.51-34.63.59-1-.96-1.91-1.55-.91-7.69,13.01-17.6,24.62-29.23,34.27-.89.74.39,2.01,1.27,1.27h0Z"/>
        <path class="cls-5" d="M396.38,789.63c3.79-4.2,6.68-9.12,8.5-14.47.37-1.1-1.37-1.57-1.74-.48-1.71,5.05-4.45,9.72-8.03,13.68-.78.86.49,2.13,1.27,1.27h0Z"/>
        <path class="cls-5" d="M314.92,887.02c1.81-9.07,8.37-15.96,15.14-21.81,6.82-5.9,14.24-11.14,19.71-18.42,3-4,5.23-8.57,5.99-13.53.17-1.13-1.56-1.62-1.74-.48-1.4,9.26-7.91,16.4-14.7,22.37-6.76,5.94-14.25,11.11-19.82,18.27-3.02,3.89-5.35,8.28-6.31,13.13-.23,1.13,1.51,1.62,1.74.48h0Z"/>
        <path class="cls-5" d="M351.84,858.92c7.41-5.58,12.26-13.94,13.43-23.14.15-1.15-1.65-1.14-1.8,0-1.08,8.49-5.7,16.43-12.54,21.58-.91.69-.02,2.25.91,1.55h0Z"/>
        <path class="cls-5" d="M302.58,876.6c3.57-7.39,8.58-13.98,14.75-19.39.87-.77-.4-2.03-1.27-1.27-6.27,5.5-11.4,12.24-15.03,19.75-.5,1.04,1.05,1.95,1.55.91h0Z"/>
        <path class="cls-10" d="M376.22,820.31c-1.09-8.84,5.26-15.4,14.19-14.65,8.92.75,14.97,8.5,16.06,17.35s-3.19,15.43-12.12,14.68c-8.92-.75-17.04-8.53-18.13-17.37Z"/>
        <circle class="cls-1" cx="395.74" cy="837.74" r="5.12"/>
        <path class="cls-11" d="M393.67,827.38c-3.9-2.61-5.76-7.46-4.47-11.99.32-1.12-1.42-1.59-1.74-.48-1.52,5.33.73,10.97,5.3,14.02.97.65,1.87-.91.91-1.55h0Z"/>
        <path class="cls-10" d="M392.5,1165.08c-.11-1.44-.36-2.87-.59-4.29-.9-5.7-2.19-11.33-3.84-16.86-.04-.13-.08-.25-.12-.37-.33-1.91-.72-3.81-1.18-5.68-1.75-7.17-4.39-14.06-7.51-20.74-2.21-5.85-7.02-13.34-12.81-18.62-.27-.25-22.43,8.84-24.68,9.63-4.57,1.6-8.66,4.12-11.67,7.97-3.67,4.69-5.1,10.32-7.45,15.72-2.75,6.31-5.86,12.46-8.61,18.76-3.22,7.39-15.08,34.73-1.97,38.55,2.07.6,4.19.1,6.08-.91-1.25,3.96-1.82,8.54,1.6,11.49,1.87,1.62,4.33,1.94,6.54.84,2.24-1.11,4.03-3.01,5.36-5.1.23,2.09,1.3,4.04,3.27,5.21,3.29,1.95,6.79.38,9.28-2.08,1.44-1.42,2.64-3.05,3.86-4.66,1.47-1.94,2.89-3.9,4.27-5.9,2.76-3.99,5.36-8.11,7.77-12.32.96-1.68,5.94-10.91,9.98-18.35,1.77,2.59,3.27,4.76,3.67,5.37,1.49,2.24,3.24,4.35,5.27,6.12,1.94,1.7,4.42,3.16,7.08,3.14,2.22-.02,4.59-1.05,5.73-3.04.68-1.19.77-2.54.67-3.88Z"/>
        <path class="cls-3" d="M396.95,884.98c-82.9,1.8-115.54,47.65-153.39,93.01-13.2,15.82-22.73,36.13-21.36,56.69,1.19,17.8,18.71,45.48,31.38,60.06,11.7,13.47,33.16,32.18,52.56,23.17,0,0,4.82,19.36,15.35,17.7,22.76-3.59,45.74-28.46,48.74-37.71,3-9.24-30.17-49.17-30.17-49.17,0,0,59.41-88.42,60.52-105.02,1.11-16.6-3.64-58.74-3.64-58.74Z"/>
        <path class="cls-11" d="M347.66,1066.69s23.3-40.64,30.45-67.81c0,0-20.53,34.6-41.58,50.91l11.13,16.9Z"/>
        <path class="cls-11" d="M391.62,884.2c9.77,1.45,19.65,1.98,29.52,1.49,1.15-.06,1.16-1.86,0-1.8-9.7.48-19.43,0-29.04-1.43-1.13-.17-1.62,1.57-.48,1.74h0Z"/>
        <path class="cls-11" d="M382.74,987.77c-9.61,17.83-21.45,34.46-35.11,49.41-3.77,4.13-7.69,8.13-11.74,11.98-.84.8.43,2.07,1.27,1.27,14.62-13.93,27.51-29.71,38.34-46.75,3.11-4.89,6.04-9.9,8.79-15,.55-1.02-1-1.93-1.55-.91h0Z"/>
        <path class="cls-11" d="M457.59,1100.4c2.33-22.58,4.72-45.17,5.92-67.84.33-6.3.57-12.61.69-18.92.02-1.16-1.78-1.16-1.8,0-.43,22.62-2.4,45.17-4.65,67.67-.64,6.36-1.3,12.73-1.95,19.09-.12,1.15,1.68,1.14,1.8,0h0Z"/>
        <path class="cls-11" d="M516.6,907.19c14.56,7.13,31.04,9.98,47.16,8.26,4.62-.5,9.19-1.35,13.68-2.56,1.12-.3.64-2.04-.48-1.74-15.34,4.13-31.71,3.98-46.94-.6-4.3-1.3-8.49-2.94-12.52-4.92-1.04-.51-1.95,1.04-.91,1.55h0Z"/>
        <path class="cls-11" d="M496.4,967.79c-1.44,9.78-2.89,19.55-4.33,29.33-.17,1.13,1.57,1.62,1.74.48,1.44-9.78,2.89-19.55,4.33-29.33.17-1.13-1.57-1.62-1.74-.48h0Z"/>
        <path class="cls-11" d="M378.08,997.88c8.14,12.56,22.96,18.37,37.5,18.63,5.08.09,10.16-.47,15.13-1.49,1.13-.23.65-1.97-.48-1.74-14.73,3.01-31.49,1.61-43.46-8.31-2.77-2.29-5.18-4.98-7.14-8-.63-.97-2.19-.07-1.55.91h0Z"/>
        <path class="cls-11" d="M464.11,1014.47c10.44-6.29,16.1-19.59,14.53-31.51-.76-5.77-2.5-11.38-4.5-16.83-2.12-5.78-4.6-11.43-7.27-16.98-2.4-4.98-4.95-9.89-7.69-14.7-.57-1.01-2.13-.1-1.55.91,5.18,9.12,9.87,18.6,13.69,28.38,2.08,5.32,3.93,10.77,5.04,16.38.47,2.39.8,4.81.82,7.25.02,2.67-.51,5.27-1.24,7.84-2.05,7.18-6.24,13.81-12.72,17.72-.99.6-.09,2.15.91,1.55h0Z"/>
        <path class="cls-11" d="M327.74,1160.35c-3.07,9.32-6.52,18.51-10.37,27.54-.45,1.05,1.1,1.97,1.55.91,3.91-9.17,7.43-18.5,10.55-27.97.36-1.1-1.37-1.58-1.74-.48h0Z"/>
        <path class="cls-11" d="M342.06,1167.07c-3.07,9.32-6.52,18.51-10.37,27.54-.45,1.05,1.1,1.97,1.55.91,3.91-9.17,7.43-18.5,10.55-27.97.36-1.1-1.37-1.58-1.74-.48h0Z"/>
        <path class="cls-11" d="M313.36,1016.25c14.47,21.96,28.93,43.93,43.4,65.89,4.11,6.24,8.22,12.48,12.33,18.72.63.96,2.19.06,1.55-.91-14.47-21.96-28.93-43.93-43.4-65.89-4.11-6.24-8.22-12.48-12.33-18.72-.63-.96-2.19-.06-1.55.91h0Z"/>
        <path class="cls-11" d="M296.9,1122.01c19.15-5.21,37.34-16.09,50.7-30.81,3.32-3.66,6.34-7.6,8.89-11.85.6-1-.96-1.9-1.55-.91-4.57,7.63-10.69,14.26-17.45,20.01-7.52,6.4-15.96,11.75-24.92,15.91-5.21,2.42-10.61,4.4-16.15,5.91-1.12.3-.64,2.04.48,1.74h0Z"/>
        <path class="cls-11" d="M406.89,857.34c2.22,1.75,4.77,2.98,7.47,3.78,1.11.33,1.59-1.41.48-1.74-2.38-.7-4.73-1.78-6.68-3.31-.38-.3-.9-.37-1.27,0-.31.31-.38.97,0,1.27h0Z"/>
      </g>
      <g>
        <path class="cls-11" d="M901.01,775.57c-2.82-8.89-9.34-18.55-18.55-21.78-3.69-1.29-7.78-.66-10.39,2.41-1.83,2.15-2.61,5-3.02,7.8-2.31,15.73,10.23,43.01,26.65,38.06,5.12-1.55,7.16-7.21,7.36-12.05.2-4.86-.57-9.81-2.04-14.44Z"/>
        <path class="cls-10" d="M959.16,808.08c1.16-5.51.86-11.05-1.52-16.13-2.16-4.6-5.64-8.43-9.34-11.83-4.22-3.89-8.74-7.53-13.34-10.97-5.08-3.8-10.5-7.21-16.47-9.5-5.08-1.95-10.78-3.08-16.23-1.81-8.41,1.97-13.04,8.9-16.2,16.39-.18.05-.35.17-.44.39-5.33,12.66-10.16,25.53-15.19,38.31-4.57,11.61-9.95,23.72-9.06,36.38.36,5.16,1.61,10.38,4.51,14.67,7.85,11.6,26.86,13.54,44.66,10.57,5.3-.88,9.16-.51,13.8-3.31,4.84-2.92,8.79-6.94,11.93-11.61,3.4-5.05,5.87-10.64,8.33-16.17,2.75-6.16,5.49-12.32,8.23-18.48,2.45-5.49,5.09-11.02,6.33-16.91Z"/>
        <path class="cls-10" d="M859.55,815.6c-1.37,1.24-2.64,2.72-2.72,4.57-.13,3.01,5.12,6.43,7.95,8.65l9.62-25.23c-4.23,3.42-10.6,8.15-14.86,12.01Z"/>
        <polygon class="cls-10" points="943.27 843.9 955.55 911.15 908.13 902.41 899.17 851.6 943.27 843.9"/>
        <path class="cls-11" d="M907.71,770.87c.09-2.21.2-4.49.36-6.78-.55.41-1.09.83-1.61,1.27-.59,7.25.26,14.83,1.68,22.27-.49-5.57-.65-11.17-.42-16.75Z"/>
        <path class="cls-11" d="M976.01,778.1c-9.93-9.46-22.27-13.22-35.32-15.77-7.44-1.46-14.2-2.8-21.64-.37-1.04.34-2.06.74-3.07,1.19-.58,5.96-.59,11.91-.54,17.03.17,15.68,2.7,26.74,5.51,42.13,2.25,12.31,13.13,38.08,25.34,41.84l2.68-11.24c3.69-1.04,7.3-2.53,10.53-4.82,11.56-8.19,21.41-24.31,25.01-37.46,2.98-10.89,2.76-21.78-8.51-32.52Z"/>
        <path class="cls-10" d="M937.65,833.41c-.06-9.18-6.47-14.77-14.32-12.49-7.85,2.29-12.32,11.2-12.26,20.38.06,9.18,4.63,15.15,12.48,12.87,7.85-2.29,14.16-11.58,14.1-20.76Z"/>
        <path class="cls-11" d="M923.92,808.34c-.71-2-6.44-13.3-7.54-11.33-3.92,7.06-10.47,20.79-16.66,27.49-8.27,8.95-16.68,15.35-30.9,19.05-3.68.96-11.32-1.87-14.2.64-5.52,4.8-4.35,15.78.65,20.34,5,4.56,17.79,9.61,24.74,10.79,4.82.81,9.69,1.63,14.66,1.33s8.74-.76,12.57-4.07c4.71-4.07,6.51-10.67,8.19-16.44,3.71-12.78,6.64-28.35,8.58-41.36.32-2.16.61-4.42-.09-6.42Z"/>
        <path class="cls-11" d="M875.87,832.63c-4.46-2.59-9.52-4.64-13.64-5.48-1.84,2.77-10.97,17.63-11.02,23.97-.01,1.77,6.65,8.94,8.41,9.32,1.76.38,10.68-13.56,12.49-13.37,4.13.43,7.65-4.28,10.94-5.3-.98-3.93-3.09-6.76-7.18-9.14Z"/>
        <path class="cls-10" d="M859.51,840.72c4.49,1.49,9.35,1.85,14.02,1.17.48-.07.74-.68.63-1.11-.14-.52-.63-.7-1.11-.63-4.35.63-8.9.21-13.06-1.17-1.1-.37-1.57,1.37-.48,1.74h0Z"/>
        <path class="cls-11" d="M974.99,780.26c-.73-1.64-1.52-3.27-2.36-4.86-1.13-3.45-2.43-6.84-3.98-10.13-3.93-8.39-9.45-16.21-16.86-21.96-2.54-1.97-5.33-3.71-8.44-4.62-3.11-.91-6.58-.94-9.52.41-3.08,1.41-5.35,4.26-6.29,7.44-.19.66-.32,1.33-.41,2.01-.84-1.22-1.72-2.41-2.64-3.57-2.73-3.44-5.84-6.63-9.64-8.89-3.78-2.25-8.37-3.46-12.76-2.7-4.13.72-7.56,3.21-10.25,6.33-2.85,3.31-5.07,7.27-6.76,11.28-1.8,4.28-2.99,8.85-3.29,13.49-.07,1.13-.1,2.26-.07,3.38,3.68,7.54,8.44,14.53,14.32,20.65,9.76,10.17,22.1,14,35.95,14.14,1.7.02,2.77,1,3.21,2.23,2.8.36,5.6.72,8.39,1.08,5.9.74,11.86,1.33,17.8.62,6.41-.77,12.59-2.78,18.6-5.05.29-.11.42-.38.41-.67-.18-7.17-2.53-14.13-5.43-20.62Z"/>
        <path class="cls-5" d="M916.69,787.14c4.34,4.91,9.62,9.59,16.27,10.85,5.98,1.14,12.54-.71,15.64-6.28,1.53-2.75,2.01-6.05.91-9.03-.4-1.07-2.1-.63-1.74.48,1.61,4.85,5.95,8.59,11.06,9.24,5.23.67,10.53-2.05,13.22-6.54.6-1-.96-1.9-1.55-.91-2.31,3.86-6.85,6.22-11.35,5.69-4.4-.51-8.26-3.79-9.64-7.96-.58.16-1.16.32-1.74.48,1.13,3.06.36,6.4-1.58,8.97-2.17,2.86-5.62,4.28-9.15,4.4-7.87.26-14.16-5.1-19.07-10.66-.77-.87-2.04.41-1.27,1.27h0Z"/>
        <path class="cls-5" d="M882,756.19c-1.53,6.01-.84,12.57,2.16,18.03.56,1.02,2.11.11,1.55-.91-2.76-5.03-3.39-11.1-1.98-16.65.29-1.12-1.45-1.6-1.74-.48h0Z"/>
        <path class="cls-5" d="M894.05,764.48c1.03,7.15,5.09,13.63,10.97,17.8.95.67,1.85-.89.91-1.55-5.51-3.91-9.18-10.05-10.14-16.73-.16-1.14-1.9-.66-1.74.48h0Z"/>
        <g>
          <path class="cls-11" d="M737.88,1049.45l-51.45,7.3c-1.59.23-3.19-.29-4.35-1.4l-112.9-107.92c-3.16-3.02-1.45-8.35,2.88-8.97l50.96-7.23c1.9-.27,3.82.35,5.21,1.67l112.54,107.58c3.16,3.02,1.45,8.35-2.88,8.97Z"/>
          <path class="cls-1" d="M748.81,1047.84l-53.76,7.63-122.54-117.14,51.61-7.33c1.36-.19,2.73.25,3.72,1.2l120.96,115.63Z"/>
          <path class="cls-11" d="M618.78,932.29c-.25.99-.5,1.98-.75,2.97-.31,1.21-.5,2.49-1.54,3.32-1.31,1.05-3.71,1.04-5.3,1.28-2.65.4-5.31.8-7.96,1.2-2.01.3-4.16.85-6.19.42-2.16-.46-4.29-1.49-6.36-2.26-2.23-.82-4.46-1.64-6.69-2.46-1.09-.4-1.56,1.34-.48,1.74,3.96,1.46,7.9,2.99,11.89,4.38,2.55.89,5,.42,7.57.03,2.8-.42,5.6-.85,8.4-1.27,1.8-.27,4.15-.29,5.73-1.29,2.48-1.57,2.75-4.97,3.41-7.58.28-1.12-1.45-1.6-1.74-.48h0Z"/>
          <path class="cls-11" d="M610.99,964.31c11.45-1.73,22.91-3.46,34.36-5.19,1.14-.17.66-1.91-.48-1.74-11.45,1.73-22.91,3.46-34.36,5.19-1.14.17-.66,1.91.48,1.74h0Z"/>
          <path class="cls-11" d="M621.01,973.71c10.75-1.62,21.51-3.25,32.26-4.87,1.14-.17.66-1.91-.48-1.74-10.75,1.62-21.51,3.25-32.26,4.87-1.14.17-.66,1.91.48,1.74h0Z"/>
          <path class="cls-11" d="M630.28,982.55c5.21-.79,10.42-1.57,15.64-2.36,1.14-.17.66-1.91-.48-1.74-5.21.79-10.42,1.57-15.64,2.36-1.14.17-.66,1.91.48,1.74h0Z"/>
        </g>
        <path class="cls-10" d="M902.91,949.26c-4.43,6.73-8.81,13.49-13.12,20.3-3.93,6.19-7.78,12.44-11.23,18.91-1.85,3.48-3.57,7.02-5.12,10.65-.76-.21-1.52-.44-2.28-.68-5.69-1.78-11.3-3.84-16.9-5.86-10.8-3.88-21.52-7.98-32.07-12.49-21.13-9.02-41.68-19.71-60.15-33.46-9.27-6.9-17.97-14.57-25.84-23.03-8.5-9.13-16.07-19.08-23.16-29.33-7.23-10.45-14-21.22-20.81-31.95-6.9-10.88-38.34-74.08-53.46-106.3,8.02-6.05,13.01-10.35,20.98-16.47,9.54-7.34,19.06-14.71,28.53-22.13.97-.76.95-.77,1.92-1.53,12.82,17.28,64.51,88.47,79.17,105.52,14.35,16.68,30.08,32.27,47.78,45.4,19.03,14.12,40.22,24.88,61.69,34.75,14.34,6.59,28.83,12.85,43.1,19.58-6.47,9.29-12.8,18.67-19.03,28.12Z"/>
        <path class="cls-10" d="M669.09,687.3c-1.84-1.27-14.19-1.4-16.51-1.56-2.35-.15-3.85,1.47-5.11,3.23-3.2,4.48-6.39,8.98-9.59,13.47-3.15,4.42-6.32,8.84-9.45,13.28-3.02,4.28-5.97,8.62-8.53,13.2-1.19,2.13-2.39,4.32-2.96,6.71-.22.91-.31,1.81-.29,2.71-.48-.97-.95-1.95-1.38-2.95-.25-.59-1.14-.18-.9.41.85,2.03,1.83,3.99,2.9,5.92.08.23.17.46.26.69.92,2.17,2.37,4.09,3.84,5.9,0,0,.01.02.02.02,1.58,2.27,3.26,4.48,4.99,6.61,4.2,5.17,9.07,10.04,15.11,13,1.47.72,3.01,1.31,4.58,1.75,1.76.49,3.48.88,5.07-.25.69-.49,1.29-1.12,1.91-1.69.8-.73,1.59-1.47,2.39-2.2,1.48-1.35,2.96-2.69,4.46-4.02,6.04-5.37,12.2-10.61,18.48-15.69,7.06-5.71,21.95-16.19,21.83-16.34-8.53-10.74-23-36.59-31.13-42.21Z"/>
        <path class="cls-1" d="M753.91,978.37s50.09,22.37,54.88,24.55c19.81,8.99,39.97,17.63,59.88,21.88,33.36,7.11,80.26-17.32,74.46-62.81-3.14-24.61-13.17-46.23-34.72-55.85-25.87-11.54-71.71-36.02-109.66-54.54-.86,2.27-44.85,126.77-44.85,126.77Z"/>
        <path class="cls-11" d="M811.79,1004.27l24.8,10.71s25.24-68.15,36.39-86.14c0,0-28.34,27.78-61.2,75.43Z"/>
        <path class="cls-8" d="M852.65,1121.48s-16.27,68.76-8.7,156.44h154.04s8.81-54.33-4.3-92.9c-12.34-36.3-28.8-54.2-28.8-54.2l-112.25-9.35Z"/>
        <path class="cls-8" d="M872.41,1277.92h-66.56c14.97-50.63,33.05-100.63,54.13-149.6l12.42,149.6Z"/>
        <path class="cls-11" d="M846.01,1165.49c-3.6,28.59-5.3,57.41-4.97,86.23.09,8.09.35,16.17.76,24.25.06,1.15,1.86,1.16,1.8,0-1.45-28.65-.9-57.39,1.6-85.96.71-8.19,1.59-16.36,2.62-24.52.14-1.15-1.66-1.14-1.8,0h0Z"/>
        <path class="cls-1" d="M1003.27,938.88c-1.12-8.94-3.2-17.93-8.88-24.93-15.32-18.88-47.84-20-70.05-17.38-25.43,3-41.31,19.14-55.48,39.28-15.83,22.49-28.41,51.07-33.45,77.58-5.82,30.61-10.84,60.98-11.46,92.1-.26,13.2,1.1,33.12,3.19,44.54,1.52,8.31,1.51,10.89,15.1,12,23.4,1.91,131.69,2.1,139.5,1.21,15-1.72,22.74-15.47,24.39-34.95,3.85-45.35,3.43-127.13-2.37-185.17-.14-1.42-.3-2.84-.48-4.27Z"/>
        <path class="cls-1" d="M900.48,895.52s27.36-18.8,52.77-18.82c14.13-.01,14.81,9.8,10.9,29.34-3.91,19.54-73.83,8.57-73.83,8.57l10.16-19.09Z"/>
        <path class="cls-8" d="M989.9,916.3c1.57,1.69,3.03,3.5,4.35,5.44,2.58,3.79,4.91,7.75,6.28,12.16,2.73,8.8,3.64,17.68,4.81,27.3.99-5.05.32-10.9.12-15.16-.68-14.46-5.3-29.24-16.15-39.04-15.31-13.83-34.59-16.22-61.46-9.92-15.31,3.59-30.34,15.58-40.31,26.92-13.4,15.24-24.01,33.41-31.79,52.88-8.16,20.43-13.15,42.28-15.23,64.51-2.41,25.71-1.09,51.74,2.77,77.19,1.94,12.78,4.52,25.44,7.59,37.94.77,3.11,1.56,6.21,2.39,9.3.69,2.59,1.33,5.25,2.14,7.82l60.87-8.92c-24.92-18.26-30.71-48.46-32.75-66.43-2.62-23.04-20.98-24.21-19.94-47.41.95-21.26,3.78-42.23,10.27-62.31,5.76-17.81,13.92-34.63,24.09-49.78,4.53-6.74,9.47-13.13,14.75-19.15,6.42-7.31,15.35-13.83,24.59-16.88,18.33-6.05,39.53-.53,52.62,13.55Z"/>
        <path class="cls-11" d="M886.64,1123.11s33.29,5.45,61.59-21.64l-20.9-17.6-40.68,39.25Z"/>
        <path class="cls-8" d="M848.1,1000.02l-11.54-1.64c-9.82,26.14-16.55,75.2-17.13,96.36-1.04,37.91,1.5,61.04,7.95,65.54,6.45,4.49,38.5,4.43,38.5,4.43l-17.78-164.68Z"/>
        <path class="cls-10" d="M963.73,929.58c-8.86-5.76-19.8-7.51-30.13-8.47-6.15-.57-12.6-.71-18.48,1.46-5.03,1.85-9.17,5.33-12.56,9.42-3.56,4.3-6.38,9.14-9.19,13.95-3.24,5.53-6.39,11.11-9.44,16.74-11.6,21.36-23.38,52.71-32.25,75.34,0,0-108.87-19.96-154.89-26.62-5.29-.77,1.67,7.83-.99,13.07-.38.76-5.82,42.31,4.31,49.41,10.52,7.37,73.96,31.1,98.99,39.65,12.5,4.27,25.29,7.81,38.29,10.24,12.45,2.33,25.23,3.14,37.83,1.54,22.2-2.81,43.99-13.87,56.03-33.29,6.51-10.49,9.62-22.85,12.99-34.61,3.66-12.78,6.97-25.66,9.93-38.62,2.94-12.87,5.53-25.81,7.77-38.82,1.85-10.78,18.73-13.74,17.15-24.66-1.51-10.39-6.4-19.91-15.36-25.73Z"/>
        <path class="cls-10" d="M741.3,1048.42c-2.82-3.91-5.7-7.78-8.66-11.6-1.84-2.38-3.7-4.74-5.58-7.09-1.8-2.26-3.58-4.57-5.63-6.64-1.98-2-4.2-3.7-6.74-4.77-2.67-1.13-5.43-1.6-8.14-1.81-2.81-.22-5.59-.2-8.37-.21-2.69,0-5.38,0-8.06.06-5.39.11-8.22,5.31-13.52,5.8-8.68.81-19.28,1.79-27.95.84-.9-.83-7.29-6.96-7.29-6.96-1.82.8-3.77,4.14-4.3,5.48-2.42,6.18.02,13.78,5.89,18.81.03,1.48.66,16.15,12.83,20.56,1.31,5.59,5.3,14.03,19.79,15.93,4.94.82,25.02-.01,36.84.09,4.95.04,10.58,7.67,19.98,6.4,4.22-.57,7.11,3.85,9.41.32,1.1-1.69,1.65-3.73,2.2-5.72.59-2.12,1.12-4.27,1.5-6.48.17-1.01.31-2.04.41-3.08-1.37-6.64-2.9-13.32-4.62-19.93Z"/>
        <path class="cls-10" d="M718.13,1016.05c-8.44-2.61-20.63-5.85-30.41-8.47-6.78-1.82-15.02-4.32-21.9-5.58-2.04-.37-4.16-.65-6.18-.14-2.84.71-5.04,3.06-5.51,6.2-.84,5.6,4.43,10.5,8.52,12.87,4.69,2.7,9.99,3.91,15.13,5.26,7.65,2,15.61,2.24,23.5,2.2,3.2-.02,6.56-.12,9.33-1.85.45-.28.87-.62,1.26-1.01-.09-2.99,6.27-6.48,6.27-9.47Z"/>
        <path class="cls-11" d="M689.03,1020.93c-9.23.68-18.49.88-27.74.63-1.16-.03-1.16,1.77,0,1.8,9.25.25,18.51.06,27.74-.63,1.15-.08,1.16-1.89,0-1.8h0Z"/>
        <path class="cls-11" d="M656.63,1062.41c8.63.98,17.32,1.2,25.98.58,1.15-.08,1.16-1.88,0-1.8-8.66.62-17.36.39-25.98-.58-1.15-.13-1.14,1.67,0,1.8h0Z"/>
        <path class="cls-11" d="M643.99,1041.24c8.47,1.39,17.04,2.17,25.63,2.17,1.16,0,1.16-1.8,0-1.8-8.43,0-16.83-.74-25.15-2.11-1.13-.19-1.62,1.55-.48,1.74h0Z"/>
        <path class="cls-1" d="M950.23,1101.46c.32.08,20.98-44.22,23.02-48.45,8.42-17.45,16.55-35.36,20.88-54.33,7.25-31.79-2.8-80.29-42.25-87.98-21.34-4.16-34.46,4.21-47.44,18.99-12.11,13.79-20.85,30.68-29.21,46.6-8.01,15.26-14.73,34.14-21.39,49.79,1.93,1.56,95.01,74.96,96.39,75.36Z"/>
        <path class="cls-11" d="M914.74,899.22c-14.32,4.16-26.6,12.46-36.52,23.46-10.94,12.13-19.64,26.29-26.66,40.99-5.31,11.11-9.65,22.66-13.13,34.47-.33,1.11,1.41,1.59,1.74.48,5.69-19.34,13.73-38.07,24.59-55.09,6.77-10.6,14.69-21.09,24.54-29.04,7.68-6.19,16.45-10.79,25.92-13.54,1.11-.32.64-2.06-.48-1.74h0Z"/>
        <path class="cls-11" d="M901.24,894.7c-4.46,4.59-7.79,10.17-9.86,16.22-.38,1.1,1.36,1.57,1.74.48,1.98-5.75,5.16-11.06,9.4-15.42.81-.83-.46-2.11-1.27-1.27h0Z"/>
        <path class="cls-11" d="M821.41,864.63c-5.56,15.96-11.12,31.92-16.69,47.89-5.56,15.96-11.12,31.92-16.69,47.89-3.15,9.04-6.3,18.08-9.45,27.12-.38,1.1,1.36,1.57,1.74.48,5.56-15.96,11.12-31.92,16.69-47.89,5.56-15.96,11.12-31.92,16.69-47.89,3.15-9.04,6.3-18.08,9.45-27.12.38-1.1-1.36-1.57-1.74-.48h0Z"/>
        <path class="cls-11" d="M933.51,1092.3c6.2,4.32,12.39,8.64,18.59,12.96.87.61,1.75,1.22,2.62,1.83.53.37,1.12-.05,1.32-.54,10.01-24.41,18.49-49.44,25.67-74.83,2.04-7.21,3.97-14.45,5.81-21.71.28-1.12-1.45-1.6-1.74-.48-6.47,25.58-14.16,50.86-23.32,75.6-2.6,7.02-5.32,14-8.16,20.93l1.32-.54c-6.2-4.32-12.39-8.64-18.59-12.96-.87-.61-1.75-1.22-2.62-1.83-.95-.66-1.85.9-.91,1.55h0Z"/>
        <path class="cls-11" d="M862.8,1002.96c13.3,9.82,26.6,19.63,39.91,29.45,13.24,9.77,26.48,19.54,39.73,29.32,7.52,5.55,15.05,11.1,22.57,16.66.93.69,1.83-.87.91-1.55-13.3-9.82-26.6-19.63-39.91-29.45-13.24-9.77-26.48-19.54-39.73-29.32-7.52-5.55-15.05-11.1-22.57-16.66-.93-.69-1.83.87-.91,1.55h0Z"/>
        <path class="cls-10" d="M676.71,696.3c-3.24-5.69-8.46-9.68-13.18-13.91-7.62-6.85-13.34-14.96-17.51-24.59-1.14-2.63-2.51-5.23-4.68-6.97s-5.29-2.49-7.96-1.18c-2.31,1.13-3.9,3.6-4.58,6.13-.68,2.54-.57,5.16-.32,7.7.52,5.25,1.59,10.42,3.26,15.3,1.43,4.19,4.13,7.9,4.99,12.32.33,1.72.71,3.42,1.16,5.11.97,3.66,2.15,7.32,3.81,10.66,1.48,2.99,3.46,5.7,6.21,7.47,2.6,1.67,5.63,2.51,8.75,2.74,3.18.24,6.43-.1,9.63-.7,1.62-.31,3.24-.69,4.84-1.13,1.65-.45,17.21,10.76,18.62,9.65,5.42-4.24-10.42-23.98-13.05-28.6Z"/>
        <g>
          <path class="cls-1" d="M652.08,743.12h0c-3.39-3.13-5.81-7.16-6.99-11.62l-26.32-99.54c-.7-2.65.88-5.36,3.52-6.06l.86-.23c2.65-.7,5.36.88,6.06,3.52l26.46,100.05c1.06,4,1.08,8.2.06,12.21l-.16.63c-.4,1.55-2.31,2.12-3.48,1.03Z"/>
          <path class="cls-11" d="M625.27,653.97c3.17.03,6.45-.84,9.2-2.41,1.01-.57.1-2.13-.91-1.55-2.48,1.41-5.43,2.18-8.29,2.16-1.16,0-1.16,1.79,0,1.8h0Z"/>
        </g>
        <path class="cls-10" d="M650.27,698c-7.45-4.66-15.24-8.82-23.31-12.47-3.54-1.6-7.77-2.64-11.98-1.67-6.02,1.39-10.91,5.89-10.78,12.45.04,2,.52,4,1.21,5.82.61,1.59,1.42,3.1,2.41,4.48-.62.31-1.24.65-1.84,1.1-3.22,2.39-4.21,6.23-3.37,10.07.51,2.31,1.57,4.44,2.71,6.5.4.73,2.95,5.29,3.73,5.09-2.57.66-4.69,2.2-5.3,5.08-1.68,7.84,5.81,14.32,12.21,16.98,7.21,3.01,15.13,3.84,22.17.2,1.32-.68,2.62-1.49,3.65-2.6,2.43-2.63.39-4.88-.54-7.75-.36-1.1-.82-2.16-1.36-3.18,4.57-.28,7.47-1.76,9.24-4.67,1.08-1.78,1.76-3.9,1.52-5.78-.3-2.25-.43-2.69-1.37-4.74-.78-1.7-4.12-4.83-7-6.44,1.11-.34,6.55-1.3,7.6-1.81,3.11-1.5,6.68-3.91,7.06-7.57.46-4.44-3.43-7.09-6.65-9.11Z"/>
        <path class="cls-11" d="M637.75,738.8c2.55.14,5.14-.11,7.6-.83,1.11-.32.64-2.06-.48-1.74-2.31.67-4.72.89-7.12.77-.49-.03-.9.43-.9.9,0,.51.41.87.9.9h0Z"/>
        <path class="cls-11" d="M608.63,707.51c11.5.11,22.63,3.22,32.35,9.4.98.62,1.88-.93.91-1.55-9.97-6.35-21.46-9.54-33.25-9.65-1.16-.01-1.16,1.79,0,1.8h0Z"/>
        <path class="cls-11" d="M641.24,694c3.81,2.23,8.49,4.52,10.67,8.57,1.16,2.16,1.41,4.75.28,6.97-1.15,2.25-3.19,3.77-5.44,4.82-1.05.49-.14,2.04.91,1.55,5.04-2.36,8.6-7.47,6.35-13.08-2.02-5.05-7.42-7.79-11.86-10.39-1-.59-1.91.97-.91,1.55h0Z"/>
        <path class="cls-11" d="M608.99,730.38c7.72,1.14,15.2,3.42,22.54,6.03,2.99,1.06,6.63,2,8.79,4.5,2.04,2.37,1.85,6.08-.25,8.34-2.26,2.43-5.61,3.64-8.85,3.9-1.15.09-1.16,1.89,0,1.8,6.01-.48,13.39-4.38,12.21-11.49-.6-3.62-3.65-5.73-6.8-7.06-3.97-1.67-8.14-3.01-12.25-4.27-4.88-1.51-9.85-2.73-14.91-3.48-1.13-.17-1.62,1.57-.48,1.74h0Z"/>
        <path class="cls-11" d="M652.14,709.97c-.16,9.94,2.62,19.8,7.96,28.18.62.97,2.18.07,1.55-.91-5.18-8.13-7.87-17.63-7.71-27.27.02-1.16-1.78-1.16-1.8,0h0Z"/>
        <path class="cls-11" d="M895.67,802.15c-.79-4.55-4.2-8.39-8.23-10.07-1.92-.8-4.1-1.13-6.08-.51-3.89,1.23-4.12,6.45-1.28,8.12,2.34,1.38,6.15,2.36,9.12,5.74,1.51,1.72,3.58,2.43,5.21,1.71,1.35-.6,1.55-3.36,1.27-4.99Z"/>
        <path class="cls-11" d="M881.54,804.68c-4.37-.85-7.26,5.46-6.59,9.08.19,1.05.8,2.03,1.88,2.44,5.71,2.17,9.91-10.52,4.72-11.52Z"/>
        <path class="cls-11" d="M925.57,845.21c3.72-3.91,4.99-9.88,3.07-14.94-.41-1.07-2.15-.61-1.74.48,1.7,4.47.71,9.72-2.6,13.19-.8.84.47,2.11,1.27,1.27h0Z"/>
        <path class="cls-11" d="M846.22,1182.6c18.94.2,37.88.4,56.81.61,18.82.2,37.64.4,56.45.6,10.68.11,21.35.23,32.03.34,1.16.01,1.16-1.79,0-1.8-18.94-.2-37.87-.4-56.81-.61-18.82-.2-37.64-.4-56.45-.6-10.68-.11-21.35-.23-32.03-.34-1.16-.01-1.16,1.79,0,1.8h0Z"/>
        <path class="cls-11" d="M846.22,1164.57c17.51.23,35.03.3,52.54.17,4.99-.04,9.99-.09,14.98-.17,1.16-.02,1.16-1.82,0-1.8-17.51.25-35.03.3-52.54.16-4.99-.04-9.99-.09-14.98-.16-1.16-.02-1.16,1.78,0,1.8h0Z"/>
      </g>
    </g>
  </g>
</svg>