<?xml version="1.0" encoding="UTF-8"?>
<svg id="Layer_2" data-name="Layer 2" xmlns="http://www.w3.org/2000/svg" viewBox="0 0 1222.4 619.55">
  <defs>
    <style>
      .cls-1 {
        fill: #fff;
      }

      .cls-2 {
        fill: #979cc7;
      }

      .cls-3 {
        fill: #733821;
      }

      .cls-4 {
        fill: #ffbd66;
      }

      .cls-5 {
        fill: #8d84b8;
      }

      .cls-6 {
        fill: #e3e6ff;
      }

      .cls-7 {
        fill: #c7cdff;
      }

      .cls-8 {
        fill: #e06b51;
      }

      .cls-9 {
        fill: #f08f6c;
      }

      .cls-10 {
        fill: #221d3b;
      }

      .cls-11 {
        fill: #3c6cc7;
      }
    </style>
  </defs>
  <g id="Layer_4" data-name="Layer 4">
    <g>
      <path class="cls-6" d="M259.71,330.83S-4.91,349.34.07,465.31c4.98,115.97,356.82,177.13,709.39,146.31,352.57-30.83,486.93-155.67,502.48-197.11,62.11-165.47-580.51-94.94-739.45-89.4-158.95,5.54-212.77,5.72-212.77,5.72Z"/>
      <g>
        <g>
          <path class="cls-10" d="M235.86,348.43c-1.55,62.49-32.11,113.15-68.26,113.15s-64.18-50.66-62.63-113.15c1.55-62.49,32.11-113.15,68.26-113.15s64.18,50.66,62.63,113.15Z"/>
          <path class="cls-10" d="M226.27,354.83h-47.51s-45.96,97.98-20.55,105.58c21.17,6.33,55.98,6.38,71.28,3.38,26.97-5.29-3.22-108.96-3.22-108.96Z"/>
          <path class="cls-10" d="M291.81,351.09c-1.55,62.49-32.11,113.15-68.26,113.15s-64.18-50.66-62.63-113.15c1.55-62.49,32.11-113.15,68.26-113.15s64.18,50.66,62.63,113.15Z"/>
          <path class="cls-5" d="M213.86,462.07c-11.64-3.13-21.13-11.38-28.21-20.88-9.02-12.1-14.82-26.43-18.54-40.98-4.48-17.51-5.98-35.74-5.11-53.77.85-17.63,4.02-35.24,10.02-51.86,4.97-13.77,11.96-27.21,21.95-38.03,7.87-8.54,17.97-15.55,29.66-17.31,11.13-1.67,22.12,2.03,30.93,8.8,10.55,8.11,18.04,19.77,23.44,31.77,6.77,15.05,10.51,31.45,12.1,47.83,1.89,19.53.83,39.46-3.3,58.65-.98,4.53-2.14,9.03-3.47,13.47-.33,1.11,1.4,1.59,1.74.48,5.83-19.35,8.24-39.73,7.64-59.91-.52-17.5-3.32-35.09-9.2-51.61-4.76-13.38-11.6-26.46-21.67-36.63-8.12-8.2-18.58-14.26-30.28-14.97-11.75-.72-22.87,4.14-31.82,11.5-10.91,8.97-18.86,21.26-24.72,33.98-7.24,15.72-11.55,32.7-13.62,49.85-2.26,18.68-1.88,37.76,1.41,56.3,2.82,15.86,7.82,31.62,16.09,45.52,6.45,10.86,15.24,21.05,26.78,26.65,2.48,1.21,5.07,2.19,7.73,2.9,1.12.3,1.6-1.43.48-1.74h0Z"/>
        </g>
        <path class="cls-10" d="M1136.01,339.12c-1.54,61.93-31.83,112.14-67.64,112.14s-63.61-50.2-62.07-112.14c1.54-61.93,31.83-112.14,67.64-112.14s63.61,50.2,62.07,112.14Z"/>
        <path class="cls-10" d="M1126.51,345.46h-47.08s-45.55,97.1-20.37,104.63c20.98,6.28,55.48,6.32,70.64,3.35,26.73-5.24-3.19-107.98-3.19-107.98Z"/>
        <path class="cls-1" d="M329.12,109.65c-9.22-1.95-18.5-1.62-25.56,6.3-6.99,7.84-11.41,19.39-11.69,29.53l55.58-30.19c-5.91-2.46-12.06-4.31-18.33-5.64Z"/>
        <path class="cls-10" d="M632.59,394.8c-1.55,62.49-32.11,113.15-68.26,113.15s-64.18-50.66-62.63-113.15c1.55-62.49,32.11-113.15,68.26-113.15s64.18,50.66,62.63,113.15Z"/>
        <path class="cls-10" d="M623.01,401.2h-47.51s-45.96,97.98-20.55,105.58c21.17,6.33,55.98,6.38,71.28,3.38,26.97-5.29-3.22-108.96-3.22-108.96Z"/>
        <path class="cls-1" d="M1196.49,150.63c-6.32-13.05-21.59-21.84-36.78-28.37-12.49-5.37-29.48-12.44-29.48-12.44v.02c-37.06-41.35-83.61-80.31-122.34-93.22-70.6-23.53-343.38-17.44-470.77.72-92.61,13.2-235.23,120.62-235.23,120.62,0,0-92.31,19.85-141.03,32.77-14.05,3.73-39.81,15.19-50.43,25.52-12.48,12.14-22.49,29.2-29.88,51.71-13.17,40.15-16.43,77.83-12.18,107.66h0s-4.18,11.08-2.3,25.31c1.36,10.28,11.89,17.1,27.44,22.28,1.37.49,2.81.96,4.37,1.42.27.08.58.17.89.26,4.61,1.42,9.62,2.84,14.96,4.37,0,0,0,0,0,0,44.48,12.78,160.04,43.94,260.14,47.37,116.67,4,244-8,422.67-23.33,80.69-6.92,169.27-17.52,242.15-27.06,60.54-7.92,122.56-15.86,155.7-20.09,1.74-.22,2.75-.48,5.04-1.11,0,0,0,0,0,0,0,0,14.91-5.08,20.14-21.62,6.02-19.04-2.36-169.97-23.1-212.78Z"/>
        <path class="cls-10" d="M1179.31,135.49c2.41,16.73,6.43,33.86,17.6,47.08,2.84,3.37,6.1,6.35,9.71,8.87.95.67,1.85-.89.91-1.55-13.36-9.36-20.34-24.74-23.86-40.21-1.1-4.84-1.91-9.75-2.62-14.66-.16-1.14-1.9-.66-1.74.48h0Z"/>
        <path class="cls-10" d="M117.91,250.54c.61,7.93,4.5,15.12,10.12,20.65,5.13,5.05,11.35,8.24,18.01,10.78,12.85,4.91,26.33,8.22,39.78,11.02,15.25,3.18,30.67,5.59,46.17,7.19,13.12,1.35,26.46,2.3,39.65,1.42,8.73-.59,17.66-2.43,25.72-5.91,3.43-1.48,6.44-3.89,9.14-6.44,3.12-2.94,5.91-6.24,8.35-9.76,1.16-1.67,2.22-3.4,3.17-5.2.54-1.02-1.01-1.93-1.55-.91-3.75,7.09-9.33,13.91-15.97,18.47-3.3,2.27-7.11,3.57-10.92,4.7-4.42,1.31-8.96,2.27-13.53,2.83-6.02.74-12.14.79-18.19.68-6.82-.13-13.63-.56-20.42-1.16-15.08-1.34-30.09-3.53-44.95-6.4-13.65-2.64-27.28-5.81-40.45-10.29-5.92-2.01-11.93-4.18-17.14-7.72-6.45-4.39-11.87-10.73-14.12-18.29-.55-1.85-.9-3.73-1.04-5.65-.09-1.15-1.89-1.16-1.8,0h0Z"/>
        <path class="cls-10" d="M375.2,365.84c-2.76-10.3,4.03-20.06,12.79-24.92,1.01-.56.11-2.12-.91-1.55-9.48,5.26-16.59,15.87-13.62,26.95.3,1.12,2.04.64,1.74-.48h0Z"/>
        <path class="cls-10" d="M72.15,298.14c4.9,5.18,8.12,11.85,9.07,18.92.15,1.13,1.95,1.15,1.8,0-1.01-7.57-4.34-14.64-9.59-20.19-.8-.84-2.07.43-1.27,1.27h0Z"/>
        <path class="cls-10" d="M90.75,230.6c.53,16.93,1.51,33.85,3.28,50.7,1.62,15.4,3.88,30.76,7.24,45.89,1.76,7.92,3.83,15.76,6.3,23.49.35,1.1,2.09.63,1.74-.48-4.45-13.94-7.61-28.27-9.99-42.7-2.62-15.93-4.27-32.02-5.37-48.12-.65-9.58-1.1-19.18-1.4-28.77-.04-1.16-1.84-1.16-1.8,0h0Z"/>
        <path class="cls-1" d="M130.09,249.82c-2.93-8.93-3.99-18.45-3.2-27.81.5-5.97,1.77-11.88,3.81-17.51-5.28-1.54-10.51-3.32-15.57-5.44-1.74-.73-3.46-1.52-5.13-2.4-9.49,9.36-17.53,21.59-24.07,36.93.04.03.08.06.12.09,8,5.94,16.92,10.66,26.32,13.98,6.05,2.14,12.27,3.63,18.58,4.56-.29-.8-.6-1.59-.86-2.4Z"/>
        <path class="cls-10" d="M1211.2,378.5c11.35-11.27,11.09-25.28,11.19-40.14.13-20.52-.98-41.07-2.53-61.53-1.77-23.4-4.24-46.78-7.97-69.96-2.88-17.87-6.01-36.49-13.08-53.26-5.69-13.49-17.5-21.88-30.25-28.25-12.33-6.16-25.36-11.11-38.08-16.41-.73-.3-1.42.71-1.02,1.32,0,0,0,.01.01.02.47-.36.94-.73,1.41-1.09-20.61-22.9-43.02-44.4-67.78-62.79-18.13-13.46-38.08-26.06-60.02-32.2-29.55-8.28-61.38-9.86-91.85-11.54-90.92-5.03-182.63-2.5-273.42,3.77-21.09,1.46-42.16,3.2-63.18,5.41-17.48,1.84-35.27,3.43-52.43,7.37-42.36,9.74-82.29,30.44-119.75,51.92-30.64,17.57-60.36,36.83-89.1,57.35-3.58,2.56-8.86,7.45-12.35,8.73-4.02,1.47-8.8,1.91-12.97,2.82-8.11,1.77-16.21,3.56-24.31,5.37-22.59,5.03-45.15,10.17-67.65,15.57-20.91,5.02-41.91,9.52-61.4,18.87-10.28,4.93-20.32,10.63-28.13,19.08-8.17,8.84-14.54,19.2-19.58,30.11-12.71,27.53-19.38,59.07-20.95,89.28-.65,12.55-.22,25.09,1.49,37.54l1.32-1.02h0c-.52-.35-1.14.03-1.32.54-3.17,8.66-4.06,19.78-1.66,28.65.3,1.12,2.04.64,1.74-.48-1.75-6.47-1.34-13.82-.2-20.37.29-1.67.66-3.33,1.12-4.95.13-.47.52-1.16.49-1.65-.1-1.64,1.14,1.33-1.07-.18.73.5,1.42-.32,1.32-1.02-4.12-29.96-.62-60.72,7.05-89.83,6.81-25.85,17.19-56.12,39.66-72.75,18.66-13.81,41.1-20.32,63.27-25.84,21.81-5.43,43.7-10.49,65.62-15.45,16.61-3.76,33.24-7.45,49.88-11.07,5.17-1.12,7.49-1.64,11.59-4.64,23.58-17.27,47.97-33.48,72.89-48.75,37.25-22.83,76.21-44.35,117.66-58.58,36.04-12.37,74.63-14.89,112.36-18.03C699.11,2.93,789.81.18,879.96,3.11c34.7,1.13,69.84,2.69,104.09,8.74,15.52,2.74,30.01,7.15,44.09,14.44,25.64,13.28,48.52,31.84,69.52,51.48,11.13,10.42,21.76,21.36,31.96,32.69.68.75,1.98-.23,1.41-1.09,0,0,0-.01-.01-.02l-1.02,1.32c10.9,4.54,21.89,8.95,32.64,13.84,13.16,5.99,27.16,13.92,33.55,27.55,7.28,15.54,10.27,33.45,13.13,50.22,7.16,42.01,10.75,85.08,11.25,127.69.19,16.43,2.02,34.68-10.63,47.24-.82.82.45,2.09,1.27,1.27h0Z"/>
        <path class="cls-10" d="M294.57,377.44c7.9-14.92,16.51-29.46,25.81-43.55,9.37-14.2,19.42-27.94,30.12-41.16,5.99-7.4,12.19-14.63,18.57-21.69.78-.86-.49-2.13-1.27-1.27-11.37,12.58-22.14,25.71-32.25,39.32-10.14,13.66-19.63,27.82-28.4,42.4-4.94,8.22-9.66,16.57-14.14,25.05-.54,1.02,1.01,1.93,1.55.91h0Z"/>
        <path class="cls-10" d="M1195.03,349.61c10.57-1.83,20.59-7.76,26.4-16.9.62-.98-.93-1.88-1.55-.91-5.58,8.76-15.22,14.32-25.33,16.07-1.14.2-.66,1.93.48,1.74h0Z"/>
        <path class="cls-10" d="M688.43,404.77c50.44-4.8,100.87-9.61,151.31-14.41,50.18-4.78,100.36-9.56,150.54-14.34,28.16-2.68,56.32-5.36,84.49-8.05,1.14-.11,1.15-1.91,0-1.8-50.44,4.8-100.87,9.61-151.31,14.41-50.18,4.78-100.36,9.56-150.54,14.34-28.16,2.68-56.32,5.36-84.49,8.05-1.14.11-1.15,1.91,0,1.8h0Z"/>
        <path class="cls-1" d="M453.06,207.12c-11.58,3.4-23.74,5.61-35.48,8.42-11.8,2.82-24.35,4.25-36.35,6.08-11.92,1.82-30.56,3.22-55.72,3.71-5.81,16.04-15.82,30.78-24.49,45.52,1.28.2,2.57.42,3.86.6,7.49,1.07,15,1.82,22.52,2.25,15.19.88,30.4.47,45.45-1.21,14.85-1.66,29.71-4.41,43.99-8.77,6.82-2.09,13.55-4.75,19.53-8.8,5.83-3.94,10.77-9.14,15.3-14.65,8.08-9.84,15.33-20.44,22.02-31.42,1.3-2.77,2.61-5.54,3.94-8.3-8.91,2.8-15.58,3.95-24.54,6.58Z"/>
        <path class="cls-10" d="M617,269.81c-53.44,5.2-80.22,69.69-77.4,152.35,0,0,0,0,0,.01.18,20.67-4.71,28.86-15.28,32.24,5.79-.3,4.13,8.04,10.03,7.69,0,0,5.54,2.15,5.54,2.15,20.36-1.19,43.37-13.43,65.2-15.05,29.66-2.2,60.81-4.75,93.79-7.54,1.9-16.39,5.31-80.21-11.59-121.52-11.62-28.42-35.18-53.75-70.29-50.33Z"/>
        <path class="cls-10" d="M1119.89,216.63c-52.04,3.95-72.3,62.69-79.14,155.15,0,0,0,0,0,.01.17,20.66-4.57,32.37-14.82,36.09,5.61-.49,24.95,5.48,30.68,4.94,0,0,83.06-20.05,138.59-26.8,5.57-60.06-4.9-174.74-75.31-169.4Z"/>
        <path class="cls-10" d="M313.13,136.8s150.76,18.49,270.76,13.15c0,0,102.15-89.54,119.08-109.44,9.59-11.27,3.71-16.75-29.54-17.95-48.41-1.74-129.03,0-171.23,7.54-14.03,2.51-38.77,12.31-92.46,42-36.57,20.22-96.61,64.69-96.61,64.69Z"/>
        <path class="cls-10" d="M633.7,152.1c-5.51-1.46-7.57-8.2-3.8-12.49,18.42-20.96,64.07-72.36,81.7-87.33,30.11-25.56,62.03-26.46,100.37-28.56,38.33-2.1,138.79-1.52,174.46,3.15,34.47,4.51,84.05,38.82,119.11,92.14,1.89,2.88.55,6.78-2.71,7.88-12.58,4.24-43.25,13.26-85.09,16.6-55.56,4.44-193.54,18.67-321.74,17.23-26.38-.3-49.22-5.14-62.29-8.61Z"/>
        <path class="cls-10" d="M477.82,201.33c13.8-4.59,27.39-9.79,40.77-15.51,14.05-6,27.85-12.57,41.44-19.55,8.08-4.15,16.08-8.46,24.02-12.88,1.01-.56.11-2.12-.91-1.55-13.76,7.67-27.71,14.98-41.92,21.77-13.41,6.41-27.03,12.37-40.9,17.73-7.59,2.94-15.25,5.69-22.97,8.26-1.09.36-.63,2.1.48,1.74h0Z"/>
        <path class="cls-10" d="M649.82,156.52c4.2,25.77,6.88,51.77,8.03,77.86.32,7.39.52,14.78.6,22.18.01,1.16,1.81,1.16,1.8,0-.29-26.33-2.12-52.64-5.51-78.75-.94-7.27-2.01-14.52-3.19-21.76-.19-1.14-1.92-.66-1.74.48h0Z"/>
        <path class="cls-10" d="M864.71,153.92c2.14,14.04,4.02,28.12,5.67,42.23,1.71,14.56,3.18,29.14,4.46,43.74,1.32,15.05,2.45,30.12,3.41,45.2.99,15.48,1.81,30.97,2.49,46.47.7,15.84,1.25,31.68,1.69,47.53.06,1.98.11,3.97.16,5.95.03,1.16,1.83,1.16,1.8,0-.42-15.96-.94-31.92-1.61-47.87-.65-15.61-1.44-31.22-2.4-46.82-.93-15.13-2.02-30.25-3.3-45.36-1.25-14.73-2.69-29.44-4.36-44.12-1.61-14.13-3.43-28.24-5.51-42.31-.25-1.7-.51-3.41-.77-5.11-.17-1.14-1.91-.66-1.74.48h0Z"/>
        <path class="cls-10" d="M1044.32,139.81c5.93,23.1,10.36,46.59,13.27,70.26.82,6.71,1.53,13.44,2.11,20.17.1,1.15,1.9,1.16,1.8,0-2.08-23.91-5.65-47.7-10.76-71.16-1.44-6.61-3.01-13.2-4.69-19.76-.29-1.12-2.02-.65-1.74.48h0Z"/>
        <path class="cls-10" d="M688.54,397.47c-1.55,62.49-32.11,113.15-68.26,113.15s-64.18-50.66-62.63-113.15,32.11-113.15,68.26-113.15,64.18,50.66,62.63,113.15Z"/>
        <path class="cls-5" d="M610.59,508.45c-11.5-3.09-20.92-11.2-27.97-20.55-8.96-11.89-14.76-25.99-18.53-40.31-4.55-17.31-6.16-35.36-5.44-53.22.71-17.48,3.69-34.96,9.42-51.51,4.79-13.84,11.56-27.36,21.27-38.43,7.65-8.73,17.46-16.11,29.03-18.46,10.88-2.21,21.86.71,30.89,6.98,10.63,7.37,18.31,18.46,23.91,29.95,7.07,14.5,11.15,30.44,13.12,46.4,2.36,19.15,1.8,38.77-1.66,57.75-.84,4.59-1.86,9.15-3.05,13.67-.3,1.12,1.44,1.6,1.74.48,5.12-19.36,7-39.61,5.88-59.59-.96-17.05-4.12-34.15-10.32-50.1-4.98-12.83-12-25.33-22.14-34.8-8.35-7.81-19-13.23-30.61-13.3-11.67-.07-22.48,5.24-31.14,12.79-10.69,9.32-18.44,21.78-24.13,34.65-6.97,15.77-11.08,32.72-12.98,49.82-2.04,18.44-1.54,37.24,1.82,55.49,2.88,15.63,7.9,31.16,16.12,44.84,6.45,10.74,15.21,20.8,26.66,26.33,2.45,1.18,5,2.15,7.63,2.85,1.12.3,1.6-1.43.48-1.74h0Z"/>
        <path class="cls-10" d="M548.78,401.49c-33.49,2.41-66.98,5.07-100.53,6.67-32.23,1.53-64.5,1.84-96.75.8-31.57-1.02-63-3.5-94.31-7.68-31.84-4.26-63.51-9.95-94.81-17.18-28.34-6.54-56.52-14.28-83.8-24.44-3.02-1.12-6.02-2.28-9.01-3.47-1.08-.43-1.54,1.31-.48,1.74,26.52,10.56,54.07,18.52,81.78,25.29,31.08,7.59,62.55,13.57,94.21,18.17,30.58,4.45,61.33,7.51,92.21,8.84,33.12,1.42,66.27,1.55,99.4.24,32.74-1.29,65.41-3.78,98.08-6.16,4.67-.34,9.34-.68,14.02-1.02,1.15-.08,1.16-1.88,0-1.8h0Z"/>
        <path class="cls-10" d="M130.7,204.5c-4.31,9.7-5.5,21.45-4.7,31.39.79,9.94,4.16,20.01,11.19,27.07,9.72,9.76,23.47,12.6,36.95,15.4,23.75,4.92,44.25,8.22,68.78,11.09,12.22,1.43,30.35,2.07,41.81-2.43,11.84-4.65,20.3-13.19,26.42-24.35,6.12-11.16,9.25-25.4,14.36-37.36,0,0-47.35-1.5-64.04-2.74-16.69-1.24-75.89-7.7-96.16-11.38-20.27-3.67-34.61-6.7-34.61-6.7Z"/>
        <path class="cls-10" d="M315.28,408.1c-2.39-26.61-20.42-51.54-45.72-60.91-24.33-9.02-57-14.68-87.65-18.96-29.18-4.07-38.77-4.92-55.58-1.72-16.81,3.2-28.62,19.64-33.19,39.26,0,0,35.12,13.37,101.45,26.27,64.83,12.6,120.69,16.07,120.69,16.07Z"/>
        <path class="cls-10" d="M371.15,338.38c-4.98,4.39-8.97,10.56-10.7,17.01-1.6,5.96-.77,12.93,3.98,17.26,4.36,3.99,10.66,4.82,16.33,4.32,6.67-.58,13.26-2.8,19.29-5.65,6.32-2.99,12.21-6.97,17.29-11.78,4.73-4.47,8.98-10.14,9.57-16.83.38-4.27-.96-8.8-3.57-12.19-3.31-4.3-8.21-5.94-13.48-6.12-12.22-.41-24.9,3.75-34.79,10.86-1.36.98-2.67,2.02-3.93,3.11-.88.76.4,2.03,1.27,1.27,8.94-7.73,20.64-12.46,32.41-13.33,4.87-.36,10.21-.36,14.34,2.61,3.4,2.45,5.43,6.53,5.89,10.64.63,5.62-2.04,10.91-5.58,15.11-4.16,4.93-9.46,9-15,12.26-5.64,3.32-11.77,5.79-18.14,7.3-5.34,1.26-11.32,1.75-16.52-.31-5.68-2.25-8.56-7.73-8.32-13.7.25-6.21,3.61-12.47,7.55-17.14,1.04-1.23,2.16-2.37,3.37-3.43.87-.77-.41-2.04-1.27-1.27Z"/>
        <path class="cls-10" d="M68.62,329.94c4.18,1.54,8.9,2.49,13.24.99,4.59-1.58,7.41-5.68,8.42-10.31,2.31-10.65-3.17-21.57-9.58-29.75-2.3-2.93-4.79-5.73-7.34-8.44-.79-.85-2.06.43-1.27,1.27,5.08,5.42,9.84,11.09,13.2,17.76,2.38,4.72,3.92,9.88,3.69,15.2-.19,4.59-1.83,9.55-6.1,11.87-4.29,2.34-9.44,1.26-13.77-.33-1.09-.4-1.56,1.34-.48,1.74h0Z"/>
        <path class="cls-1" d="M720.54,144.68c-.66-7.68-6.54-20.25-14.05-23.36-2.63-1.09-5.56-1.19-8.41-1.2-19.39-.05-38.99,3.55-57.42,9.48-4.29,1.38-8.71,3.02-11.76,6.34-4.12,4.48-4.87,11.01-5.43,17.07-.38,4.17-.76,8.4-.03,12.52.74,4.12,2.74,8.19,6.22,10.52,3.89,2.59,8.77,4.45,13.44,4.4,12.43.79,24.99,1.58,37.29-.44,12.29-2.02,24.47-7.13,32.76-16.43,4.62-5.19,7.98-11.95,7.38-18.87Z"/>
        <path class="cls-10" d="M714.78,160.45c-12.2,15.07-33.28,17.9-51.41,19.11-5.09.34-10.19.48-15.29.43-4.49-.05-9.36.04-13.53-1.86-7.96-3.63-10.38-14.09-10.69-22.01-.38-9.52,3.53-19.7,12.77-23.68,1.06-.46.15-2.01-.91-1.55-8.16,3.51-12.72,12-13.54,20.54-.47,4.84.13,9.83,1.42,14.5,1.11,4.02,2.91,8.05,5.97,10.97,3.3,3.15,7.67,4.29,12.11,4.66,5.21.43,10.51.3,15.72.11,10.6-.39,21.45-1.35,31.74-4.03,10.22-2.66,20.16-7.58,26.91-15.92.72-.89-.54-2.17-1.27-1.27h0Z"/>
        <path class="cls-10" d="M632.81,132.53c-5.09,2.59-10.17,5.22-15.1,8.11-2.41,1.42-4.79,2.9-7.08,4.51-2.24,1.58-4.54,3.22-6.29,5.35-3.49,4.24-4,10.08-3.26,15.34.32,2.31.99,4.65,2.45,6.51,1.52,1.95,3.73,3.03,6.16,3.37,2.85.4,5.64-.2,8.43-.71,3.09-.56,6.17-1.09,9.24-1.76,1.13-.25.65-1.98-.48-1.74-2.48.54-4.97,1-7.46,1.44-2.32.41-4.66.99-7.03,1.08-2.39.1-4.93-.3-6.73-2.01-1.65-1.56-2.38-3.83-2.74-6.02-.83-5.03-.36-10.89,3.19-14.82,3.31-3.66,7.97-6.32,12.18-8.82,5.03-2.98,10.22-5.67,15.43-8.31,1.03-.52.12-2.08-.91-1.55h0Z"/>
        <path class="cls-10" d="M370.72,271.91c11.13-3.98,21.58-9.73,30.94-16.94,9.29-7.16,17.48-15.68,24.25-25.26,3.86-5.47,7.24-11.27,10.08-17.34.49-1.04-1.06-1.96-1.55-.91-4.92,10.51-11.46,20.22-19.32,28.76-7.86,8.53-16.99,15.88-27.04,21.68-5.68,3.28-11.65,6.05-17.83,8.26-1.08.39-.62,2.13.48,1.74h0Z"/>
        <path class="cls-10" d="M343.44,226.82c-.65,7.96,4.3,15.55,11.27,19.13,7.52,3.87,16.55,3.48,24.27.4,4.58-1.82,8.74-4.46,12.58-7.53.91-.72-.38-1.99-1.27-1.27-6.19,4.94-13.62,8.88-21.66,9.36-7.6.46-15.53-2.19-20.07-8.58-2.39-3.37-3.66-7.39-3.32-11.52.09-1.15-1.71-1.15-1.8,0h0Z"/>
        <path class="cls-10" d="M507.79,404.62c1.65-16.67,4.47-33.26,8.94-49.42,4.18-15.11,9.8-29.85,17.26-43.66,7.02-12.99,15.65-24.9,26.85-34.6,10.38-8.99,22.56-15.94,35.64-20.12,12.58-4.02,25.95-5.47,39.09-3.98,9.77,1.11,19.15,3.93,27.75,8.71,8.37,4.66,15.8,10.85,22.21,17.95,7.34,8.13,13.31,17.43,18.08,27.27,5.61,11.56,9.55,23.9,12.18,36.47,3.11,14.87,4.37,30.08,4.27,45.26-.03,4.1-.16,8.21-.37,12.31-.06,1.16,1.74,1.15,1.8,0,.84-16.02.3-32.12-2.15-47.99-2.06-13.37-5.48-26.57-10.66-39.08-4.42-10.69-10.09-20.86-17.24-29.98-6.17-7.87-13.47-14.9-21.8-20.45-7.44-4.95-15.73-8.7-24.46-10.66-13.11-2.94-26.8-2.86-39.92-.04-13.46,2.89-26.27,8.65-37.49,16.61-11.86,8.42-21.85,19.21-29.58,31.52-8.32,13.24-14.78,27.6-19.71,42.42-5.28,15.9-8.8,32.35-11.05,48.94-.56,4.16-1.05,8.34-1.46,12.52-.11,1.15,1.69,1.14,1.8,0h0Z"/>
        <path class="cls-10" d="M1020.35,370.23c.21-17.44,1.5-34.89,4.39-52.1,2.68-15.97,6.71-31.75,12.55-46.87,5.45-14.13,12.65-27.46,22.77-38.82,8.87-9.94,19.63-18.2,31.77-23.74,11.25-5.14,23.64-7.83,36.02-7.44,8.96.29,17.83,2.36,25.84,6.43,8.09,4.1,15.09,10.03,20.91,16.96,6.68,7.95,11.81,17.16,15.83,26.7,4.86,11.52,8.17,23.67,10.55,35.92,2.82,14.58,4.29,29.41,4.89,44.25.16,3.99.26,7.98.31,11.97.01,1.16,1.81,1.16,1.8,0-.17-15.67-1.2-31.34-3.56-46.84-1.99-13.07-4.93-26.05-9.41-38.5-3.73-10.37-8.54-20.46-14.98-29.43-5.47-7.62-12.13-14.43-20.05-19.51-7.59-4.87-16.19-7.98-25.12-9.17-11.67-1.56-23.72-.14-34.86,3.54-12.59,4.16-24.12,11.21-33.88,20.16-10.87,9.97-19.51,22.26-25.72,35.61-6.84,14.7-11.67,30.35-15.07,46.18-3.63,16.93-5.6,34.21-6.39,51.5-.2,4.4-.32,8.81-.37,13.21-.01,1.16,1.79,1.16,1.8,0h0Z"/>
        <path class="cls-10" d="M1191.46,341.76c-1.54,61.93-31.83,112.14-67.64,112.14s-63.61-50.2-62.07-112.14c1.54-61.93,31.83-112.14,67.64-112.14s63.61,50.2,62.07,112.14Z"/>
        <path class="cls-5" d="M1114.21,451.74c-11.43-3.07-20.78-11.14-27.77-20.44-8.86-11.79-14.6-25.75-18.32-39.94-4.5-17.14-6.08-35.01-5.37-52.7.71-17.38,3.68-34.75,9.4-51.2,4.76-13.7,11.49-27.08,21.12-38.02,7.64-8.68,17.46-16,29.02-18.24,10.77-2.08,21.59.91,30.47,7.14,10.55,7.41,18.16,18.51,23.69,29.98,6.96,14.43,10.95,30.28,12.85,46.15,2.28,19.03,1.66,38.51-1.86,57.36-.86,4.59-1.9,9.15-3.12,13.66-.3,1.12,1.43,1.6,1.74.48,5.19-19.2,7.14-39.3,6.1-59.15-.89-17-3.97-34.05-10.09-49.97-4.92-12.8-11.86-25.29-21.93-34.77-8.23-7.75-18.72-13.18-30.19-13.35-11.65-.17-22.46,5.08-31.1,12.59-10.6,9.21-18.3,21.54-23.95,34.29-6.93,15.61-11.01,32.4-12.91,49.35-2.05,18.32-1.56,37.01,1.78,55.15,2.85,15.48,7.82,30.85,15.95,44.41,6.38,10.64,15.05,20.61,26.38,26.11,2.45,1.19,5,2.15,7.63,2.86,1.12.3,1.6-1.43.48-1.74h0Z"/>
        <path class="cls-5" d="M842.14,23.97c3.89,16.64,7.34,33.39,10.43,50.2,3.13,17.01,5.89,34.09,8.32,51.21,1.37,9.64,2.63,19.29,3.79,28.96.14,1.14,1.94,1.15,1.8,0-2.05-17.11-4.42-34.19-7.13-51.21-2.74-17.2-5.82-34.35-9.31-51.42-1.93-9.43-3.98-18.84-6.17-28.22-.26-1.13-2-.65-1.74.48h0Z"/>
        <path class="cls-5" d="M1023.48,40.85c7.33,25.21,12.91,50.87,17.31,76.74,1.26,7.39,2.42,14.79,3.53,22.21.17,1.14,1.9.66,1.74-.48-3.87-25.93-8.56-51.75-14.94-77.18-1.83-7.29-3.8-14.55-5.89-21.77-.32-1.11-2.06-.64-1.74.48h0Z"/>
        <path class="cls-6" d="M671.09,397.47c-1.14,45.82-23.55,82.97-50.05,82.97s-47.06-37.15-45.93-82.97c1.14-45.82,23.55-82.97,50.05-82.97s47.06,37.15,45.93,82.97Z"/>
        <path class="cls-10" d="M630.92,397.47c-.15,4.52-1.38,10.58-5.47,13.28-3.77,2.48-7.11-.89-8.59-4.27-2.17-4.97-2.08-11.11-.3-16.18,1.15-3.27,4.19-8.28,8.4-6.75,2.13.77,3.52,2.92,4.38,4.9,1.23,2.82,1.63,5.96,1.58,9.01-.02,1.16,1.78,1.16,1.8,0,.09-5.15-1.13-12.1-5.95-15.02-4.45-2.7-8.82.9-10.85,4.83-2.83,5.5-3.24,12.61-1.26,18.45,1.39,4.1,4.97,9.03,9.95,7.42,2.55-.82,4.41-3.05,5.62-5.35,1.67-3.17,2.39-6.77,2.5-10.33.04-1.16-1.76-1.16-1.8,0Z"/>
        <path class="cls-10" d="M663.97,397.47c-.37,14.07-2.95,28.3-8.58,41.26-4.31,9.91-10.61,19.85-19.94,25.72-7.7,4.85-17.05,5.78-25.27,1.61-9.32-4.73-15.6-14.03-19.77-23.32-5.56-12.39-7.93-26.18-8.19-39.69-.28-14.35,1.8-28.88,6.8-42.36,3.91-10.55,9.83-21.13,18.84-28.16,7.19-5.62,16.4-8.07,25.18-4.94,9.48,3.38,16.25,11.93,20.78,20.56,6.17,11.74,9.09,25.12,9.94,38.28.23,3.68.3,7.36.21,11.04-.03,1.16,1.77,1.16,1.8,0,.34-14.39-1.6-29.09-6.89-42.54-3.97-10.07-10.03-20.16-19.35-26.12-8.03-5.13-17.78-5.79-26.39-1.69-9.9,4.71-16.96,14.2-21.79,23.75-6.39,12.63-9.64,26.76-10.63,40.83-1.03,14.63.34,29.68,4.94,43.65,3.52,10.71,9.13,21.61,18.15,28.72,7.44,5.87,16.99,8.21,26.1,5.06,10.06-3.48,17.56-12.08,22.78-21.03,6.95-11.91,10.7-25.58,12.29-39.2.44-3.79.7-7.6.8-11.42.03-1.16-1.77-1.16-1.8,0Z"/>
        <path class="cls-10" d="M644.89,457.22c-8.22-14.31-14.05-29.9-17.26-46.09-.23-1.14-1.96-.65-1.74.48,3.24,16.33,9.15,32.08,17.45,46.52.58,1,2.13.1,1.55-.91h0Z"/>
        <path class="cls-10" d="M614.49,404.42c-10.63,10.77-19.54,23.18-26.33,36.71-.52,1.03,1.03,1.95,1.55.91,6.72-13.4,15.52-25.68,26.05-36.35.81-.83-.46-2.1-1.27-1.27h0Z"/>
        <path class="cls-10" d="M626.46,383.1c3.57-14.53,5-29.59,4.45-44.54-.16-4.29-.49-8.57-.99-12.84-.13-1.14-1.93-1.15-1.8,0,1.73,14.86,1.45,30-.94,44.78-.66,4.07-1.48,8.11-2.46,12.12-.28,1.12,1.46,1.6,1.74.48h0Z"/>
        <path class="cls-10" d="M631.54,401.04c11.29,1.75,22.82.35,33.57-3.39,1.09-.38.62-2.12-.48-1.74-10.43,3.63-21.65,5.09-32.61,3.39-1.13-.18-1.62,1.56-.48,1.74h0Z"/>
        <path class="cls-10" d="M615.84,391.41c-7.61-10.42-17.96-18.52-29.54-24.11-1.04-.5-1.95,1.05-.91,1.55,11.29,5.45,21.48,13.3,28.9,23.46.68.93,2.24.03,1.55-.91h0Z"/>
        <path class="cls-6" d="M1170.68,341.79c-1.05,42.09-21.63,76.22-45.98,76.22s-43.23-34.12-42.19-76.22c1.05-42.09,21.63-76.22,45.98-76.22s43.23,34.12,42.19,76.22Z"/>
        <path class="cls-10" d="M1133.71,341.79c-.14,4.14-1.26,9.68-5.01,12.15-3.49,2.29-6.56-.99-7.85-4.1-1.88-4.52-1.8-10.01-.2-14.59,1.03-2.95,3.77-7.53,7.58-6.19,1.91.67,3.17,2.56,3.96,4.32,1.19,2.62,1.56,5.55,1.51,8.41-.02,1.16,1.78,1.16,1.8,0,.08-4.76-1.04-11.09-5.46-13.83-4.11-2.55-8.2.74-10.09,4.38-2.64,5.08-3.03,11.69-1.18,17.09,1.29,3.77,4.57,8.27,9.15,6.85,5.64-1.74,7.41-9.4,7.58-14.49.04-1.16-1.76-1.16-1.8,0Z"/>
        <path class="cls-10" d="M1164.07,341.79c-.34,12.89-2.7,25.92-7.84,37.79-3.95,9.11-9.74,18.27-18.32,23.67-7.05,4.43-15.6,5.31-23.12,1.5-8.53-4.32-14.28-12.81-18.11-21.3-5.15-11.43-7.34-24.17-7.57-36.65-.24-13.13,1.67-26.42,6.25-38.76,3.58-9.66,9-19.35,17.23-25.8,6.57-5.15,14.99-7.43,23.04-4.59,8.76,3.09,15.01,11.02,19.18,18.99,5.63,10.76,8.3,23.02,9.06,35.07.21,3.36.27,6.73.19,10.09-.03,1.16,1.77,1.16,1.8,0,.31-13.21-1.46-26.72-6.32-39.07-3.67-9.32-9.28-18.66-17.93-24.13-7.36-4.66-16.27-5.24-24.15-1.51-9.13,4.32-15.65,13.07-20.1,21.87-5.86,11.59-8.85,24.55-9.77,37.46-.96,13.49.3,27.36,4.55,40.24,3.25,9.87,8.43,19.9,16.75,26.43,6.84,5.37,15.62,7.5,23.98,4.6,9.23-3.2,16.12-11.08,20.92-19.29,6.42-10.97,9.87-23.57,11.33-36.13.4-3.47.64-6.97.73-10.46.03-1.16-1.77-1.16-1.8,0Z"/>
        <path class="cls-10" d="M1146.68,396.64c-7.55-13.14-12.9-27.45-15.85-42.32-.23-1.14-1.96-.65-1.74.48,2.98,15.01,8.41,29.48,16.03,42.75.58,1,2.13.1,1.55-.91h0Z"/>
        <path class="cls-10" d="M1118.64,348.13c-9.77,9.9-17.96,21.3-24.2,33.74-.52,1.03,1.03,1.95,1.55.91,6.17-12.3,14.24-23.58,23.91-33.37.81-.83-.46-2.1-1.27-1.27h0Z"/>
        <path class="cls-10" d="M1129.76,328.62c4.22-17.16,5.22-35.13,3.19-52.67-.13-1.14-1.93-1.15-1.8,0,2.02,17.39,1.06,35.19-3.12,52.19-.28,1.12,1.46,1.6,1.74.48h0Z"/>
        <path class="cls-10" d="M1134.33,345.14c10.38,1.61,20.98.33,30.88-3.12,1.09-.38.62-2.12-.48-1.74-9.57,3.33-19.86,4.67-29.92,3.12-1.13-.18-1.62,1.56-.48,1.74h0Z"/>
        <path class="cls-10" d="M1120,336.2c-7-9.58-16.51-17.03-27.16-22.17-1.04-.5-1.95,1.05-.91,1.55,10.36,5,19.7,12.2,26.52,21.53.68.93,2.24.03,1.55-.91h0Z"/>
        <g>
          <path class="cls-10" d="M794.23,204.06c-.63,7.78,7.92,12.01,14.37,13.19,8.25,1.51,18.39.08,24.67-5.93,2.75-2.64,4.25-6.25,3.83-10.08-.13-1.14-1.93-1.15-1.8,0,.79,7.14-5.57,11.56-11.66,13.43-7.35,2.26-16.65,1.99-23.16-2.49-2.73-1.88-4.72-4.69-4.44-8.11.09-1.15-1.71-1.15-1.8,0h0Z"/>
          <path class="cls-10" d="M837.06,200.99c-.59-4.02-4-6.89-7.59-8.36-3.95-1.61-8.34-1.4-12.52-1.33-5.86.09-12.63.38-17.58,3.93-2.88,2.07-4.61,5.1-5.11,8.59-.16,1.13,1.57,1.62,1.74.48.4-2.82,1.58-5.35,3.82-7.17,2.09-1.7,4.74-2.59,7.34-3.15,2.71-.58,5.48-.77,8.24-.85,3.37-.1,6.9-.31,10.23.27,4.26.75,9.01,3.41,9.69,8.07.17,1.14,1.9.66,1.74-.48h0Z"/>
          <path class="cls-10" d="M835.92,200.35c-13.6.94-27.19,1.87-40.79,2.81-1.15.08-1.16,1.88,0,1.8,13.6-.94,27.19-1.87,40.79-2.81,1.15-.08,1.16-1.88,0-1.8h0Z"/>
        </g>
        <g>
          <path class="cls-10" d="M901.44,196.98c-.63,7.78,7.92,12.01,14.37,13.19,8.25,1.51,18.39.08,24.67-5.93,2.75-2.64,4.25-6.25,3.83-10.08-.13-1.14-1.93-1.15-1.8,0,.79,7.14-5.57,11.56-11.66,13.43-7.35,2.26-16.65,1.99-23.16-2.49-2.73-1.88-4.72-4.69-4.44-8.11.09-1.15-1.71-1.15-1.8,0h0Z"/>
          <path class="cls-10" d="M944.27,193.92c-.59-4.02-4-6.89-7.59-8.36-3.95-1.61-8.34-1.4-12.52-1.33-5.86.09-12.63.38-17.58,3.93-2.88,2.07-4.61,5.1-5.11,8.59-.16,1.13,1.57,1.62,1.74.48.4-2.82,1.58-5.35,3.82-7.17,2.09-1.7,4.74-2.59,7.34-3.15,2.71-.58,5.48-.77,8.24-.85,3.37-.1,6.9-.31,10.23.27,4.26.75,9.01,3.41,9.69,8.07.17,1.14,1.9.66,1.74-.48h0Z"/>
          <path class="cls-10" d="M943.13,193.27c-13.6.94-27.19,1.87-40.79,2.81-1.15.08-1.16,1.88,0,1.8,13.6-.94,27.19-1.87,40.79-2.81,1.15-.08,1.16-1.88,0-1.8h0Z"/>
        </g>
        <path class="cls-10" d="M300.78,271.71c27.75,4.43,56.09,4.36,83.86.12,6.84-1.04,13.64-2.35,20.36-3.96,6.53-1.57,13.08-3.34,19.34-5.79,5.79-2.26,11.26-5.18,16.11-9.08,4.96-3.99,9.18-8.78,13.17-13.72,4.72-5.86,9.14-11.95,13.32-18.2,2.12-3.17,4.17-6.37,6.18-9.61,2.06-3.33,3.58-6.95,5.27-10.47.32-.66-.21-1.57-1.02-1.32-5.02,1.57-10.13,2.82-15.24,4.09-5.33,1.33-10.58,2.93-15.9,4.29-5.42,1.39-10.88,2.59-16.34,3.79-5.43,1.19-10.84,2.51-16.27,3.67-10.85,2.32-21.88,3.63-32.83,5.27-7.06,1.06-14.18,1.7-21.3,2.21-11.31.81-22.64,1.21-33.97,1.43-1.16.02-1.16,1.82,0,1.8,17.78-.35,35.68-.95,53.31-3.36,10.3-1.4,20.65-2.8,30.86-4.74,5.53-1.05,10.98-2.42,16.47-3.63,5.46-1.21,10.94-2.37,16.38-3.68,6.1-1.46,12.1-3.31,18.18-4.85,5.73-1.45,11.48-2.8,17.13-4.56l-1.02-1.32c-1.49,3.12-2.79,6.44-4.6,9.39-1.7,2.77-3.43,5.51-5.21,8.23-3.62,5.53-7.42,10.94-11.44,16.18-3.89,5.07-7.93,10.07-12.57,14.48-4.61,4.38-9.84,7.87-15.63,10.5-5.98,2.71-12.33,4.56-18.67,6.22-6.55,1.72-13.18,3.12-19.85,4.26-13.5,2.31-27.19,3.61-40.89,3.86-15.62.29-31.28-.76-46.71-3.23-1.13-.18-1.62,1.55-.48,1.74h0Z"/>
        <g>
          <path class="cls-10" d="M130.94,203.63c-6.98-2.04-14.02-4.37-20.49-7.75-1.03-.54-1.94,1.02-.91,1.55,6.6,3.45,13.79,5.84,20.91,7.93,1.11.33,1.59-1.41.48-1.74h0Z"/>
          <path class="cls-10" d="M85.6,234.46c13.27,9.81,28.81,16.19,45.11,18.63,1.13.17,1.62-1.56.48-1.74-16.18-2.42-31.52-8.72-44.69-18.45-.93-.69-1.83.87-.91,1.55h0Z"/>
        </g>
        <path class="cls-10" d="M338.84,111.22c-7.97-2.44-16.99-4.87-25.28-2.59-8.29,2.27-13.78,9.48-17.42,16.88-2.21,4.5-3.78,9.31-4.6,14.25-.19,1.13,1.55,1.62,1.74.48,1.37-8.26,4.8-16.41,10.22-22.84,2.55-3.03,5.67-5.45,9.46-6.71,3.47-1.16,7.17-1.33,10.79-.99,4.96.47,9.88,1.8,14.63,3.25,1.11.34,1.58-1.4.48-1.74h0Z"/>
      </g>
      <g>
        <path class="cls-11" d="M1093.73,393.85c-1.25-3.78-2.58-7.52-4.02-11.18-.27-.68-.54-1.36-.82-2.04-8.56-20.98-21.15-39.47-44.05-49.86-29.07-13.19-60.24-4.57-76.98,21.44-2.08,3.24-3.99,6.39-5.75,9.5-.21.37-8.49-.25-8.68.12-9.56,19.23-14.33,38.33-19.94,63.33-5.26,23.4-13.71,79.06-21.2,154.16,88.07-21.49,153.79-49.23,200.98-76.4-6.02-41.34-13.21-89.87-19.54-109.07Z"/>
        <path class="cls-10" d="M1001.75,505.42c-.42-9.98-.83-19.97-1.25-29.94-2.94,11.31-15.24,61.61-21.01,84.97,8.21-2.63,16.17-5.31,23.89-8.03-.53-16.85-1.31-39.4-1.63-47Z"/>
        <path class="cls-2" d="M984.54,168.02c24.46-1.34,79.19-8.69,91.67,27.45,12.48,36.14,16.21,154.99,9.96,163.6-6.26,8.61-77.7,10.02-112.66,10.31-17.3.14-23.19-9.19-27.22-20.76-5.35-15.38-20.47-109.34-7.99-145.41,9.65-27.88,20.52-33.77,46.24-35.18Z"/>
        <path class="cls-3" d="M1069.72,114.74c-1.84-4.88-5.73-8.88-10.36-11.22-5.46-2.77-11.77-3.45-17.8-2.88-5.08.48-10.05,1.83-14.7,3.92-9.31,4.18-17.33,11.32-22.45,20.15-1.27,2.19-2.36,4.48-3.25,6.85-1.08,2.88-1.89,5.95-1.85,9.05.04,2.76.79,5.48,2.56,7.63.33.4.7.78,1.09,1.13.97,2.96,2.11,5.87,3.88,8.45,2.04,2.96,5.04,5.47,8.6,6.29,7.14,1.65,13.29-4.67,13.51-11.55.04-1.32-.12-2.62-.41-3.88.85.86,1.78,1.66,2.79,2.34,3.47,2.34,8.02,3.35,12.08,2.11,3.55-1.09,6.31-3.88,7.77-7.24,1.52-3.5,1.65-7.39.47-11.01-.12-.37-.27-.72-.41-1.08,1.23.57,2.54.97,3.93,1.18,2.71.4,5.53.02,7.98-1.25,2.11-1.1,3.87-2.82,5.15-4.82,2.7-4.22,3.18-9.49,1.42-14.16Z"/>
        <path class="cls-7" d="M1020.04,161.43c2.27-.22,5.64,2.97,5.95,5.64,2.38,20.64-18.31,40-18.31,40,0,0-16.62-17.49-16.46-17.54.15-.05,28.82-28.1,28.82-28.1Z"/>
        <path class="cls-2" d="M1025.94,166.76c22.81.64,61.54.9,93.48,25.08s50.15,86.18,58.77,112.65l-110.05,14.29-42.19-152.03Z"/>
        <path class="cls-10" d="M991.46,191.78c2.93,3.38,5.99,6.66,9.22,9.74,1.44,1.37,2.93,2.96,4.82,3.69,1.78.69,3.42.07,4.78-1.16,1.57-1.43,2.87-3.27,4.1-4.99,1.22-1.7,2.33-3.47,3.34-5.3,2.06-3.71,3.71-7.65,5.07-11.67,1.6-4.73,2.78-9.59,3.79-14.48.23-1.13-1.5-1.61-1.74-.48-1.61,7.8-3.67,15.59-7.16,22.79-1.74,3.58-3.82,7.01-6.29,10.13-1.01,1.28-2.54,3.7-4.4,3.68-1.83-.02-3.56-2.07-4.78-3.23-3.34-3.16-6.48-6.53-9.49-10-.76-.88-2.03.4-1.27,1.27h0Z"/>
        <path class="cls-10" d="M1065.62,290.46c26.88-1.7,53.77-3.4,80.65-5.1,7.62-.48,15.23-.96,22.85-1.44,1.15-.07,1.16-1.87,0-1.8-26.88,1.7-53.77,3.4-80.65,5.1-7.62.48-15.23.96-22.85,1.44-1.15.07-1.16,1.87,0,1.8h0Z"/>
        <path class="cls-9" d="M716.57,290.49s28.81,31.74,70.24,70.52c39.28,36.76,73.58,22.53,89.95,5.33,17.46-18.35,43.28-49.23,43.28-49.23l-54.97-52.92-31.48,37.21-77.99-46.86-39.04,35.94Z"/>
        <path class="cls-2" d="M967.38,170.13s-38.37,2.9-63.64,34.89c-26.15,33.1-54.67,71.9-54.67,71.9l81.64,66.29s34.58-74.69,36.09-123.32c.58-18.87.58-49.76.58-49.76Z"/>
        <path class="cls-11" d="M981.18,400.8l-21.36,4.82c-2.47-14.55-4.6-29.15-6.39-43.79-7.61-62.18-9.15-125.11-4.55-187.59,8.67-3.49,19.69-4.64,21.35-4.64-4.89,66.56-2.81,133.63,6.16,199.76,1.42,10.51,3.02,20.99,4.79,31.44Z"/>
        <path class="cls-10" d="M985.38,362.55c-.94,12.37-1.88,24.75-2.3,37.15-.21,6.1-.29,12.21-.18,18.31.08,4.54-.05,9.68,2.36,13.73,2.98,5.01,8.78,5.05,13.91,5.84,1.13.17,1.62-1.56.48-1.74-4.35-.66-9.86-.5-12.58-4.61-2.58-3.9-2.3-9.19-2.38-13.66-.19-11.71.31-23.41,1.06-35.09.42-6.64.93-13.28,1.43-19.92.09-1.16-1.71-1.15-1.8,0h0Z"/>
        <polygon class="cls-11" points="963.74 262.93 1050.99 261.14 1064.35 373.19 966.8 377.02 963.74 262.93"/>
        <path class="cls-10" d="M953.92,363.11c17.97,2.36,36.11,3.35,54.24,3.21,18.29-.14,36.56-1.43,54.7-3.66,10.01-1.23,19.98-2.76,29.9-4.55,1.14-.21.66-1.94-.48-1.74-17.8,3.21-35.75,5.56-53.79,6.89-18.09,1.34-36.27,1.67-54.4.76-10.09-.5-20.16-1.4-30.18-2.71-1.15-.15-1.13,1.65,0,1.8h0Z"/>
        <path class="cls-11" d="M1075.92,401.32l-20.29-2.63c-9.7-57.23-14.19-115.35-13.44-173.39.25-19.3,1.09-38.58,2.5-57.82,6.35.41,13.2,1.07,20.31,2.24-3.35,45.4-3.46,91.04-.36,136.46,2.17,31.87,5.94,63.64,11.28,95.14Z"/>
        <polygon class="cls-10" points="1091.04 393.87 989.31 386.3 1079.93 381.06 1091.04 393.87"/>
        <path class="cls-10" d="M1002.02,371.41c-1.05,20.01-1.79,40.03-2.23,60.07-.44,20.02-.59,40.05-.44,60.07.09,11.1.27,22.19.54,33.28.03,1.16,1.83,1.16,1.8,0-.5-19.87-.68-39.75-.57-59.63.11-20.07.52-40.14,1.23-60.2.4-11.2.89-22.4,1.47-33.6.06-1.16-1.74-1.15-1.8,0h0Z"/>
        <path class="cls-10" d="M1082.02,356.21c2.12,11.7,3.44,23.54,3.9,35.42.39,10.1.88,21.35-5.06,30.09-2.81,4.14-6.9,7.09-11.35,9.26-1.04.51-.13,2.06.91,1.55,4.1-2,7.91-4.66,10.77-8.25,2.99-3.75,4.83-8.24,5.74-12.93,1.07-5.48,1.04-11.09.89-16.65-.16-6.18-.55-12.35-1.17-18.5-.69-6.86-1.66-13.7-2.89-20.48-.21-1.14-1.94-.66-1.74.48h0Z"/>
        <path class="cls-10" d="M1057.27,371.41c3.35,19.6,6.64,39.2,10.17,58.77,3.58,19.85,7.33,39.68,11.88,59.33,2.06,8.91,4.28,17.8,7,26.53.34,1.1,2.08.63,1.74-.48-5.23-16.78-8.85-34.08-12.32-51.3-4.11-20.4-7.74-40.9-11.28-61.41-1.83-10.64-3.63-21.28-5.45-31.91-.19-1.14-1.93-.66-1.74.48h0Z"/>
        <g>
          <path class="cls-4" d="M1087.07,217.44l-111.26,6.2c-2.06.11-3.64,1.88-3.52,3.94l8.9,155.44c.12,2.06,1.88,3.63,3.93,3.51l111.26-6.2c2.06-.11,3.64-1.88,3.52-3.94l-8.9-155.44c-.12-2.06-1.88-3.63-3.93-3.51Z"/>
          <path class="cls-1" d="M982.48,249.05c8.84-.36,28.9-1.69,38.36-2.02,7.03-.25,11.47-1.28,13.85-4.1,3.23-3.85,4.17-7.72,3.44-14.21l-53.97,3.13c-1.49.08-2.64,1.37-2.55,2.86l.87,14.34Z"/>
          <path class="cls-10" d="M981.91,250.34c1.05,17.33,2.09,34.66,3.14,52,1.04,17.26,2.08,34.52,3.12,51.77.59,9.79,1.18,19.57,1.77,29.36.07,1.15,1.87,1.16,1.8,0-1.05-17.33-2.09-34.66-3.14-52-1.04-17.26-2.08-34.52-3.12-51.77-.59-9.79-1.18-19.57-1.77-29.36-.07-1.15-1.87-1.16-1.8,0h0Z"/>
          <path class="cls-10" d="M1038.86,230.08c16.58-1,33.17-2,49.75-3,1.15-.07,1.16-1.87,0-1.8-16.58,1-33.17,2-49.75,3-1.15.07-1.16,1.87,0,1.8h0Z"/>
          <rect class="cls-1" x="1008" y="258.06" width="63.97" height="41.45" rx="4.51" ry="4.51" transform="translate(-14.91 63.16) rotate(-3.45)"/>
          <path class="cls-10" d="M1020.48,272.17c12.66-.76,25.32-1.53,37.98-2.29,1.15-.07,1.16-1.87,0-1.8-12.66.76-25.32,1.53-37.98,2.29-1.15.07-1.16,1.87,0,1.8h0Z"/>
          <path class="cls-10" d="M1021,280.83c12.66-.76,25.32-1.53,37.98-2.29,1.15-.07,1.16-1.87,0-1.8-12.66.76-25.32,1.53-37.98,2.29-1.15.07-1.16,1.87,0,1.8h0Z"/>
          <path class="cls-10" d="M1021.52,289.49c12.66-.76,25.32-1.53,37.98-2.29,1.15-.07,1.16-1.87,0-1.8-12.66.76-25.32,1.53-37.98,2.29-1.15.07-1.16,1.87,0,1.8h0Z"/>
        </g>
        <path class="cls-9" d="M779.31,280.46s-24.93-37.17-31.29-44.91c-6.35-7.74-17.79-9.03-26.96-8.63-9.17.4-29.42.06-34.08,1.15-4.66,1.09-9.71,15.2-11.86,22.59-2.15,7.39.21,23.22,5.85,27.83,5.63,4.6,14.87,9.72,18.66,8.66,3.78-1.05,7.24-10.5,7.24-10.5,0,0,7.9,15.88,23.07,25.26,15.17,9.38,49.38-21.46,49.38-21.46Z"/>
        <path class="cls-10" d="M680.02,239.66c-.71,6.36-.63,12.77.25,19.1.76,5.45,1.88,11.26,5.63,15.5.77.87,2.04-.41,1.27-1.27-3.63-4.11-4.58-10.06-5.25-15.32-.76-5.98-.78-12.03-.11-18.01.13-1.15-1.67-1.14-1.8,0h0Z"/>
        <g>
          <path class="cls-2" d="M686.04,298.68h10.43v29.63c0,1.44-1.17,2.62-2.62,2.62h-5.2c-1.44,0-2.62-1.17-2.62-2.62v-29.63h0Z" transform="translate(35.87 -69.14) rotate(5.88)"/>
          <path class="cls-10" d="M686.63,328.34c2.49-1.78,4.58-4.36,5.39-7.36.36-1.35.38-2.87-.51-4.02-.36-.47-.83-.84-1.33-1.15-.36-.23-.75-.41-1.15-.56-.11-.04-.23-.08-.34-.13-.36-.23-.46-.15-.3.24.61-.18,1.26-.88,1.75-1.26.53-.42,1.07-.85,1.55-1.33.9-.9,1.74-2.09,1.91-3.38.4-3.07-2.46-4.96-5.16-5.07-1.16-.05-1.16,1.75,0,1.8,1.28.06,2.39.43,3.05,1.61.73,1.31.06,2.55-.86,3.55-.75.82-1.67,1.52-2.58,2.15-.8.55-1.77,1.05-1.48,2.21.27,1.07,1.42,1.06,2.26,1.48,1.45.72,1.87,1.83,1.47,3.39-.66,2.52-2.48,4.79-4.57,6.28-.93.67-.04,2.23.91,1.55h0Z"/>
          <path class="cls-10" d="M689.06,261.66h11.23c5.31,0,9.62,4.31,9.62,9.62v22.49c0,2.8-2.27,5.08-5.08,5.08h-20.31c-2.8,0-5.08-2.27-5.08-5.08v-22.49c0-5.31,4.31-9.62,9.62-9.62Z" transform="translate(32.36 -69.68) rotate(5.88)"/>
          <path class="cls-5" d="M685.9,296.28c-1.57-1.57-1.2-3.37-.99-5.31.25-2.39.49-4.78.74-7.16.47-4.57.94-9.14,1.41-13.71.36-3.51,2.69-6.15,6.07-7.14,1.11-.32.64-2.06-.48-1.74-3.93,1.15-6.87,4.28-7.34,8.4-.16,1.42-.29,2.84-.44,4.27-.57,5.58-1.15,11.16-1.72,16.74-.26,2.57-.58,4.87,1.49,6.93.82.82,2.09-.45,1.27-1.27h0Z"/>
        </g>
        <path class="cls-9" d="M722.54,269.65c.3-6.68-2.84-13.16-8.32-17.01-1.37-.97-2.88-1.74-4.45-2.33.09-.3-.14-.74-.57-.69-4.65.47-9.38.91-13.84,2.4-1.85.62-3.72,1.48-5.05,2.95-1.32,1.45-1.96,3.36-1.91,5.31.1,4.17,3.09,7.49,6.66,9.31,2.2,1.12,4.6,1.75,7.01,2.21,2.4.46,4.81.81,7.23,1.1,2.6.31,5.34.75,7.96.48,2.13-.22,4.31-1.18,5.33-3.16.11-.21.06-.42-.06-.57Z"/>
        <path class="cls-10" d="M711.27,273.75c5.38.32,10.76.54,16.15.18,1.15-.08,1.16-1.88,0-1.8-5.39.35-10.77.13-16.15-.18-1.16-.07-1.15,1.73,0,1.8h0Z"/>
        <path class="cls-10" d="M725.7,247.1c-7.89,1.16-15.75,2.6-23.54,4.33-1.93.43-3.86.87-5.78,1.34-1.73.42-3.57.73-5.21,1.44-2.75,1.18-4.11,4.03-4.03,6.93.03,1.16,1.83,1.16,1.8,0-.04-1.42.28-2.85,1.2-3.98,1.05-1.29,2.63-1.64,4.16-2.02,3.48-.87,6.98-1.68,10.48-2.43,7.09-1.52,14.22-2.81,21.39-3.87,1.14-.17.66-1.9-.48-1.74h0Z"/>
        <path class="cls-10" d="M726.52,270.63c-.31,9.89,3.54,19.67,10.47,26.72.81.83,2.09-.45,1.27-1.27-6.61-6.73-10.23-16.02-9.94-25.45.04-1.16-1.76-1.16-1.8,0h0Z"/>
        <path class="cls-10" d="M698.47,243.22c-.08,3,.03,6.01.33,9,.05.48.38.9.9.9.45,0,.95-.41.9-.9-.31-2.99-.42-5.99-.33-9,.03-1.16-1.77-1.16-1.8,0h0Z"/>
        <path class="cls-9" d="M991.21,338.44s84.5,55.21,126.42,71.31c50.08,19.24,69.65-15.89,63.44-51.77-2.9-16.73-11.95-51.69-11.95-51.69l-72.96,4.82.37,6.52-77.42-36.52-27.91,57.32Z"/>
        <path class="cls-10" d="M1108.45,307.95c-5.63-22.15-11.06-44.36-16.27-66.61l4.37,76.31c5.68,2.8,11.26,5.8,16.72,9.01-1.62-6.23-3.23-12.47-4.82-18.71Z"/>
        <path class="cls-9" d="M1031.42,301.57c-.76-10.88-10.83-18.65-21.56-16.66-13.17,2.44-29.72,6.21-38.65,10.91-3.14,1.65-4.54,5.06-4.34,8.29.11,2.92,1.33,5.81,3.15,8.02-1.79,1.16-4.29,3.4-4.49,6.91-.02.43-.02.83,0,1.22.06,3.55,1.77,7.08,4.25,9.42-.43.74-.79,1.63-.98,2.65h0c-.01.06-.01.12-.02.18-.04.25-.07.5-.08.76-.01.15-.02.3-.03.45,0,.05,0,.09,0,.14-.12,5.8,4.26,12.09,10.43,12.33l-.34-4.49c.79.05,23.52-2.78,35.3-5.31,6.29-1.35,18.46-19.39,17.37-34.82Z"/>
        <path class="cls-9" d="M1034.62,288.43s-41.83-20.74-48.52-21.63c-6.69-.89-12.06,5.58-4.7,13.56,7.36,7.98,26.94,24.37,26.94,24.37l26.28-16.3Z"/>
        <path class="cls-10" d="M971.23,312.3c9-3.07,17.97-6.31,27.24-8.48,1.13-.26.65-2-.48-1.74-9.27,2.17-18.24,5.41-27.24,8.48-1.09.37-.62,2.11.48,1.74h0Z"/>
        <path class="cls-10" d="M1096.62,318.71c10.22,5.15,20.28,10.64,30.05,16.61.99.61,1.9-.95.91-1.55-9.77-5.97-19.82-11.46-30.05-16.61-1.03-.52-1.94,1.03-.91,1.55h0Z"/>
        <path class="cls-10" d="M971.58,329.67c8.83-3.17,17.78-5.99,26.89-8.24,1.12-.28.65-2.01-.48-1.74-9.11,2.25-18.07,5.07-26.89,8.24-1.08.39-.62,2.13.48,1.74h0Z"/>
        <path class="cls-10" d="M990.73,289.17c3.76-1.31,7.62-2.29,11.54-2.92.48-.08.75-.67.63-1.11-.14-.51-.63-.71-1.11-.63-3.93.63-7.79,1.61-11.54,2.92-1.09.38-.62,2.12.48,1.74h0Z"/>
        <path class="cls-10" d="M860.95,263.16c20.01,15.45,39.74,31.26,59.19,47.41,5.52,4.59,11.02,9.21,16.5,13.85.88.74,2.16-.52,1.27-1.27-19.45-16.49-39.2-32.64-59.23-48.43-5.59-4.4-11.2-8.77-16.82-13.12-.92-.71-1.81.86-.91,1.55h0Z"/>
        <path class="cls-10" d="M981.81,168.81c-3.3,9-5.31,18.69-5.55,28.29-.03,1.17-.03,2.34,0,3.52.03.95,0,2.02.6,2.82,1,1.34,2.86,1.05,4.14.32,2.41-1.38,4.42-3.66,6.31-5.66,1.74-1.84,3.31-3.9,5.13-5.66.83-.81-.44-2.08-1.27-1.27-1.28,1.24-2.39,2.69-3.59,4-1.88,2.07-3.81,4.15-5.96,5.94-.67.56-1.73,1.55-2.69,1.49-1.15-.07-.88-1.92-.89-2.74-.02-1.18,0-2.35.04-3.53.17-4.5.76-8.99,1.65-13.41.93-4.62,2.19-9.19,3.81-13.61.4-1.09-1.34-1.56-1.74-.48h0Z"/>
        <g>
          <path class="cls-3" d="M994.61,62.85c-9.74-7.88-21.33-10.53-30.54-4.58-9.2,5.95-16.57,19.38-18.6,30.46-.67,3.66-1.03,7.62.55,11.33,1.58,3.71,5.69,6.93,9.4,6.25l12.12-.05c13.38-2.64,21.84-14.03,29.28-24.75,1.98-2.85,4.04-6.01,3.6-9.72-.41-3.44-2.93-6.61-5.81-8.94Z"/>
          <path class="cls-9" d="M1018.51,120.7l-33.42,29.6c-.46,10.71-.27,18.79-.46,30.4,1.48,4.72,3.83,13.3,8.49,10.97,4.66-2.33,16.15-12.49,19.9-16.1,3.53-3.39,7.24-6.9,7.24-8.84,0-3.51-1.82-27.02-1.75-46.03Z"/>
          <path class="cls-9" d="M1032.58,77.55c-3.45-8.36-10.7-14.06-19.38-16.33-11.83-3.1-23.97.42-34.36,7.31-10.19,6.75-17.09,17.55-20.16,28.94-4.66,17.32-7.22,38.97-.14,53.36,4.05,8.24,10.07,9.57,19.19,9.27,9.8-.32,19.13-5.23,26.37-11.74,6.09-5.47,12.46-12.1,16.47-19.11,8.8-15.35,19.28-34.03,11.99-51.7Z"/>
          <path class="cls-1" d="M968.93,137.19l16.39-2.54s1.75,8.89-5.89,10.15c-8.72,1.44-10.5-7.62-10.5-7.62Z"/>
          <path class="cls-3" d="M1003.12,101.19c-.77-1.75-2.98-3.02-4.98-3.9-2.17-.94-4.66-1.56-7.11-1.6-4.12-.06-8.32,2.78-8.07,6.12.06.79.48,1.61,1.28,2.14.97.64,2.32.77,3.55.66,2.67-.23,4.63-.7,7.38-.1,1.96.43,4.43,1.18,6.34.41,1.71-.69,2.23-2.33,1.61-3.74Z"/>
          <path class="cls-3" d="M987.02,73.79c-3.28-2.46-9.3-1.31-12.1.52-7.81,5.11-11.83,14.18-15.36,22.85-.36.17-.72.33-1.09.49-3.42,1.47-7.93,2.01-9.03-3.15-.34-1.6-.1-3.18.23-4.68,1.75-7.95,5.95-15.9,11.03-21.95,4.42-5.27,16.43-14.37,24.81-8.9.31.21.62.43.91.68,3.63,3.1,1.87,10.41.6,14.14Z"/>
          <path class="cls-3" d="M954.11,104.87c1.9.78,4.37.05,6.34-.37,2.76-.59,4.72-.1,7.38.14,1.23.11,2.58-.01,3.55-.64.8-.52,1.23-1.33,1.29-2.13.27-3.35-3.92-6.21-8.04-6.17-2.45.02-4.95.62-7.12,1.56-2.01.86-4.22,2.12-5,3.87-.63,1.41-.11,3.05,1.59,3.75Z"/>
          <path class="cls-3" d="M1039.89,88.05c-.54-3.36-1.47-6.65-2.63-9.84-1.03-2.85-2.22-5.65-3.66-8.31-1.37-2.53-2.99-4.94-4.98-7.03-2.1-2.21-4.59-3.96-7.38-5.17-3.09-1.34-6.42-2.2-9.72-2.81-3.4-.64-6.85-.96-10.31-.98-1.75-.01-3.51.06-5.25.21-1.53.13-3.07.31-4.56.72-1.58.44-3.07,1.23-4.13,2.41-.84.57-1.39,1.48-1.62,2.49-.39,1.62.11,3.31.57,4.86.85,2.85-1.35,4.9-.28,7.67,2.15,5.56,4.75,10.94,7.82,16.05,3.05,5.08,6.57,9.88,10.56,14.26,2,2.19,6.62,7.11,9.26,8.53,2.53,1.36,4.88,2.77,7.89,3,1.64.13,5.62,2.61,7.1,1.97,1.31-.57,1.61-1.5,2.89-2.14,2.46-1.24,3.49-5.4,5.34-7.48,2.1-2.36,2.98-5.32,3.35-8.4.41-3.32.26-6.69-.27-9.99Z"/>
          <path class="cls-10" d="M1010.88,74.43c3.23,4.72,7.47,8.67,12.43,11.53,1.01.58,1.91-.98.91-1.55-4.68-2.7-8.73-6.42-11.78-10.88-.65-.95-2.21-.05-1.55.91h0Z"/>
          <path class="cls-10" d="M1028.54,117.85c5.92-3.69,10.45-9.51,12.19-16.3.29-1.12-1.45-1.6-1.74-.48-1.63,6.35-5.83,11.78-11.37,15.22-.98.61-.08,2.17.91,1.55h0Z"/>
          <path class="cls-9" d="M1030.62,121.45c.84,6.85-3.57,14.05-9.86,16.07-6.29,2.02-12.07-1.89-12.91-8.75-.84-6.85,3.57-14.05,9.86-16.07,6.29-2.02,12.07,1.89,12.91,8.75Z"/>
          <path class="cls-10" d="M1022.58,128.61c1.44-3,1.49-6.42.18-9.46-.19-.45-.85-.55-1.23-.32-.46.27-.52.78-.32,1.23,1.04,2.41.95,5.29-.18,7.65-.21.44-.12.97.32,1.23.39.23,1.02.12,1.23-.32h0Z"/>
          <path class="cls-10" d="M1002.79,148.62c-4.95,4.55-10.85,7.98-17,10.66-1.06.46-.14,2.01.91,1.55,6.29-2.74,12.29-6.29,17.36-10.94.85-.79-.42-2.06-1.27-1.27h0Z"/>
          <path class="cls-1" d="M972.06,118.83c-.05,4.95-2.29,10.4-7.06,12.53-4.45,1.99-9.22-.26-11.73-4.15-2.85-4.42-3.17-10.45-.89-15.18,2-4.14,6.25-7.4,11.04-6.26,5.75,1.37,8.59,7.62,8.64,13.06.01,1.16,1.81,1.16,1.8,0-.05-5.68-2.73-11.82-8.2-14.2-5.14-2.23-10.63.11-13.7,4.54-3.46,5-3.75,11.95-1.14,17.37,2.36,4.89,7.52,8.41,13.07,7.09,6.54-1.55,9.9-8.57,9.96-14.8.01-1.16-1.79-1.16-1.8,0Z"/>
          <path class="cls-1" d="M1004.89,118.83c-.05,5.17-2.76,10.45-7.71,12.49-4.79,1.97-10.14.04-13.1-4.07-3.16-4.39-3.52-10.55-.96-15.3,2.4-4.44,7.33-7.33,12.41-6.13,5.88,1.39,9.3,7.25,9.36,13.01.01,1.16,1.81,1.16,1.8,0-.06-5.94-3.24-11.86-8.9-14.17-5.45-2.23-11.53-.12-15,4.49-3.74,4.96-4.16,12.03-1.22,17.48,2.74,5.08,8.39,8.23,14.16,7.02,6.8-1.43,10.89-8.19,10.96-14.81.01-1.16-1.79-1.16-1.8,0Z"/>
          <path class="cls-10" d="M974.55,117.02c-.73,3.17-1.41,6.39-1.8,9.62-.16,1.32-.01,2.74,1.04,3.68,1.17,1.04,2.72,1.14,4.22,1.14,1.16,0,1.16-1.8,0-1.8-1.06,0-2.6.07-3.26-.96-.58-.9-.16-2.31-.01-3.27.42-2.66.94-5.3,1.54-7.92.26-1.13-1.47-1.61-1.74-.48h0Z"/>
          <path class="cls-10" d="M964.18,111.82c-4.02-1.21-5.75,9.23-.95,9.82.9.11,1.69-.36,2.22-1.02,1.81-2.3,2.11-7.78-1.27-8.8Z"/>
          <path class="cls-10" d="M990.56,111.82c-4.02-1.21-5.75,9.23-.95,9.82.9.11,1.69-.36,2.22-1.02,1.81-2.3,2.11-7.78-1.27-8.8Z"/>
          <path class="cls-1" d="M973.41,115.35c2.12-1.39,4.9-1.6,7.15-.41,1.02.54,1.93-1.01.91-1.55-2.81-1.48-6.31-1.33-8.97.41-.96.63-.06,2.19.91,1.55h0Z"/>
          <path class="cls-1" d="M1004.24,113.07h11.6c1.16,0,1.16-1.8,0-1.8h-11.6c-1.16,0-1.16,1.8,0,1.8h0Z"/>
        </g>
        <path class="cls-10" d="M948.08,264.46h18.5c1.16,0,1.16-1.8,0-1.8h-18.5c-1.16,0-1.16,1.8,0,1.8h0Z"/>
        <path class="cls-10" d="M834.59,301.7c5.89,3.65,11.78,7.31,17.67,10.96.99.61,1.89-.94.91-1.55-5.89-3.65-11.78-7.31-17.67-10.96-.99-.61-1.89.94-.91,1.55h0Z"/>
        <path class="cls-10" d="M984,57.4c-1.29,4.99-.79,10.26,1.35,14.95.48,1.05,2.03.14,1.55-.91-1.93-4.23-2.33-9.06-1.17-13.56.29-1.12-1.45-1.6-1.74-.48h0Z"/>
        <path class="cls-10" d="M1007.97,82.96c5.41,8.19,12.37,15.25,20.49,20.78.96.65,1.86-.91.91-1.55-7.85-5.34-14.61-12.2-19.84-20.13-.64-.96-2.19-.06-1.55.91h0Z"/>
        <path class="cls-10" d="M934.12,258.34c.99,15.84,2.39,31.66,4.24,47.43.52,4.44,1.07,8.88,1.66,13.31.15,1.13,1.95,1.15,1.8,0-2.08-15.69-3.73-31.44-4.95-47.22-.35-4.51-.66-9.01-.94-13.52-.07-1.15-1.87-1.16-1.8,0h0Z"/>
      </g>
      <g>
        <g>
          <path class="cls-9" d="M728.91,348.23c.84-3.57-.31-6.19-3.02-7.2-1.08-.4-2.76-.34-4.74,0-.54-.68-1.27-1.23-2.18-1.65-5.36-2.44-19.88,3.74-23.65,4.45-18.73,3.52-24.49,1-40.72,2.31-16.22,1.31-38.92,6.85-38.92,6.85l-2.52,27.43.86,10.16s26.47,1.02,43.64-.98c5.8-.68,16.68-4.98,25.19-8.11,13.7-4.05,28.66-10.22,37.31-16.95,8.76-6.82,10.94-12.88,8.75-16.3Z"/>
          <path class="cls-9" d="M623.26,359.68s10.53-8.93,23.8-15.93c13.27-6.99,26.26-14.09,32.23-13.07,5.97,1.03,6.48,6.05,2.02,12.28-4.46,6.23-24.09,20.19-24.09,20.19l-33.96-3.47Z"/>
          <path class="cls-10" d="M666.07,360.8c4.26-4.43,8.51-8.86,12.77-13.3.8-.84-.47-2.11-1.27-1.27-4.26,4.43-8.51,8.86-12.77,13.3-.8.84.47,2.11,1.27,1.27h0Z"/>
          <path class="cls-10" d="M686.62,359.44c7.24-1.58,14.38-3.39,21.3-6.07,3.23-1.25,6.47-2.4,9.83-3.27,3.12-.81,6.53-1.57,9.75-.9,1.13.24,1.61-1.5.48-1.74-3.17-.67-6.45-.13-9.56.61-3.48.83-6.86,1.97-10.19,3.26-7.2,2.79-14.55,4.73-22.08,6.37-1.13.25-.65,1.98.48,1.74h0Z"/>
          <path class="cls-10" d="M673.02,353.96c4.65.81,9.09,2.7,12.79,5.66.38.31.9.37,1.27,0,.32-.31.38-.97,0-1.27-3.94-3.15-8.61-5.25-13.58-6.12-1.13-.2-1.62,1.54-.48,1.74h0Z"/>
          <path class="cls-10" d="M719.9,340.62c-8.03,1.67-15.79,4.4-23.69,6.58-3.96,1.09-7.97,2.06-12.03,2.69-3.55.55-7.82.18-10.84,2.44-.92.69-.02,2.25.91,1.55,1.58-1.19,3.45-1.48,5.37-1.66,1.82-.17,3.64-.37,5.45-.66,4.06-.65,8.07-1.63,12.03-2.73,7.76-2.16,15.39-4.82,23.28-6.46,1.13-.24.65-1.97-.48-1.74h0Z"/>
        </g>
        <path class="cls-1" d="M631.31,349.61l-35.47-4.69-9.21,56.95h33.32c1.31,0,2.43-.94,2.65-2.23l8.7-50.03Z"/>
        <path class="cls-8" d="M370.88,188.22c-58.13,3.66-102.18,43.23-138.24,75.29-38.57,34.29-32.62,79.8-8.73,106.26,17.73,19.64,79.25,74.87,79.25,74.87,0,0,54.53-56.85,56.38-63.21,1.85-6.36,11.34-193.22,11.34-193.22Z"/>
        <path class="cls-10" d="M290.53,296.82c-.04-.05-.06-.1-.1-.16-.83,1.78-1.65,3.56-2.46,5.34-4.26,9.39-8.4,18.81-12.43,28.29-4,9.43-7.9,18.92-11.68,28.45-3.78,9.53-7.45,19.1-11,28.71-1.01,2.71-1.99,5.41-2.98,8.13,6.58,6.26,13.57,12.77,20.24,18.93.92-3.58,1.86-7.16,2.82-10.73,2.7-10.17,5.47-20.33,8.27-30.47,2.8-10.09,5.66-20.17,8.56-30.22,2.91-10.06,5.87-20.11,8.89-30.14.15-.52.31-1.03.47-1.55-2.77-4.91-5.6-9.78-8.59-14.57Z"/>
        <path class="cls-10" d="M493.73,614.2c-74.47,2.29-143.15.25-204.13-5.8-3.01-34.55-4.69-69.16-3.03-103.38,1.09-22.3,3.64-44.74,8.27-66.52,19.16-46.84,52.18-50.21,52.18-50.21,0,0,37.95-17.08,75.73,35.46,19.19,26.68,53.02,125.76,70.98,190.45Z"/>
        <path class="cls-5" d="M327.16,486.36c.31,17.45,4.02,34.67,9.54,51.18,5.58,16.68,13.02,32.65,21.06,48.26,4.72,9.16,9.64,18.22,14.54,27.29.55,1.02,2.11.11,1.55-.91-8.46-15.65-17.01-31.27-24.4-47.46-7.25-15.88-13.39-32.38-17.06-49.48-2.04-9.5-3.27-19.16-3.44-28.88-.02-1.16-1.82-1.16-1.8,0h0Z"/>
        <g>
          <path class="cls-9" d="M382.75,131.58c1.09,5.24,3.64,8.5,4.55,13.4,3.66,19.71,11.6,28.32,30.76,34.94,5.97,2.06,17.26,2.13,23.45.86,18.47-3.81,14.84-28.58,12.08-44.91-1.66-9.85-2.71-19.8-4.85-29.57-1.73-7.92-3.64-17.28-11.83-21.07-4.3-1.99-9.22-2.04-13.78-1.32-5.35.84-10.45,2.7-15.34,4.94-4.42,2.02-8.81,4.23-13,6.68-3.67,2.15-7.23,4.69-9.83,8.08-2.87,3.75-4.1,8.24-4.11,12.95-.01,4.81.83,9.92,1.89,15.02Z"/>
          <path class="cls-9" d="M459.97,140.05c.81,1.36,1.51,2.91,1.25,4.46-.43,2.53-4.99,4.07-7.52,5.21l-2.22-22.66c2.59,3.89,5.96,8.73,8.49,12.98Z"/>
          <polygon class="cls-9" points="391.42 149.14 371.95 201.71 410.93 203.47 423.36 162.42 391.42 149.14"/>
          <path class="cls-3" d="M371.29,86.31c10.24-6.31,21.52-7.3,33.19-7.12,6.65.1,12.7.18,18.64,3.61.83.48,1.64,1.01,2.42,1.58-.59,5.22-11.79,10.36-12.77,14.75-3,13.43-1.05,29.97-6.26,42.67-4.17,10.16-5.82,20-22.02,26.08l-3.59-12.44c-2.98-1.57-9-7.31-11.36-9.86-8.44-9.13-14.42-20.07-14.04-33.32.29-9.9,4.17-18.78,15.8-25.95Z"/>
          <path class="cls-3" d="M444.77,84.43c-.53-2.08-1.21-4.17-2.06-6.19-8.61-.02-17.22.41-25.82,1.68-9.63,1.42-19.13,3.53-28.46,6.25.03,7.61.73,15.19,2.69,22.6,1.17,4.42,2.84,10.01,5.26,14.99,4.91,1.67,16.2,6.83,16.38,5.67,1.03-6.61-.74-18.07,5.81-21.92,6.36-3.73,22.71-2.06,26.9-8.01.17-.97.3-1.95.38-2.93.34-4.05-.09-8.17-1.09-12.14Z"/>
          <path class="cls-3" d="M435.51,126.69c1.11,1.02,2.97,1.02,4.65.04,3.3-1.91,6.64-1.66,8.89-2.13,2.73-.57,3.97-4.83,1.18-6.87-1.42-1.04-3.26-1.37-5.02-1.25-3.69.25-7.48,2.41-9.35,5.85-.67,1.24-1.26,3.5-.34,4.36Z"/>
          <path class="cls-10" d="M445.56,128.47c-4.49.11-4.44,10.76.73,10.53.97-.04,1.72-.67,2.16-1.47,1.51-2.74.65-9.16-2.89-9.07Z"/>
          <path class="cls-3" d="M398.59,67.99c-11.59-.19-20.19,10.58-24.53,19.72-.52,1.08,12.73,8.19,21.37,13.4-2.5.43-4.3.93-5.17,1.56-.46.33,4.01,1.54,10.88,3.12,6-7.5,10.27-16.1,12.79-24.87-.71-7.01-7.38-12.8-15.33-12.92Z"/>
          <path class="cls-10" d="M406.54,170.77c1.11,1.86,2.42,3.61,3.99,5.1,1.92,1.82,4.15,3.19,6.58,4.21.45.19.99-.2,1.11-.63.14-.52-.18-.92-.63-1.11-4.08-1.71-7.24-4.7-9.49-8.48-.59-.99-2.15-.09-1.55.91h0Z"/>
          <path class="cls-10" d="M447.73,154.8c1.82,1.71,4.37,2.62,6.86,2.35.48-.05.9-.38.9-.9,0-.45-.41-.95-.9-.9-.53.06-1.06.06-1.59.01-.07,0-.13-.01-.2-.02.1.01-.03,0-.06-.01-.13-.02-.26-.05-.39-.07-.28-.06-.55-.13-.82-.22-.91-.3-1.82-.84-2.53-1.51-.35-.33-.92-.35-1.27,0s-.36.94,0,1.27h0Z"/>
        </g>
        <path class="cls-1" d="M364.4,195.32s3.82-19.53,13.44-20.33c13.54-1.13,38.56,5.74,40.62,11.08,2.05,5.33,3.49,14.15,3.49,14.15l-57.54-4.9Z"/>
        <path class="cls-10" d="M367.49,188.75c1.26-3.33,2.63-6.71,4.67-9.65.95-1.38,2.16-2.73,3.8-3.23,1.6-.49,3.31-.44,4.96-.3,1.15.1,1.15-1.7,0-1.8-1.8-.15-3.69-.17-5.44.37-1.91.58-3.3,1.95-4.48,3.51-2.38,3.15-3.87,6.98-5.26,10.64-.41,1.08,1.33,1.55,1.74.48h0Z"/>
        <path class="cls-10" d="M416.57,185.03c.49.67.92,1.38,1.26,2.14.02.04.04.08.06.13.04.1.02.04,0-.02.04.08.07.17.1.26.07.19.14.37.21.56.15.41.28.83.41,1.25.14.45.63.78,1.11.63.45-.15.78-.63.63-1.11-.53-1.68-1.16-3.31-2.22-4.74-.28-.38-.79-.61-1.23-.32-.37.24-.62.83-.32,1.23h0Z"/>
        <path class="cls-8" d="M448.42,474.96c-13.64-.13-27.29-.6-40.68-1.29-.63-.03-1.15-.51-1.24-1.13-2.19-15.15-4.38-30.3-6.57-45.44-.27-1.88-2.96-1.96-3.35-.1-3.06,14.76-6.11,29.53-9.16,44.29-.13.65-.73,1.1-1.39,1.05-64.48-4.52-118.55-13.39-127.57-14.92-.73-.12-1.21-.83-1.07-1.55,32.93-172.75,48.2-233.52,77.32-258.84,14.77-12.85,81.17-9.54,98.3-4.96.47.13.83.51.94.99l14.42,66.02c.02.09.03.18.03.27l1.36,214.29c0,.74-.6,1.34-1.34,1.33Z"/>
        <path class="cls-10" d="M449.21,386.36c-5.07-7.12-10.23-14.18-15.48-21.16-6.47-8.61-13.08-17.13-19.81-25.53-4.96-6.2-9.43-16.94-14.53-23.01,1.77,9.84,14.04,41.88,17.53,50.38,3.48,8.46,7.03,16.9,10.64,25.3,3.62,8.45,7.31,16.86,11.06,25.25,3.59,8.04,7.24,16.05,10.95,24.03l-.35-55.27Z"/>
        <path class="cls-8" d="M610.43,346.84l-14.4,69.95s-84.03,10.1-116.02,1.07c-31.99-9.03-68.51-70.53-92-131.25,0,0,11.42-97.27,34.22-96.11,26.14,1.33,38.56,17.15,62.31,65.02,23.75,47.89,37.4,73.63,37.4,73.63l88.5,17.69Z"/>
        <path class="cls-10" d="M396.79,311.26c10.08,24.25,22.44,47.71,37.8,69.04,3.86,5.36,7.93,10.58,12.21,15.61.75.88,2.02-.4,1.27-1.27-16.14-18.95-29.18-40.49-40.07-62.82-3.37-6.91-6.53-13.93-9.48-21.03-.44-1.05-2.18-.59-1.74.48h0Z"/>
        <path class="cls-10" d="M584.18,342.82c-3.7,19.51-7.4,39.03-11.1,58.54-1.05,5.52-2.09,11.05-3.14,16.57-.21,1.13,1.52,1.62,1.74.48,3.7-19.51,7.4-39.03,11.1-58.54,1.05-5.52,2.09-11.05,3.14-16.57.21-1.13-1.52-1.62-1.74-.48h0Z"/>
        <path class="cls-10" d="M297.08,267.18c-6.45,23.8-12.23,47.78-17.62,71.84-4.08,18.18-7.92,36.4-11.6,54.67-1.01,5.03-1.99,10.06-3.01,15.08-.23,1.13,1.5,1.61,1.74.48,2.4-11.81,4.72-23.64,7.18-35.44,4.53-21.68,9.33-43.3,14.51-64.83,3.33-13.82,6.82-27.6,10.54-41.32.3-1.12-1.43-1.6-1.74-.48h0Z"/>
        <path class="cls-10" d="M254.59,341.78c9.57-5.56,19.31-10.79,28.97-16.19,1.01-.56.1-2.12-.91-1.55-9.66,5.39-19.4,10.63-28.97,16.18-1,.58-.1,2.14.91,1.55h0Z"/>
        <path class="cls-9" d="M391.81,138.2c.04-7.88,6.19-13.13,13.73-11.73,7.54,1.4,11.85,8.73,11.8,16.62-.04,7.88-4.43,13.33-11.96,11.93s-13.61-8.93-13.57-16.81Z"/>
        <path class="cls-10" d="M405.65,146.15c-3.18-2.74-4.1-7.14-2.51-10.99.19-.45-.2-.99-.63-1.11-.51-.15-.92.18-1.11.63-1.81,4.39-.64,9.63,2.97,12.74.87.75,2.15-.52,1.27-1.27h0Z"/>
        <path class="cls-3" d="M452.7,92.46c-2.65-3.15-6.37-5.17-10-7.11l-45.04,16.64c.64,3.93,3.19,7.38,6.37,9.77,3.19,2.39,6.98,3.84,10.81,4.93,4.21,1.2,8.66,2.03,12.95,1.17,4.29-.86,8.4-3.7,9.73-7.87.23-.73.35-1.49.38-2.25,2.74,1.14,5.68,1.87,8.62,1.59,3.48-.32,6.96-2.24,8.44-5.41,1.75-3.73.38-8.32-2.27-11.47Z"/>
        <path class="cls-3" d="M460.27,84.65c-1.65-3.62-4.06-6.18-7.62-7.57-4.67-1.82-9.28-1.18-11.92.44.13-1.92-.29-4.27-2.76-6.75-2.47-2.48-6-3.32-9.36-3.66-16.08-1.62-27.92,9.38-38.75,21.49l53.08,19.87c5.85,1.87,12.5-.61,16.05-5.67,3.55-5.06,3.95-12.32,1.29-18.14Z"/>
        <path class="cls-10" d="M412.36,88.46c7.87.45,15.75-1.62,22.39-5.87.97-.62.07-2.18-.91-1.55-6.39,4.09-13.9,6.05-21.48,5.62-1.16-.07-1.15,1.73,0,1.8h0Z"/>
        <path class="cls-10" d="M431.71,94.18c3.64-.06,7.12-1.34,9.97-3.6.38-.3.32-.96,0-1.27-.38-.38-.89-.3-1.27,0-2.46,1.95-5.57,3.02-8.7,3.07-1.16.02-1.16,1.82,0,1.8h0Z"/>
        <g>
          <path class="cls-10" d="M422.52,406.4c8.38,1.63,16.77,3.26,25.15,4.89,1.13.22,1.62-1.51.48-1.74-8.38-1.63-16.77-3.26-25.15-4.89-1.13-.22-1.62,1.51-.48,1.74h0Z"/>
          <path class="cls-10" d="M421.43,423.25c8.8,1.71,17.6,3.42,26.4,5.13,1.13.22,1.62-1.51.48-1.74-8.8-1.71-17.6-3.42-26.4-5.13-1.13-.22-1.62,1.51-.48,1.74h0Z"/>
          <path class="cls-10" d="M421.62,405.42c-.36,5.61-.72,11.22-1.08,16.84-.07,1.16,1.73,1.15,1.8,0,.36-5.61.72-11.22,1.08-16.84.07-1.16-1.73-1.15-1.8,0h0Z"/>
        </g>
        <path class="cls-10" d="M385.81,93.18c.1,4.85,1.57,10.87,5.55,14.05,1.64,1.31,3.66,1.91,5.72,1.42,1.87-.44,3.47-1.76,3.94-3.67-.59-.08-1.18-.16-1.77-.24.72,6.75,6.91,12.23,13.74,11.9,1.15-.06,1.16-1.86,0-1.8-5.78.28-11.32-4.29-11.94-10.1-.1-.94-1.51-1.3-1.77-.24-.38,1.57-1.87,2.43-3.42,2.52-1.77.11-3.29-.91-4.41-2.19-2.71-3.07-3.76-7.67-3.84-11.66-.02-1.16-1.82-1.16-1.8,0h0Z"/>
        <path class="cls-10" d="M390.23,277.61c-1.83-13.59-1.98-27.55.97-40.99,2.73-12.44,7.9-25.11,17.19-34.1,4.64-4.49,10.46-8.75,17.02-9.67,1.14-.16.66-1.9-.48-1.74-5.87.83-11.18,4.31-15.58,8.1-4.73,4.07-8.61,8.92-11.57,14.41-6.69,12.38-9.96,26.26-10.55,40.27-.34,8.09.2,16.18,1.28,24.19.15,1.14,1.89.66,1.74-.48h0Z"/>
        <path class="cls-10" d="M307.19,234.91c3.59-12.74,8.37-25.73,18.97-34.3.9-.73-.38-1.99-1.27-1.27-10.83,8.76-15.77,22.09-19.44,35.1-.31,1.12,1.42,1.59,1.74.48h0Z"/>
      </g>
    </g>
  </g>
</svg>