<?xml version="1.0" encoding="UTF-8"?>
<svg xmlns="http://www.w3.org/2000/svg" viewBox="0 0 3000 2000">
  <defs>
    <style>
      .cls-1 {
        opacity: .6;
      }

      .cls-2 {
        fill: #6b868c;
      }

      .cls-3 {
        fill: #de2508;
      }

      .cls-4 {
        fill: #fff;
      }

      .cls-5 {
        fill: #332728;
      }

      .cls-6 {
        fill: #013656;
      }

      .cls-7 {
        fill: #fb3f31;
      }

      .cls-8 {
        fill: #2f302f;
      }

      .cls-9 {
        fill: #a5bfce;
      }

      .cls-10 {
        fill: #f7b284;
      }

      .cls-11 {
        fill: #d1e4e8;
      }

      .cls-12 {
        fill: #b71818;
      }

      .cls-13 {
        fill: #d7ecf4;
      }

      .cls-14 {
        fill: #4cbce3;
      }

      .cls-15 {
        fill: #e29764;
      }

      .cls-16 {
        fill: #bcc6cf;
      }

      .cls-17 {
        fill: #b9d9ea;
      }

      .cls-18 {
        opacity: .5;
      }

      .cls-19 {
        opacity: .7;
      }

      .cls-20 {
        fill: #0d466f;
      }
    </style>
  </defs>
  <g id="_ëîé_2" data-name="‘ëîé_2">
    <rect class="cls-4" width="3000" height="2000"/>
  </g>
  <g id="_ëîé_1" data-name="‘ëîé_1">
    <g>
      <path class="cls-8" d="M404.6,719.84c-.77,7.79-4.58,12.06-1.21,13.15l15.25-18.19c2.87-5.07,2.96-6.68,1.1-11.98-4.65-13.31-5.89-25.58,1.55-33.28,9.32-9.67,12.77-6.35,14.32-.26.04.15.09.29.12.38.32,4.64,2.59,12.27,2.4,19.25-.34,12.27,9.67-19.9,23.5-34.85,9.4-10.16,34.99-5.07,40.96-4.01,5.75,5.38,4.85,11.69,4.85,11.69,0,0,3.53,2.42,3.15,8.43,16.76-7.66,23.58-65.74-46.91-65.61-13.86.03-46.25-10.8-69.32,23.19-15.69,23.11,13.58,58,10.23,92.1Z"/>
      <path class="cls-10" d="M403.4,732.99l15.25-18.19c2.87-5.07,2.96-6.68,1.1-11.98-4.65-13.31-7.39-30.09.05-37.79,3.67-3.8,8.45-5.75,12.95-2.1,7.91,6.42,7.14,18.61,6.9,27.48-.34,12.27,9.46-22.62,23.29-37.57,9.4-10.16,33.7-3.86,39.67-2.79,5.75,5.38,9.07,15.96,8.7,21.97-1.22,19.2-9.6,61.03-22.24,78.1-9.47,12.79-24.31,12.79-35.34,10.43l-31.72,42.35-46.81-36.21,28.22-33.69Z"/>
      <path class="cls-8" d="M436.36,696.56s13.66,3.78,21.39-15.07c6.65-16.2,37.63,10.26,57.88-15.41,2.92-3.71-.97-29.66-.97-29.66l-19.81-10.87s-29.65,1.08-31.04,1.42c-1.39.34-39.93,30.28-39.93,30.28,0,0,5.35-3.57,12.47,7.59,9.59,15.03,2.37,27.33,0,31.73Z"/>
      <g class="cls-19">
        <path class="cls-13" d="M721.48,1279.54c30.46,23.79,63.49,45.13,98.6,66.61,110.65,67.69,1156.19,89.63,1253.39,43.2,108.07-51.62,202.11-138.13,264.02-257.05,108.62-208.64,78-463.67-78.26-639.49-133.09-149.74-339.46-219.68-536.4-184.74-98.04,17.39-191.07,60.2-267.14,124.57-38.31,32.42-59.99,78.29-98.26,110.79-.02.02-.04.03-.06.05-92.1,78.19-247.03-52.26-352.32-58.82-141.22-8.8-281.01,52.33-370.08,162.34-119.13,147.13-124.1,350.25-25.79,509.61,31.31,50.75,69.22,89.29,112.29,122.93Z"/>
      </g>
      <g>
        <path class="cls-14" d="M1555.66,327.61h61.8c10.39,0,18.83,8.44,18.83,18.83v95.99h-99.45v-95.99c0-10.39,8.44-18.83,18.83-18.83Z"/>
        <path class="cls-14" d="M952.73,327.61h61.8c10.39,0,18.83,8.44,18.83,18.83v95.98h-99.45v-95.99c0-10.39,8.44-18.83,18.83-18.83Z"/>
        <rect class="cls-16" x="816.13" y="560.91" width="941.07" height="534.23"/>
        <rect class="cls-14" x="773.72" y="482.27" width="1025.89" height="78.64" rx="14.89" ry="14.89"/>
        <rect class="cls-14" x="873.59" y="411.4" width="826.15" height="141.73" rx="16.49" ry="16.49"/>
        <path class="cls-14" d="M1509.61,493.8h-453.43v-141.32c0-35.6,28.96-64.57,64.57-64.57h324.29c35.6,0,64.57,28.97,64.57,64.57v141.32ZM1089.56,460.42h386.68v-107.95c0-17.2-13.99-31.19-31.19-31.19h-324.29c-17.2,0-31.19,13.99-31.19,31.19v107.95Z"/>
        <path class="cls-4" d="M1469.45,1000.51h-373.12c-4.26,0-8.19-2.27-10.32-5.96-2.13-3.69-2.13-8.23,0-11.92l186.56-323.13c2.13-3.69,6.06-5.96,10.32-5.96s8.19,2.27,10.32,5.96l186.56,323.13c2.13,3.69,2.13,8.23,0,11.92-2.13,3.69-6.06,5.96-10.32,5.96ZM1116.98,976.67h331.82l-165.91-287.37-165.91,287.37Z"/>
        <path class="cls-4" d="M971.7,726.46c-6.58,0-11.92-5.34-11.92-11.92v-128.19c0-6.58,5.34-11.92,11.92-11.92s11.92,5.34,11.92,11.92v128.19c0,6.58-5.34,11.92-11.92,11.92Z"/>
        <path class="cls-4" d="M1035.79,662.37h-128.19c-6.58,0-11.92-5.34-11.92-11.92s5.34-11.92,11.92-11.92h128.19c6.58,0,11.92,5.34,11.92,11.92s-5.34,11.92-11.92,11.92Z"/>
        <path class="cls-4" d="M1664.97,662.37h-128.19c-6.58,0-11.92-5.34-11.92-11.92s5.34-11.92,11.92-11.92h128.19c6.58,0,11.92,5.34,11.92,11.92s-5.34,11.92-11.92,11.92Z"/>
        <polygon class="cls-4" points="1286.67 754.61 1243.53 878.6 1282.78 874.52 1264.38 964.12 1322.26 829.93 1287.85 836.63 1301.79 794.43 1286.67 754.61"/>
        <path class="cls-16" d="M1370.94,548.09c4.37,0,4.37-6.78,0-6.78s-4.37,6.78,0,6.78h0Z"/>
      </g>
      <ellipse class="cls-16" cx="1543.02" cy="1481" rx="1189.01" ry="194.47"/>
      <path class="cls-7" d="M2456.29,1157.74c0,2.6-.12,5.22-.36,7.83l-6.63,72.99c-2.14,23.45-13.75,45-32.18,59.64l-51.66,47.47h-220.73c15.87-26.44,25.01-57.37,25.01-90.4,0-97.15-79.03-176.18-176.18-176.18s-176.16,79.03-176.16,176.18c0,33.02,9.14,63.96,25.01,90.4h-919.42c15.87-26.44,25.01-57.37,25.01-90.4,0-97.15-79.03-176.18-176.18-176.18s-176.16,79.03-176.16,176.18c0,33.02,9.14,63.96,25.01,90.4h-178.66s-9.08-20.67,13.62-36.45c0,0-37.64-88.46-15.41-145.22,22.23-56.79,68.78-96.3,68.78-96.3,87.71-49.8,500.18-109.44,500.18-109.44l-27.93-42.02c12.09-4.51,23.75-10.13,34.87-16.82l112.66-67.73c129.85-78.1,274.39-125.42,457.02-125.1,0,0,245.73-10.96,455.62,95.31l81.39,39.38c28.41,13.72,58.49,23.72,89.5,29.72l92.47,17.86c13.51,2.62,26.14,7.8,37.29,15.09,19.77,12.85,34.98,32.24,42.49,55.4l30.77,94.71s6.12,33.2,15.74,42.81c16.2,16.22,25.22,38.15,25.22,60.88Z"/>
      <g class="cls-1">
        <path class="cls-3" d="M638.05,1140.77c-26.42,30.82-42.41,70.82-42.41,114.51,0,33.04,9.15,63.96,25.01,90.4h-178.65s-9.09-20.67,13.61-36.45c0,0-37.64-88.45-15.4-145.21,0,0,74.45-8.95,197.83-23.24Z"/>
      </g>
      <g class="cls-1">
        <path class="cls-3" d="M2456.29,1157.74c0,2.61-.12,5.23-.36,7.84l-6.64,72.99c-2.13,23.44-13.75,45-32.17,59.64l-51.67,47.47h-220.73c15.86-26.44,25.01-57.36,25.01-90.4,0-97.14-79.04-176.18-176.17-176.18s-176.18,79.04-176.18,176.18c0,33.04,9.15,63.96,25.01,90.4h-919.41c15.86-26.44,25.01-57.36,25.01-90.4,0-58.05-28.23-109.64-71.68-141.75,379.02-42.69,935.47-102.52,1380.14-138.58,48.8-3.94,91.43-8.79,128.5-14.38l30.36,93.5s6.13,33.2,15.74,42.81c16.21,16.21,25.23,38.14,25.23,60.86Z"/>
      </g>
      <circle class="cls-8" cx="1993.56" cy="1255.28" r="156.07"/>
      <path class="cls-4" d="M1993.56,1332.91c-42.8,0-77.63-34.82-77.63-77.63s34.82-77.63,77.63-77.63,77.63,34.82,77.63,77.63-34.82,77.63-77.63,77.63Z"/>
      <path class="cls-4" d="M771.82,1333.88c-42.8,0-77.63-34.82-77.63-77.63s34.82-77.63,77.63-77.63,77.63,34.82,77.63,77.63-34.82,77.63-77.63,77.63Z"/>
      <path class="cls-14" d="M2415.47,1054.07c-23.75.17-54.19-4.16-70.32-7.58-34.81-7.38-68.12-49.4-88.55-71.54-14.66-15.88,48.62-51.9,85.61-71,19.77,12.85,34.97,32.23,42.49,55.39l30.76,94.72Z"/>
      <path class="cls-14" d="M628.22,1032.01s-74.37-18.59-119.22,35.69l-32.93,62.23s45.42,4.02,89.7-40.83,62.45-57.1,62.45-57.1Z"/>
      <path class="cls-12" d="M628.21,1035.03c-1.37,0-2.61-.94-2.94-2.34-.37-1.62.64-3.24,2.26-3.62,229.08-52.86,487.09-86.87,489.66-87.2,1.65-.21,3.17.95,3.38,2.6.22,1.65-.95,3.17-2.6,3.38-2.58.34-260.3,34.31-489.09,87.1-.23.05-.46.08-.68.08Z"/>
      <path class="cls-12" d="M1022.21,1297.28c-1.35,0-2.58-.91-2.92-2.29-26.51-106.03-22.79-191.34-14.99-244.24,8.47-57.45,23.02-89.32,23.64-90.65.7-1.51,2.49-2.17,4-1.47,1.51.7,2.17,2.49,1.47,4-.15.32-14.87,32.6-23.19,89.28-7.68,52.3-11.32,136.68,14.91,241.61.4,1.62-.58,3.25-2.19,3.66-.25.06-.49.09-.73.09Z"/>
      <path class="cls-12" d="M1568.4,1283.53c-.22,0-.44-.02-.67-.07-1.62-.37-2.64-1.98-2.28-3.61,26.58-117.69,29.07-209.79,26.49-266.33-2.8-61.12-11.94-94.79-12.03-95.12-.44-1.61.5-3.27,2.1-3.71,1.6-.44,3.27.5,3.71,2.1.09.34,9.42,34.66,12.24,96.45,2.6,56.91.1,149.59-26.63,267.93-.32,1.4-1.56,2.35-2.94,2.35Z"/>
      <path class="cls-14" d="M1584.84,736.98v181.93l-120.52,9.23-214.24,16.43-219.41,16.81c105.8-95.51,194.07-156.91,313.13-191.16,52.68-15.14,111.37-24.97,180.3-30.08,16.05-1.19,32.63-2.13,49.85-2.81,3.64-.14,7.28-.26,10.9-.34Z"/>
      <path class="cls-14" d="M2061.15,882.41l-250.99,19.22-138.62,10.64-69.67,5.33v-180.86c44.9-.1,87.55,3.86,127.46,10.52,38.53,6.43,74.52,15.38,107.49,25.66,138.58,43.13,224.33,109.5,224.33,109.5Z"/>
      <g class="cls-18">
        <path class="cls-11" d="M1524.1,740.14l-59.78,188-214.24,16.43,93.72-174.35c52.68-15.14,111.37-24.97,180.3-30.08Z"/>
      </g>
      <g class="cls-18">
        <path class="cls-11" d="M1836.82,772.91l-26.66,128.72-138.62,10.64,57.79-165.02c38.53,6.43,74.52,15.38,107.49,25.66Z"/>
      </g>
      <path class="cls-9" d="M1993.56,1181.71c-40.56,0-73.56,33-73.56,73.56s33,73.56,73.56,73.56,73.56-33,73.56-73.56-33-73.56-73.56-73.56ZM2061.6,1255.28c0,1.79-.07,3.57-.21,5.32-.21,2.7-2.65,4.67-5.34,4.31l-28.54-3.9c-2.36-.32-4.07-2.35-4.07-4.74v-.04c0-.44,0-.88-.03-1.31-.11-2.47,1.68-4.6,4.13-4.9l28.64-3.51c2.68-.33,5.1,1.65,5.27,4.35.1,1.46.14,2.94.14,4.43ZM1925.51,1255.28c0-1.38.04-2.75.12-4.1.16-2.72,2.64-4.72,5.34-4.35l29.37,4.02c2.36.32,4.12,2.36,4.07,4.74,0,.21,0,.43,0,.64,0,.1,0,.19,0,.29.02,2.41-1.74,4.45-4.13,4.74l-29.29,3.59c-2.67.33-5.07-1.64-5.27-4.32-.13-1.73-.2-3.49-.2-5.25ZM2008.9,1230.79c-.44-.26-.89-.51-1.34-.75-2.15-1.12-3.06-3.72-2.14-5.96l11.43-27.59c1.03-2.5,3.96-3.63,6.39-2.44,3.25,1.58,6.35,3.42,9.29,5.48,2.23,1.56,2.68,4.67.98,6.8l-18.6,23.31c-1.45,1.82-4.02,2.33-6.02,1.15ZM1979.52,1230.47c-.44.25-.87.5-1.29.77-2.04,1.28-4.72.78-6.19-1.12l-18.47-23.83c-1.65-2.13-1.18-5.2,1.03-6.75,2.94-2.06,6.05-3.9,9.31-5.49,2.44-1.19,5.39-.03,6.4,2.49l11.31,28.12c.88,2.19-.04,4.66-2.09,5.81ZM1978.48,1280.55c.45.26.91.51,1.38.74,2.18,1.1,3.12,3.72,2.18,5.98l-11.21,27.05c-1.03,2.48-3.92,3.61-6.35,2.46-3.27-1.55-6.39-3.35-9.34-5.38-2.26-1.55-2.72-4.69-1.02-6.82l18.28-22.92c1.46-1.84,4.04-2.28,6.08-1.11ZM2007.95,1281.31c.46-.23.91-.47,1.35-.72,2.03-1.16,4.6-.69,6.03,1.16l17.73,22.87c1.66,2.14,1.18,5.24-1.06,6.77-2.86,1.97-5.88,3.72-9.03,5.24-2.46,1.18-5.4.05-6.42-2.48l-10.82-26.89c-.91-2.25.04-4.85,2.21-5.94Z"/>
      <path class="cls-12" d="M951.16,1302.77c-1.63,0-2.97-1.3-3.01-2.94-.04-1.66,1.27-3.05,2.94-3.09l859.24-21.49c1.64-.03,3.05,1.27,3.09,2.94.04,1.67-1.27,3.05-2.94,3.09l-859.24,21.49s-.05,0-.08,0Z"/>
      <path class="cls-12" d="M458.3,1312.94c-1.63,0-2.97-1.3-3.01-2.94-.04-1.67,1.27-3.05,2.94-3.09l138.4-3.62c1.66-.08,3.05,1.27,3.09,2.94.04,1.66-1.27,3.05-2.94,3.09l-138.4,3.62s-.05,0-.08,0Z"/>
      <g>
        <polygon class="cls-10" points="2091.67 1224.99 2091.62 1258.15 2123.64 1257.08 2120.05 1224.01 2091.67 1224.99"/>
        <path class="cls-2" d="M2069.32,1286.34c-.14-5.36-2.84-10.07-6.94-13.07l-1.83-72.4c4.87-2.7,8.66-7.01,10.59-12.16.99-2.62,1.49-5.47,1.42-8.43-.1-3.95-1.22-7.64-3.11-10.84-1.5-2.56-3.5-4.8-5.86-6.63l.43,17.22c-2.3,1.54-4.78,2.75-7.35,3.62-3.01,1.02-6.16,1.56-9.31,1.64-5.84.14-11.73-1.34-16.91-4.46l-.36-14.32c-3.35,4.08-5.3,9.28-5.16,14.9.1,3.97,1.23,7.69,3.15,10.91,2.48,4.17,6.26,7.51,10.79,9.51l1.82,71.95c-3.95,3.19-6.41,8.02-6.27,13.38.24,9.33,8.24,16.71,17.88,16.48,9.64-.23,17.26-7.97,17.03-17.3ZM2057.12,1295.49l-10.14.24-5.28-8.38,4.85-8.61,10.14-.24,5.28,8.38-4.85,8.61Z"/>
        <path class="cls-10" d="M2093.91,1252.63l.92-7.22.14-1.12,2.2-17.17c.48-3.78.42-7.74-1.95-11.54-1.99-3.19-3.55-6.61-4.58-10.2l-3.4-11.77-.18-.55-3.81-11.63-.04-.14c-.19-1.1-.99-1.87-1.93-1.96-.23-.02-.47,0-.71.06-5.56,1.51-9.59,6.81-10.37,12.89-.21,1.63-.18,3.32.11,5l.99,5.68c1.65,10.32.1,17.36-1,20.69-1.36,4.12-.97,8.63,1.26,12.38,1.77,2.98,4.5,5.39,7.83,6.82-7.66.78-14.04,6.57-15.03,14.29l-1.44,11.25,8.71,1.04c10.95,1.31,20.92-6.21,22.28-16.81Z"/>
        <polygon class="cls-10" points="2065.88 1268.74 2088.9 1241.89 2076.13 1208.63 2046.53 1207.31 2042.62 1265.96 2065.88 1268.74"/>
        <path class="cls-10" d="M2064.51,1215.85l.05-1.46c.13-3.46-2.67-6.36-6.24-6.48l-20.02-.68c-3.57-.12-6.57,2.58-6.7,6.04l-.05,1.46c-.13,3.46,2.67,6.36,6.24,6.48l20.02.68c3.57.12,6.57-2.58,6.7-6.04Z"/>
        <path class="cls-10" d="M2064.36,1231.17l.1-1.46c.24-3.45-2.46-6.44-6.03-6.67l-19.99-1.29c-3.57-.23-6.65,2.38-6.89,5.84l-.1,1.46c-.24,3.45,2.46,6.44,6.03,6.67l19.99,1.29c3.57.23,6.65-2.38,6.89-5.84Z"/>
        <path class="cls-10" d="M2063.3,1246.53l.15-1.45c.36-3.44-2.23-6.52-5.79-6.87l-19.93-1.96c-3.56-.35-6.74,2.16-7.1,5.6l-.15,1.45c-.36,3.44,2.23,6.52,5.79,6.87l19.93,1.96c3.56.35,6.74-2.16,7.1-5.6Z"/>
        <path class="cls-10" d="M2061.57,1262.24l.23-1.44c.55-3.42-1.87-6.62-5.4-7.15l-19.79-2.98c-3.53-.53-6.84,1.81-7.39,5.23l-.23,1.44c-.55,3.42,1.87,6.62,5.4,7.15l19.79,2.98c3.53.53,6.84-1.81,7.39-5.23Z"/>
      </g>
      <g>
        <path class="cls-15" d="M2028.26,1083.82h42.25c2.79,0,5.06,2.27,5.06,5.06v5.1c0,2.79-2.27,5.06-5.06,5.06h-42.25c-1.31,0-2.36-1.06-2.36-2.36v-10.49c0-1.31,1.06-2.36,2.36-2.36Z" transform="translate(3850.84 2559.88) rotate(-168.82)"/>
        <path class="cls-10" d="M2049.72,1106.76h25.27c2.79,0,5.06,2.27,5.06,5.06v5.1c0,2.79-2.27,5.06-5.06,5.06h-25.27v-15.22h0Z" transform="translate(3308.05 3104.37) rotate(-150.35)"/>
        <path class="cls-10" d="M2124.41,1146.07l5.12-24.85s-1.89-.53-4.63-1.29c-6.57-1.82-18.05-5-20.34-5.59-1.23-.32-2.38-.84-3.41-1.54-.67-.45-1.29-.97-1.85-1.56,0,0,0,0,0,0-.31-.32-.59-.66-.86-1.02l-16.24-21.79c-2.08-2.8-5.3-4.25-8.54-4.2-2.11.03-4.23.71-6.05,2.07l-.75.56-6.28,4.68,4.92,6.6,3.47,4.65,6.63,8.9.29.39.08.11-9.66,7.2,5.87,7.88,8.31,11.15c5.95,7.98,14.16,10.47,24,8.94.71-.11,1.37-.24,1.94-.39,7.92-1.96,18-.89,18-.89Z"/>
        <path class="cls-10" d="M2027.22,1075.84c.37-.22.82-.31,1.27-.24,1.9.3,4.44.58,5.51.8l5.85,1.16.13.03,35.28,6.97-2.95,14.94-41.27-8.16c-4.13-.81-6.81-4.82-5.99-8.94h0c.31-1.59.87-3.83,1.26-5.36.13-.52.46-.93.89-1.19Z"/>
        <path class="cls-15" d="M2125.55,1128.33l-.93-8.67c-6.57-1.82-18.05-5-20.34-5.59-1.23-.32-2.38-.84-3.41-1.54-.67-.45-1.29-.97-1.85-1.56.17.24,15.09,19.72,26.54,17.36Z"/>
      </g>
      <polygon class="cls-9" points="2293.12 1122.52 2248.6 1175.42 2116.42 1153.19 2124.64 1114.65 2293.12 1122.52"/>
      <path class="cls-8" d="M2410.82,923.65c2.6,7.25.45,10.37-2.83,11.57l-15.65-17.33c-3.01-4.89-3.16-6.46-1.52-11.74,4.09-13.26,6.18-29.85-1.41-37.16-9.51-9.17-14.1-1.29-15.41,4.75-.03.15-.07.29-.11.38-.15,4.57-.09,10.19.35,17.05.78,12.05-26.59-11.75-40.73-25.96-9.61-9.65-20.23-9.21-26.06-7.95-5.46,5.5-4.34,11.66-4.34,11.66,0,0,.24,3.68.83,9.57-10.6-3.34-25.69-12.1-27.99-35.04-3.59-35.92,39.61-51.89,39.61-51.89,0,0-4.73,12.21,7.16,18.67,11.9,6.46,37.35-1.13,50.83-3.26,13.47-2.15,33.55,5.91,41.62,32.18,8.07,26.27-10.33,67.76-4.34,84.49Z"/>
      <path class="cls-10" d="M2407.99,935.22l-15.65-17.33c-3.01-4.89-3.16-6.46-1.52-11.74,4.09-13.26,6.18-29.85-1.41-37.16-9.51-9.17-14.1-1.29-15.41,4.75-.03.15-.07.29-.11.38-.15,4.57-.09,10.19.35,17.05.78,12.05-26.59-11.75-40.73-25.96-9.61-9.65-20.23-9.21-26.06-7.95-5.46,5.5-4.34,11.66-4.34,11.66,0,0,.24,3.68.83,9.57,1.89,18.83,7.41,60.33,20.46,76.66,9.77,12.24,24.37,11.69,35.13,8.97l32.72,40.49,44.72-37.29-28.96-32.11Z"/>
      <path class="cls-10" d="M2374.25,891.17c.78,12.05-26.59-11.75-40.73-25.96-9.61-9.65-20.23-9.21-26.06-7.95,3.19-3.22,8.63-6.21,17.84-7.62,46.31-7.12,47.38,28.23,48.61,24.49-.15,4.57-.09,10.19.35,17.05Z"/>
      <polygon class="cls-10" points="2675.21 1548.72 2611.97 1545.53 2611.97 1510.73 2665.45 1510.73 2675.21 1548.72"/>
      <path class="cls-5" d="M2678.98,1499.14s20.61-2.54,20.61,12.57l-1.78,88.86c0,5.14-3.69,9.31-8.25,9.31h-5.35c-3.62,0-8.02-2.75-8.25-6.78-4.19-73.65-21.16-93.16-21.16-93.16,3.83-8.57,12.79-10.79,24.18-10.79Z"/>
      <polygon class="cls-10" points="2270.84 1567.98 2272.57 1504.69 2307.36 1503.88 2308.59 1557.34 2270.84 1567.98"/>
      <path class="cls-6" d="M2326.98,1347.21v1.5c39.37-.75,106.74,16.87,106.74,16.87,23.58,18.2,38.14-118.83,38.14-118.83l-152.45-18.11c-25.98-4.52-43.79-1.69-56.27,3.34h0c-24.86,13.12-39.12,40.15-35.92,68.07l29.17,254.06,62.57-5.05,2.34-175.51c.12-9.07,2.05-18.02,5.69-26.33Z"/>
      <path class="cls-20" d="M2434.35,1475.49h0l101.5-101.11c.2-.22.4-.44.6-.66,27.41-30.38,39.38-71.66,32.92-112.07l-2.38-14.9h-142.6l-108.83,226.74c-8.51,17.73-8.95,38.28-1.2,56.35h0c11.07,25.84,36.87,42.23,64.96,41.28l255.58-8.62v-62.77l-174.76-16.46c-9.03-.85-17.8-3.5-25.78-7.79Z"/>
      <path class="cls-5" d="M2317.49,1572.67s2.55,19.25-12.62,19.25l-89.2-1.66c-5.16,0-9.34-3.45-9.34-7.7v-4.99c0-3.38,2.76-7.49,6.81-7.71,73.94-3.91,93.52-19.76,93.52-19.76,8.6,3.58,10.83,11.95,10.83,22.58Z"/>
      <path class="cls-17" d="M2566.99,1246.75c-77.24,29.7-158.55-7.53-158.55-7.53l-33.28-82.45s-65.37,67.91-89.56,89.98c-24.2,22.07-175.7,16.01-175.7,16.01v-41.87l116.87-19.55,21.83-25.93,44.52-52.89,9.03-10.73s50.93-121.77,67.91-137.89c16.97-16.13,101.81-39.5,145.14,39.58,42.31,77.21,51.78,233.28,51.78,233.28Z"/>
      <path class="cls-6" d="M2375.16,1156.78l23.76-33.25s42.48,117.08,62.55,131.09l-14.45-2.26c-13.16-2.06-25.88-6.32-37.63-12.6l-1.32-.7-32.92-82.28Z"/>
      <path class="cls-6" d="M2399.08,960.21c12.75.02,24.48,6.7,34.21,14.43,30.92,25.65,47.14,68.7,58.21,106.29,11.5,40.61,22.09,81.66,30.41,123.06,2.6,13.37,5.35,28.27,7.18,41.75.45,3.53.92,6.99,1.25,10.63.15,1.65-1.07,3.12-2.72,3.26-1.65.15-3.11-1.07-3.26-2.71-3.56-27.5-9.76-55.32-15.85-82.39-6.29-27.34-13.42-54.5-20.77-81.6-4.5-17-9.51-33.57-15.97-49.81-11.26-27.56-27.76-58.28-53.55-74.55-5.81-3.52-12.3-6.53-19.09-7.27-.32,0-.59-.28-.56-.6.02-.28.25-.49.53-.5h0Z"/>
      <path class="cls-6" d="M2437.03,957.92c13.77,2.61,25.97,10.35,36.65,19.16,29.29,25.15,45.87,61.62,56.48,98.02,12.68,42.9,24.24,86.26,32.35,130.29,2.39,13.72,4.64,27.2,5.69,41.2.12,1.66-1.13,3.09-2.79,3.21-1.69.12-3.15-1.19-3.22-2.89-1.08-13.42-3.41-27.08-5.81-40.41-8.37-45.48-20.33-90.28-33.45-134.62-12.97-43-37.3-93.56-81.22-111.52-1.59-.6-3.24-1.15-4.86-1.53-.25-.06-.41-.31-.35-.56.06-.24.29-.39.53-.36h0Z"/>
      <path class="cls-8" d="M2374.25,891.17c.78,12.05-26.59-11.75-40.73-25.96-9.61-9.65-20.23-9.21-26.06-7.95-2.75.6-4.43,1.38-4.43,1.38l-1.76-15.56s28.57-5.95,29.99-5.95,45.27,19.53,45.27,19.53c0,0-2.18,4.45-2.62,17.47-.15,4.57-.09,10.19.35,17.05Z"/>
      <path class="cls-2" d="M947.99,1255.28c0,33.02-9.14,63.96-25.01,90.4h-302.32c-15.87-26.44-25.01-57.37-25.01-90.4,0-97.15,79.03-176.18,176.16-176.18s176.18,79.03,176.18,176.18Z"/>
      <circle class="cls-9" cx="761.13" cy="1265.26" r="52.87"/>
      <polygon class="cls-10" points="963.34 1636.25 982.89 1559.6 941.36 1546.75 921.61 1610.57 963.34 1636.25"/>
      <path class="cls-5" d="M907.24,1631.33s-4.54,21.43,11.34,22.8l93.53,6.21c5.4.47,10.12-3.03,10.53-7.82l.49-5.62c.33-3.8-2.16-8.68-6.38-9.29-77.01-11.1-95.97-30.7-95.97-30.7-9.35,3.25-12.5,12.46-13.54,24.42Z"/>
      <polygon class="cls-10" points="329.01 1565.98 343.57 1488.23 301.29 1478.09 285.71 1543.06 329.01 1565.98"/>
      <path class="cls-5" d="M274.22,1564.7s-3.15,21.68,12.79,22.02l93.73.14c5.42.12,9.9-3.68,10-8.48l.12-5.64c.08-3.81-2.72-8.52-6.97-8.86-77.56-6.09-97.75-24.42-97.75-24.42-9.12,3.84-11.67,13.24-11.93,25.25Z"/>
      <path class="cls-20" d="M919.27,1575.9c40.68-127.42,109.78-173,109.78-173l-44.48-142.44c-7.1-22.73-7.97-61.64-3.99-93.95,2.53-20.53,10.68-39.94,23.48-56.19h0l5.73,2.55c36.48,16.27,58.9,24.44,98.15,17.04l27.2-5.99s5.76,52.13,5.66,71.67c-.23,43.62-47.05,75.8-36.76,170.55,1.45,13.36,1.65,24.62,2.09,33.61.81,16.84-4.24,33.43-14.39,46.9l-117.08,155.39s-60.03-11.56-55.38-26.15Z"/>
      <path class="cls-6" d="M1083.99,1248.66l64.15,179.24s11.76,88.21,33.82,155.84l48.52-7.35-7.14-181.98c-.58-14.77-4.1-29.28-10.36-42.67l-62.67-134.17,2.32-31.15-68.63,62.24Z"/>
      <circle class="cls-8" cx="1354.28" cy="1543.79" r="180.22"/>
      <path class="cls-15" d="M1319.31,1332.62s6.16,10.17,12.79,13.61c.92.48,1.91.77,2.92.9.65.09,1.32.1,1.98.04,0,0,0,0,0,0,.36-.03.72-.08,1.08-.16l21.71-4.6c2.79-.59,5.54.26,7.5,2.04,0,0,0,0,0,0l24.22,14.08.1.06,4.21,2.45c.77.45,2.48,1.65,3.81,2.49.32.2.54.5.65.83.13.39.11.82-.09,1.21-.59,1.16-1.45,2.82-2.12,3.97h0c-1.73,2.97-5.53,3.98-8.5,2.25l-24.77-14.4-4.64.98-8.87,1.88h0l12.42,2.57c3.36.7,5.52,3.99,4.83,7.35-.7,3.36-3.99,5.52-7.35,4.83l-16.2-3.36-11.11,2.35c-7.95,1.68-14.33-1.23-19.53-7.47-.38-.45-.71-.89-.98-1.28-3.8-5.48-23.83-28.41-23.83-28.41l29.78-4.19Z"/>
      <path class="cls-15" d="M1300.27,1368.28h40.3c2.26,0,4.09,1.83,4.09,4.09v6.01c0,2.26-1.83,4.09-4.09,4.09h-40.3c-1.05,0-1.91-.86-1.91-1.91v-10.37c0-1.05.86-1.91,1.91-1.91Z" transform="translate(1035.11 -510.36) rotate(35.22)"/>
      <path class="cls-10" d="M1258,1329.75s11.59,22.85,13.47,24.02c1,.62,2.1,1.07,3.23,1.32.73.16,1.48.24,2.24.24,0,0,0,0,0,0,.41,0,.83-.02,1.24-.07l25.14-3.04c3.22-.39,6.27.85,8.32,3.07,0,0,0,0,0,0l26.11,18.43.1.07,4.54,3.21c.83.59,2.65,2.12,4.08,3.21.34.26.56.62.66,1.01.11.45.04.94-.23,1.37-.78,1.26-1.93,3.06-2.81,4.3h0c-2.26,3.2-6.69,3.97-9.89,1.7l-13.7-9.67-27.87,3.92-9.09,1.1-12.86,1.56c-9.21,1.12-16.16-2.83-21.45-10.45-.38-.55-.71-1.08-.99-1.56-3.77-6.6-24.23-34.69-24.23-34.69l33.98-9.04Z"/>
      <g>
        <path class="cls-8" d="M1259.32,965.28c-3.3,7.44-1.27,10.9,2.09,12.42l17.82-17.08c3.54-4.92,3.82-6.57,2.5-12.26-3.3-14.29-4.23-31.95,4.33-39.07,10.73-8.94,14.96-.28,15.88,6.19.02.16.06.31.08.4-.19,4.83-.68,10.75-1.67,17.95-1.75,12.65,14.22-17.25,30.22-31.14,10.86-9.44,36.75-1.28,42.81.5,5.33,6.22,3.69,12.63,3.69,12.63,0,0,3.37,2.91,2.3,9.07,18.19-6.02,26.87-12.66,28.24-32.06,1.69-23.89-6.97-29.78-49.68-30.29-14.32-.17-36.33-14.14-50.39-17.42-14.04-3.3-35.82,3.66-46.34,30.75-10.52,27.09,5.71,72.23-1.88,89.41Z"/>
        <path class="cls-10" d="M1261.42,977.7l17.82-17.08c3.54-4.92,3.82-6.57,2.5-12.26-3.3-14.29-4.23-31.95,4.33-39.07,3.49-2.9,8.81-5.81,12.6-1.81,2.98,3.15,3.51,7.78,3.24,11.92-.32,4.81-.88,9.64-1.54,14.42-1.75,12.65,15.69-18.36,31.69-32.25,10.86-9.44,35.28-.17,41.33,1.61,5.33,6.22,3.15,16.49,2.09,22.66-3.44,19.71-12.43,63.05-27.43,79.26-11.24,12.15-26.58,10.47-37.72,6.78l-37.6,40.19-44.3-42.74,32.99-31.64Z"/>
        <path class="cls-8" d="M1299.63,943.77s17.82-10.8,27.95-29.42c8.71-16,29.89,22.94,51.8,10.53,4.27-2.42,8.02-34.42,8.02-34.42l-19.25-13.49s-30.77-2.24-32.25-2.05c-1.48.2-44.71,26.79-44.71,26.79,0,0,13.31-4.45,12.04,9.26-1.72,18.54-4.09,25.56-3.59,32.8Z"/>
      </g>
      <path class="cls-17" d="M1272.11,1339.57l-43.38,16.62-87.95-137.92c-2.33-3.51-5.66-94.34-5.66-94.34l-9.04,2.57s-61.7,26.1-122.03-16.17c0,0,86.83-127.42,252.15-127.42,0,0-2.48,13.3,2.31,39.38,1.69,9.19,7.12,15.96,21.82,15.96,6.29,0,13.06-8.29,13.06-8.29,0,0,15.32,27.76,13.36,74.16-1.25,29.62-8.71,62.44-13.93,82.3-3.31,12.58-3.57,25.77-.77,38.47l37.58,117.86-36.71,11.8-52.63-128.49c-1.57-4.18-2.41-8.6-2.47-13.06l-.99-80.78-33.33,28.75-3.37,41.12c-.36,4.43.45,8.88,2.36,12.9l69.6,124.57Z"/>
      <polygon class="cls-20" points="1202.34 1165.67 1201.78 1110.33 1236.84 1132.22 1202.34 1165.67"/>
      <path class="cls-6" d="M1230.1,1129.15c24.98-16.79,48.12-39.46,57.67-68.66,3.34-9.78,4.71-19.96,5.11-30.37,2.77,10.21,2.97,21.33.6,31.92-3.47,15.95-12.09,30.39-22.58,42.71-10.66,12.18-23.17,22.68-37.4,30.46-3.98,1.98-7.17-3.67-3.4-6.05h0Z"/>
      <path class="cls-6" d="M1203.63,1112.21c23.38-22.19,37.97-54.39,36.32-86.85-.67-10.56-3.95-21.22-11.24-29.14-4.17-4.47-9.43-8.2-15.5-10.32,6.51.74,12.7,3.73,17.78,7.91,25.15,20.96,16.75,68.04,2.19,93.21-6.57,11.56-14.82,22.19-25.2,30.6-3.61,2.68-7.77-2.42-4.36-5.41h0Z"/>
      <g>
        <path class="cls-15" d="M669.3,998.94h39.74c2.63,0,4.76,2.13,4.76,4.76v4.79c0,2.63-2.13,4.76-4.76,4.76h-39.74c-1.23,0-2.22-1-2.22-2.22v-9.87c0-1.23,1-2.22,2.22-2.22Z" transform="translate(339.69 -162.62) rotate(17.75)"/>
        <path class="cls-15" d="M654.08,1011.37h23.77c2.63,0,4.76,2.13,4.76,4.76v4.79c0,2.63-2.13,4.76-4.76,4.76h-23.77v-14.32h0Z" transform="translate(-12.64 8.41) rotate(-.71)"/>
        <path class="cls-15" d="M604.92,1017.54l7.1-22.79s1.79.43,4.4,1.05c6.23,1.49,17.13,4.1,19.29,4.66,1.15.3,2.34.39,3.51.29.76-.07,1.5-.21,2.23-.44,0,0,0,0,0,0,.4-.12.79-.27,1.17-.45l23.28-10.55c2.99-1.35,6.29-1.08,8.94.43,1.72.99,3.16,2.51,4.04,4.46l.36.8,3.04,6.71-7.05,3.19-4.97,2.25-9.51,4.31-.42.19-.11.05,4.67,10.32-8.42,3.81-11.91,5.4c-8.53,3.86-16.42,2.17-23.82-3.57-.54-.42-1.01-.82-1.42-1.2-5.63-5.22-14.41-8.93-14.41-8.93Z"/>
        <path class="cls-15" d="M716.88,1003.96c-.21-.35-.53-.63-.94-.78-1.7-.61-3.92-1.54-4.9-1.85l-5.34-1.71-.12-.04-32.21-10.31-4.37,13.64,37.68,12.06c3.77,1.21,7.8-.87,9-4.63h0c.47-1.46,1.03-3.54,1.4-4.99.13-.49.04-.98-.2-1.38Z"/>
        <path class="cls-15" d="M612.06,1002.42l4.71-6.72c6.23,1.49,17.13,4.1,19.29,4.66,1.15.3,2.34.39,3.51.29.76-.07,1.5-.21,2.23-.44-.25.12-21.4,9.37-29.75,2.21Z"/>
      </g>
      <path class="cls-7" d="M1009.18,958.26s-288.84-271.32-419.78-323.52c-11.81-4.71-14.67-20.55-8.77-31.81h0c30.42,6.36,175.8,74.62,410.5,309.74,10.16,10.18-30.32,2.46,0,0l18.06,45.59Z"/>
      <path class="cls-16" d="M2149.63,682.57c-10.91,0-21.51-2.1-31.51-6.24-3.83-1.59-5.66-5.98-4.07-9.82,1.59-3.83,5.98-5.66,9.82-4.07,8.15,3.38,16.81,5.09,25.72,5.09.03,0,.06,0,.09,0,4.15,0,7.52,3.36,7.52,7.52s-3.33,7.48-7.45,7.52c-.03,0-.07,0-.1,0ZM2149.67,675.17h0s0-.11,0-.11v.11ZM2178.34,676.88c-2.95,0-5.74-1.74-6.94-4.64-1.59-3.83.23-8.23,4.06-9.82,8.2-3.4,15.55-8.33,21.85-14.64,2.93-2.94,7.69-2.94,10.63,0,2.94,2.93,2.94,7.69,0,10.63-7.71,7.71-16.7,13.73-26.72,17.89-.94.39-1.92.58-2.88.58ZM2096.68,660.67c-1.92,0-3.84-.73-5.31-2.2-7.71-7.7-13.74-16.69-17.91-26.71-1.59-3.83.22-8.23,4.05-9.82,3.83-1.6,8.23.22,9.82,4.05,3.41,8.19,8.33,15.54,14.65,21.85,2.94,2.93,2.94,7.69,0,10.63-1.47,1.47-3.39,2.21-5.32,2.21ZM2218.87,636.32c-.96,0-1.93-.18-2.88-.57-3.83-1.59-5.65-5.99-4.06-9.82,3.39-8.18,5.11-16.86,5.11-25.79v-.17c0-4.15,3.36-7.52,7.51-7.52s7.52,3.36,7.52,7.52v.05s0,.1,0,.11c0,10.92-2.1,21.54-6.25,31.55-1.2,2.89-4,4.64-6.95,4.64ZM2074.7,607.73c-4.14,0-7.49-3.34-7.52-7.47,0-.04,0-.09,0-.13,0-10.89,2.09-21.48,6.22-31.46,1.58-3.84,5.98-5.66,9.82-4.08,3.84,1.59,5.66,5.98,4.08,9.82-3.37,8.15-5.08,16.79-5.08,25.68,0,.05,0,.09,0,.13,0,4.15-3.37,7.52-7.52,7.52ZM2074.17,600.21h.53-.51s-.02,0-.02,0ZM2218.82,578.82c-2.94,0-5.74-1.74-6.94-4.62-3.42-8.19-8.35-15.54-14.67-21.83-2.94-2.93-2.95-7.69-.02-10.63,2.93-2.94,7.69-2.95,10.63-.02,7.72,7.69,13.76,16.67,17.94,26.69,1.6,3.83-.21,8.23-4.04,9.83-.95.39-1.93.58-2.89.58ZM2096.57,554.73c-1.92,0-3.84-.73-5.31-2.19-2.94-2.93-2.95-7.69-.01-10.63,7.7-7.72,16.68-13.75,26.7-17.92,3.83-1.6,8.23.22,9.83,4.05,1.6,3.83-.22,8.23-4.05,9.83-8.19,3.41-15.54,8.34-21.84,14.66-1.47,1.47-3.39,2.21-5.32,2.21ZM2178.18,538.35c-.96,0-1.93-.18-2.86-.57-8.15-3.36-16.79-5.07-25.69-5.07h-.12c-4.15,0-7.52-3.36-7.52-7.52s3.37-7.52,7.52-7.52h.12c10.88,0,21.45,2.09,31.42,6.2,3.84,1.58,5.66,5.98,4.08,9.81-1.2,2.9-4,4.65-6.95,4.65Z"/>
      <g>
        <path class="cls-16" d="M1933.21,379.22c-1.92,0-3.85-.73-5.31-2.2l-88.2-88.2c-2.93-2.94-2.93-7.69,0-10.63,2.94-2.93,7.69-2.93,10.63,0l88.2,88.2c2.93,2.94,2.93,7.69,0,10.63-1.47,1.47-3.39,2.2-5.31,2.2Z"/>
        <path class="cls-16" d="M1845.01,379.22c-1.92,0-3.85-.73-5.31-2.2-2.93-2.94-2.93-7.69,0-10.63l88.2-88.2c2.94-2.93,7.69-2.93,10.63,0,2.93,2.94,2.93,7.69,0,10.63l-88.2,88.2c-1.47,1.47-3.39,2.2-5.31,2.2Z"/>
      </g>
      <g>
        <path class="cls-16" d="M2471.87,721.27c-4.15,0-7.52-3.37-7.52-7.52v-62.37c0-4.15,3.37-7.52,7.52-7.52s7.52,3.36,7.52,7.52v62.37c0,4.15-3.37,7.52-7.52,7.52Z"/>
        <path class="cls-16" d="M2503.05,690.09h-62.37c-4.15,0-7.52-3.37-7.52-7.52s3.37-7.52,7.52-7.52h62.37c4.15,0,7.52,3.37,7.52,7.52s-3.37,7.52-7.52,7.52Z"/>
      </g>
      <g>
        <path class="cls-16" d="M622.05,511.83c-1.92,0-3.85-.73-5.31-2.2-2.94-2.94-2.94-7.69,0-10.63l44.1-44.1c2.94-2.93,7.69-2.93,10.63,0,2.94,2.94,2.94,7.69,0,10.63l-44.1,44.1c-1.47,1.47-3.39,2.2-5.31,2.2Z"/>
        <path class="cls-16" d="M666.15,511.83c-1.92,0-3.85-.73-5.31-2.2l-44.1-44.1c-2.94-2.93-2.94-7.69,0-10.63,2.94-2.93,7.69-2.93,10.63,0l44.1,44.1c2.94,2.94,2.94,7.69,0,10.63-1.47,1.47-3.39,2.2-5.31,2.2Z"/>
      </g>
      <path class="cls-6" d="M417.72,1186.34s1.06,87.81-.05,127.82-81.34,223.94-81.34,223.94l-50.05-10.53s-4.21-100.64,31.36-212.9l-16.37-170.57,116.45,42.24Z"/>
      <path class="cls-17" d="M449.6,913.04l13.86,59.66-24.66,97.76-138.15-30.5,12-78.42s-.87-128.18,30.51-177.83c31.39-49.65,100.69-10.1,100.69-10.1l64.64,141.74,119.29,81.15-10.99,16.83-167.19-100.29Z"/>
      <polygon class="cls-20" points="439.78 1075.09 416.9 1068.21 441.23 951.98 463.46 972.7 439.78 1075.09"/>
      <circle class="cls-4" cx="1353.85" cy="1543.79" r="90.16"/>
      <path class="cls-9" d="M1269.33,1543.79c0,46.84,38.11,84.95,84.95,84.95s84.95-38.11,84.95-84.95-38.11-84.95-84.95-84.95-84.95,38.11-84.95,84.95ZM1275.87,1538.68c.2-3.11,3-5.4,6.09-5.02l33.07,4.05c2.83.35,4.89,2.82,4.77,5.66-.02.5-.03,1.01-.03,1.51v.05c0,2.75-1.98,5.1-4.7,5.47l-32.96,4.51c-3.1.42-5.92-1.85-6.16-4.97-.16-2.03-.24-4.08-.24-6.15,0-1.72.06-3.42.17-5.11ZM1432.62,1549.86c-.24,3.09-3.01,5.37-6.09,4.99l-33.82-4.14c-2.76-.34-4.8-2.7-4.77-5.48,0-.11,0-.22,0-.33,0-.25,0-.5,0-.74-.06-2.75,1.97-5.1,4.7-5.48l33.91-4.64c3.12-.43,5.97,1.88,6.16,5.02.09,1.57.14,3.15.14,4.74,0,2.04-.08,4.06-.23,6.07ZM1329.61,1514.2l-21.47-26.91c-1.96-2.45-1.44-6.05,1.14-7.85,3.39-2.38,6.98-4.5,10.73-6.32,2.8-1.37,6.18-.06,7.38,2.82l13.2,31.85c1.07,2.59.02,5.58-2.47,6.88-.52.27-1.04.56-1.55.86-2.31,1.36-5.28.77-6.95-1.33ZM1368.08,1508.44l13.06-32.47c1.17-2.91,4.57-4.25,7.39-2.88,3.76,1.83,7.35,3.95,10.75,6.33,2.55,1.79,3.09,5.34,1.19,7.8l-21.33,27.52c-1.7,2.2-4.8,2.78-7.15,1.3-.49-.31-.99-.6-1.49-.89-2.37-1.33-3.43-4.18-2.42-6.71ZM1378.72,1574.26l21.11,26.46c1.97,2.47,1.43,6.09-1.18,7.88-3.41,2.34-7.02,4.43-10.79,6.22-2.8,1.33-6.14.02-7.33-2.84l-12.95-31.24c-1.08-2.61,0-5.63,2.52-6.91.54-.27,1.07-.56,1.59-.86,2.35-1.35,5.33-.83,7.02,1.29ZM1340.21,1580.72l-12.49,31.05c-1.18,2.92-4.58,4.24-7.41,2.87-3.64-1.75-7.12-3.78-10.42-6.05-2.58-1.77-3.14-5.35-1.22-7.82l20.47-26.4c1.66-2.14,4.62-2.68,6.97-1.34.51.29,1.03.57,1.56.83,2.51,1.26,3.6,4.26,2.55,6.86Z"/>
      <polygon class="cls-10" points="641.18 1025.21 625.68 1054.53 597.89 1038.57 616.57 1011.04 641.18 1025.21"/>
      <path class="cls-9" d="M631.83,1013.32l-23.48,41.22s-113.72-50.28-156.45-88.39c-29.98-26.74-69.01-97.45-89.62-137.26-17.32-33.44,7.92-73.7,45.52-71.67.76.04,1.54.09,2.32.16,32.3,2.73,79.89,168.66,79.89,168.66l141.82,87.27Z"/>
      <path class="cls-6" d="M399.87,757.55c-12.89,1.03-24.84,7.85-33.93,16.78-27.46,28.63-32.28,70.98-33.69,109.04-1.34,39.76-4.84,79.56-11.59,118.8-1.96,12.41-5.07,25.15-7.04,37.26,0,.03,0,.05,0,0l-.03-.17c-.36-1.68-2.55-2.62-4.04-1.74-.12.07-.14.08-.21.13-.13.1-.12.09-.19.15,3.33-2.81,7.18,2.26,3.66,4.76-2.11,1.53-5,.14-5.19-2.47-.11-3.38.8-6.54,1.3-9.8,0,0,1.8-9.74,1.8-9.74,3.61-19.43,6.43-38.98,8.74-58.61,3.03-26.17,4.86-52.48,5.98-78.83,1.31-33.01,5.76-68.35,24.11-96.64,9.32-14.09,23.41-25.93,40.28-29.26,3.33-.65,6.68-1.01,10.1-.77.3.02.53.28.51.59-.02.3-.27.51-.56.51h0Z"/>
      <polygon class="cls-10" points="576.11 1559.13 566.09 1480.66 522.74 1484 527.86 1550.6 576.11 1559.13"/>
      <path class="cls-5" d="M517.66,1569.94s-1.38,21.86,14.53,20.91l93.44-7.46c5.41-.32,9.57-4.47,9.28-9.27l-.34-5.63c-.23-3.81-3.4-8.28-7.66-8.26-77.8.22-99.41-16.42-99.41-16.42-8.78,4.57-10.56,14.15-9.84,26.13Z"/>
      <path class="cls-20" d="M577.65,1536.1l-54.96,2.35s-59.96-84.3-79.62-206.46c0,0-92.51-123.94-145.91-191.94-41-52.22,4.41-111.13,4.41-111.13l137.05,43.81,93.71,202.01c6.32,13.63,10.75,28.06,13.16,42.89l32.16,218.46Z"/>
      <rect class="cls-7" x="881.31" y="1377.64" width="116.86" height="32.62"/>
      <rect class="cls-7" x="909.27" y="1359.84" width="60.95" height="32.62" transform="translate(2315.89 436.4) rotate(90)"/>
      <polygon class="cls-2" points="977.35 928.95 718.58 1003.84 664.9 1022.03 1009.18 958.26 977.35 928.95"/>
      <path class="cls-9" d="M638.39,1093.8l8.59-4.92,8.84,4.96.25,9.89-8.59,4.92-8.84-4.96-.25-9.89ZM639.09,1113.15c8.41,4.72,18.94,1.96,23.52-6.17,2.63-4.67,2.72-10.1.73-14.76l35.34-62.7c4.94.36,9.85-.82,13.99-3.34,3.2-1.95,5.94-4.7,7.9-8.16,2.76-4.9,3.48-10.4,2.43-15.58l-7.03,12.48c-6.03.33-11.93-1.12-17.02-3.99-2.75-1.55-5.27-3.5-7.46-5.81-1.86-1.97-3.48-4.2-4.79-6.64l8.46-15.01c-2.94.5-5.76,1.55-8.29,3.1-3.17,1.94-5.89,4.68-7.83,8.12-1.45,2.58-2.34,5.33-2.7,8.11-.71,5.46.61,11.04,3.65,15.71l-35.56,63.09c-5.03.72-9.63,3.62-12.26,8.29-4.58,8.13-1.48,18.55,6.93,23.27Z"/>
      <g>
        <path class="cls-10" d="M626.24,1045.57l2.57-6.81.4-1.06,6.11-16.19c1.35-3.57,3.25-7.03,7.13-9.28,3.25-1.88,6.23-4.18,8.83-6.86l8.52-8.8.41-.4,8.82-8.49.11-.1c.69-.89,1.75-1.19,2.62-.83.21.09.42.22.6.39,4.2,3.94,5.28,10.51,3.12,16.24-.58,1.54-1.39,3.02-2.44,4.37l-3.54,4.56c-6.3,8.34-8.23,15.29-8.82,18.74-.73,4.28-3.19,8.08-6.92,10.35-2.96,1.8-6.5,2.65-10.11,2.35,6.4,4.28,9.32,12.39,6.57,19.66l-4,10.61-8.18-3.16c-10.28-3.97-15.57-15.3-11.8-25.29Z"/>
        <polygon class="cls-10" points="643.44 1072.95 635.7 1038.43 662.58 1015.04 689.34 1027.76 665.29 1081.39 643.44 1072.95"/>
        <path class="cls-10" d="M669.45,1026.87l.64-1.31c1.51-3.11,5.34-4.37,8.55-2.8l18,8.78c3.21,1.57,4.59,5.36,3.08,8.48l-.64,1.31c-1.51,3.11-5.34,4.37-8.55,2.8l-18-8.78c-3.21-1.57-4.59-5.36-3.08-8.48Z"/>
        <path class="cls-10" d="M662.4,1040.47l.59-1.33c1.41-3.16,5.19-4.53,8.45-3.06l18.26,8.23c3.26,1.47,4.76,5.22,3.35,8.38l-.59,1.33c-1.41,3.16-5.19,4.53-8.45,3.06l-18.26-8.24c-3.26-1.47-4.76-5.22-3.35-8.38Z"/>
        <path class="cls-10" d="M656.14,1054.53l.55-1.36c1.29-3.21,5.02-4.71,8.33-3.35l18.52,7.61c3.31,1.36,4.94,5.06,3.64,8.27l-.55,1.36c-1.29,3.21-5.02,4.71-8.33,3.35l-18.52-7.61c-3.31-1.36-4.94-5.06-3.64-8.27Z"/>
        <path class="cls-10" d="M650.3,1069.23l.47-1.38c1.12-3.28,4.75-4.97,8.13-3.79l18.88,6.65c3.37,1.19,5.2,4.81,4.08,8.08l-.47,1.38c-1.12,3.28-4.75,4.97-8.13,3.79l-18.88-6.65c-3.37-1.19-5.2-4.81-4.08-8.08Z"/>
      </g>
      <path class="cls-2" d="M785.69,989.66c-1.75,0-3.31-1.22-3.68-3l-53.29-259.31c-.42-2.03.89-4.02,2.92-4.44,2.03-.42,4.02.89,4.44,2.92l53.29,259.3c.42,2.03-.89,4.02-2.92,4.44-.25.05-.51.08-.76.08Z"/>
      <path class="cls-2" d="M600.33,638.47c28.71,13.42,56.14,30.23,82.65,47.58,26.26,17.3,52.74,36.17,77.92,54.97,16.28,12.06,34.51,26.26,50.33,38.83,14.21,11.45,35.39,28.63,49.02,40.45,16.41,13.65,37.82,32.78,53.88,46.99,11.03,9.81,29.86,27.65,40.82,37.75,15.34,14.6,30.43,29.46,45.58,44.25,3.27,3.25-1.25,8.89-5.27,5.36-8.01-7.6-26.84-25.44-34.44-32.73-27.61-26.12-59.49-54.56-88.09-79.63-11.07-9.38-25.17-21.31-36.25-30.69-21.14-17.38-46.38-37.73-67.95-54.41-37.56-28.82-76.41-56.62-115.87-82.76-17.53-11.74-35.22-23.29-53.17-34.42-.41-.26-.54-.8-.28-1.21.24-.38.72-.52,1.11-.34h0Z"/>
    </g>
  </g>
</svg>