<?xml version="1.0" encoding="UTF-8"?>
<svg id="Layer_2" data-name="Layer 2" xmlns="http://www.w3.org/2000/svg" viewBox="0 0 443.9 332.05">
  <defs>
    <style>
      .cls-1 {
        fill: #398fb9;
      }

      .cls-2 {
        fill: #3a8f92;
      }

      .cls-3 {
        fill: #20759e;
      }

      .cls-4 {
        fill: #f17f68;
      }

      .cls-5 {
        fill: #a36556;
      }

      .cls-6 {
        fill: #edf8ff;
      }

      .cls-7 {
        fill: #ffa53d;
      }

      .cls-8 {
        fill: #254d62;
      }

      .cls-9 {
        fill: #88cefc;
      }

      .cls-10 {
        fill: #22343c;
      }

      .cls-11 {
        fill: #ffc982;
      }

      .cls-12 {
        fill: #2f627c;
      }

      .cls-13 {
        fill: #65bceb;
      }

      .cls-14 {
        fill: #ffbd66;
      }

      .cls-15 {
        fill: #402013;
      }

      .cls-16 {
        fill: #12252e;
      }

      .cls-17 {
        fill: #ffa18a;
      }

      .cls-18 {
        fill: #87d4c7;
      }

      .cls-19 {
        fill: #61a5a8;
      }

      .cls-20 {
        fill: #1c6f73;
      }

      .cls-21 {
        fill: #bf7765;
      }
    </style>
  </defs>
  <g id="_1" data-name=" 1">
    <g>
      <path class="cls-6" d="M422.6,319.18s27.33-89.29,20.08-147.16c-7.44-59.36-54.93-119.06-117.41-114.49-42.85,3.13-50.74-13.84-68.8-31.07C227.53-1.16,183.62-9.27,148.19,12.29c-38.8,23.61-38.04,59.79-56.06,81.93-18.02,22.15-50.56-1.55-81.88,66.45-28.14,61.11,10.54,158.5,10.54,158.5h401.81Z"/>
      <path class="cls-18" d="M16.66,319.76c0,6.79,91.83,12.29,205.11,12.29s205.1-5.5,205.1-12.29-91.83-12.28-205.1-12.28-205.11,5.5-205.11,12.28Z"/>
      <g>
        <g>
          <path class="cls-14" d="M320.68,63.21h55.87c2.8,0,5.08,2.28,5.08,5.08v242.73c0,2.8-2.28,5.08-5.08,5.08h-55.87c-2.8,0-5.08-2.28-5.08-5.08V68.29c0-2.8,2.28-5.08,5.08-5.08Z"/>
          <path class="cls-7" d="M315.6,127.03v183.98c0,2.79,2.28,5.08,5.08,5.08h55.87c2.79,0,5.08-2.29,5.08-5.08V127.03h-66.03Z"/>
          <path class="cls-14" d="M315.6,242.85v68.17c0,2.79,2.28,5.08,5.08,5.08h55.87c2.79,0,5.08-2.29,5.08-5.08v-68.17h-66.03Z"/>
          <g>
            <path class="cls-7" d="M360.8,127.03c0,6.73-5.46,12.19-12.19,12.19s-12.19-5.46-12.19-12.19,5.46-12.19,12.19-12.19,12.19,5.46,12.19,12.19Z"/>
            <path class="cls-14" d="M343.27,123.37c0-.71.23-1.3.68-1.77.45-.46,1.04-.7,1.75-.7s1.31.23,1.76.7c.45.47.68,1.07.68,1.81v.58c0,.72-.23,1.31-.69,1.76-.45.45-1.03.68-1.73.68s-1.3-.23-1.76-.68c-.46-.45-.69-1.06-.69-1.82v-.57ZM344.4,124c0,.43.12.78.36,1.05.24.28.56.41.97.41s.7-.14.93-.4c.24-.27.36-.63.36-1.1v-.6c0-.43-.12-.78-.35-1.06-.23-.28-.55-.42-.96-.42s-.72.14-.96.42c-.23.28-.35.64-.35,1.09v.6ZM346.07,132.09l-.86-.54,5.82-9.31.86.54-5.81,9.31ZM349.07,130.07c0-.71.23-1.3.68-1.76.46-.46,1.04-.69,1.76-.69s1.3.23,1.76.69c.46.46.69,1.07.69,1.82v.58c0,.71-.22,1.3-.68,1.76-.46.46-1.04.69-1.75.69s-1.29-.23-1.76-.68c-.46-.46-.7-1.06-.7-1.82v-.59ZM350.2,130.71c0,.43.12.79.36,1.06.24.28.56.42.96.42s.71-.14.94-.41c.23-.27.35-.64.35-1.1v-.61c0-.43-.12-.78-.36-1.06-.24-.27-.55-.41-.95-.41s-.7.13-.95.4c-.24.27-.36.64-.36,1.1v.61Z"/>
          </g>
          <g>
            <path class="cls-14" d="M360.8,242.85c0,6.73-5.46,12.19-12.19,12.19s-12.19-5.46-12.19-12.19,5.46-12.19,12.19-12.19,12.19,5.46,12.19,12.19Z"/>
            <path class="cls-7" d="M343.27,239.19c0-.72.23-1.3.68-1.77.45-.46,1.04-.7,1.75-.7s1.31.23,1.76.7c.45.47.68,1.07.68,1.81v.58c0,.72-.23,1.31-.69,1.76-.45.45-1.03.68-1.73.68s-1.3-.23-1.76-.68c-.46-.45-.69-1.06-.69-1.82v-.57ZM344.4,239.81c0,.43.12.78.36,1.05.24.28.56.41.97.41s.7-.13.93-.4c.24-.27.36-.63.36-1.1v-.6c0-.43-.12-.78-.35-1.06-.23-.28-.55-.42-.96-.42s-.72.14-.96.42c-.23.28-.35.64-.35,1.09v.6ZM346.07,247.91l-.86-.54,5.82-9.31.86.54-5.81,9.31ZM349.07,245.89c0-.72.23-1.3.68-1.76.46-.46,1.04-.69,1.76-.69s1.3.23,1.76.69.69,1.07.69,1.83v.58c0,.71-.22,1.3-.68,1.76-.46.46-1.04.69-1.75.69s-1.29-.23-1.76-.68c-.46-.45-.7-1.06-.7-1.82v-.59ZM350.2,246.52c0,.43.12.79.36,1.06.24.27.56.41.96.41s.71-.14.94-.41c.23-.27.35-.64.35-1.1v-.61c0-.43-.12-.79-.36-1.06-.24-.27-.55-.41-.95-.41s-.7.14-.95.41c-.24.27-.36.64-.36,1.09v.61Z"/>
          </g>
          <path class="cls-14" d="M308.22,74.17c-1.57,0-3-.92-3.65-2.35-.65-1.43-.41-3.11.62-4.3l40.39-46.44c.76-.87,1.87-1.38,3.03-1.38s2.26.5,3.03,1.38l40.39,46.44c1.03,1.19,1.27,2.87.62,4.3-.65,1.43-2.08,2.35-3.65,2.35h-80.78Z"/>
        </g>
        <g>
          <path class="cls-2" d="M225.19,140.82h55.87c2.8,0,5.08,2.28,5.08,5.08v165.12c0,2.8-2.28,5.08-5.08,5.08h-55.87c-2.8,0-5.08-2.28-5.08-5.08v-165.12c0-2.8,2.28-5.08,5.08-5.08Z"/>
          <path class="cls-20" d="M220.11,209.31v101.7c0,2.79,2.28,5.08,5.08,5.08h55.87c2.79,0,5.08-2.29,5.08-5.08v-101.7h-66.03Z"/>
          <g>
            <circle class="cls-20" cx="253.12" cy="209.31" r="12.19"/>
            <path class="cls-2" d="M247.78,205.65c0-.71.22-1.3.68-1.77.46-.47,1.04-.7,1.75-.7s1.32.23,1.76.7c.45.47.67,1.07.67,1.81v.58c0,.72-.23,1.31-.68,1.76-.46.45-1.04.68-1.74.68s-1.3-.23-1.76-.68c-.46-.46-.69-1.06-.69-1.82v-.57ZM248.91,206.28c0,.43.12.78.36,1.05.24.27.56.41.97.41s.7-.13.94-.4c.24-.27.36-.63.36-1.1v-.6c0-.43-.12-.78-.35-1.06-.23-.28-.55-.42-.96-.42s-.72.14-.96.42c-.23.28-.35.64-.35,1.09v.6ZM250.58,214.37l-.86-.54,5.82-9.31.86.54-5.81,9.31ZM253.58,212.35c0-.71.23-1.3.68-1.76.46-.46,1.04-.69,1.75-.69s1.3.23,1.76.69c.46.46.69,1.07.69,1.82v.58c0,.71-.23,1.3-.68,1.76-.46.46-1.04.69-1.75.69s-1.29-.23-1.76-.68c-.46-.45-.7-1.06-.7-1.82v-.59ZM254.71,212.98c0,.43.12.79.36,1.06.24.28.56.41.96.41s.71-.13.94-.41c.24-.27.35-.64.35-1.1v-.61c0-.43-.12-.79-.35-1.06-.24-.27-.56-.41-.95-.41s-.7.14-.95.41c-.24.27-.36.63-.36,1.09v.61Z"/>
          </g>
        </g>
        <g>
          <path class="cls-3" d="M129.7,218.44h55.87c2.8,0,5.08,2.28,5.08,5.08v87.5c0,2.8-2.28,5.08-5.08,5.08h-55.87c-2.8,0-5.08-2.28-5.08-5.08v-87.5c0-2.8,2.28-5.08,5.08-5.08Z"/>
          <path class="cls-1" d="M124.62,243.34v67.67c0,2.79,2.29,5.08,5.08,5.08h55.87c2.79,0,5.08-2.29,5.08-5.08v-67.67h-66.03Z"/>
          <g>
            <path class="cls-1" d="M169.83,243.34c0,6.73-5.46,12.19-12.19,12.19s-12.19-5.46-12.19-12.19,5.46-12.19,12.19-12.19,12.19,5.46,12.19,12.19Z"/>
            <path class="cls-3" d="M152.3,239.68c0-.71.23-1.3.68-1.77.46-.46,1.04-.7,1.76-.7s1.31.23,1.76.7c.45.47.67,1.07.67,1.81v.58c0,.72-.23,1.31-.68,1.76-.45.46-1.03.68-1.74.68s-1.3-.23-1.76-.68c-.46-.45-.69-1.06-.69-1.82v-.57ZM153.43,240.31c0,.42.12.77.36,1.05.24.28.56.41.97.41.38,0,.7-.13.93-.4.24-.27.36-.63.36-1.1v-.6c0-.43-.12-.78-.35-1.06-.23-.28-.55-.42-.96-.42s-.72.14-.96.42c-.23.28-.35.64-.35,1.09v.6ZM155.1,248.4l-.86-.54,5.82-9.31.86.54-5.81,9.31ZM158.1,246.38c0-.71.23-1.3.68-1.76.46-.46,1.04-.69,1.76-.69s1.3.23,1.76.69c.46.46.69,1.07.69,1.82v.58c0,.71-.23,1.3-.68,1.76-.45.46-1.04.69-1.74.69s-1.3-.23-1.76-.68c-.46-.45-.7-1.06-.7-1.82v-.59ZM159.23,247.01c0,.43.12.79.36,1.06.24.28.56.41.97.41s.71-.13.94-.41c.23-.27.35-.64.35-1.1v-.61c0-.43-.12-.78-.35-1.06-.24-.27-.55-.41-.95-.41s-.71.13-.95.41c-.24.27-.36.64-.36,1.1v.61Z"/>
          </g>
        </g>
      </g>
      <g>
        <path class="cls-4" d="M184.02,195.34c-1.02-.77-2.24-1.3-3.5-1.45-1.56-.19-6.91,2.14-8.63,2.18,0,0-17.75-6.39-26.42-9.79l-.89,9.52c9.03,1.81,24.66,3.92,26.51,4.08,3.87,1.63,6.65.08,8.09.05,1.56-.03,5.6,1.84,7.49-.21.82-.89-1.44-3.48-2.64-4.38Z"/>
        <g>
          <path class="cls-4" d="M189.78,202.59c-2.6-.32-9.18-1.42-9.74-1.3l.41,16.82c1.21-.23,8.86.26,10.07,0-3.04,14.85,7.03,35.4,7.74,44.5l5.09-.45s.61-34.29-.03-43.94c-.72-10.92-2.65-14.3-13.55-15.63Z"/>
          <path class="cls-16" d="M209.08,263.46c-1-.56-2.08-.95-3.16-1.35-.81-.3-1.77-.56-2.55-.95-1.62.81-5.22.45-5.22.45-.02,1.2-.3,5.31,1.33,6.16,1.66.86,4.99.5,7.02.18,1.62-.25,4.89-.56,4.56-2.46-.17-.99-1.17-1.58-1.99-2.04Z"/>
        </g>
        <g>
          <path class="cls-17" d="M188.78,201.86c-2.6-.26-6.57-.88-9.18-.8l-2.26,19.32c1.23-.05,8.78-1.23,10.01-1.31-4.81,14.67,1.25,32.56.18,42.29l4.96,1.46s5.93-30.87,7.77-40.36c2.58-13.31,1.36-19.29-11.49-20.59Z"/>
          <path class="cls-10" d="M198.08,264.77c-.91-.7-1.92-1.24-2.93-1.79-.76-.41-1.67-.81-2.38-1.31-1.73.56-5.24-.31-5.24-.31-.19,1.19-1.07,5.22.43,6.29,1.52,1.09,4.87,1.22,6.92,1.2,1.64-.01,4.93.15,4.87-1.78-.03-1-.94-1.74-1.68-2.3Z"/>
        </g>
        <path class="cls-16" d="M156.27,147.92c-.28-1.61.63-2.94.58-4.52-.03-1.15-.52-2.15-1.25-3.02-1.04-1.24-2.35-2.19-2.74-3.85-.15-.63-.11-1.24,0-1.84l-3.57-.25c-2.21,1.63-3.96,4.35-5.02,6.45-1.17,2.32-1.96,4.82-2.5,7.36-.51,2.4-.73,4.97.25,7.29,1.79,4.27,7.59,5.5,11.53,3.59,1.85-.9,3.32-2.6,3.82-4.6.61-2.4-.7-4.32-1.09-6.61Z"/>
        <path class="cls-9" d="M189.12,201.89c-3.8-.43-25.4-4.29-29.97-4.91-.31-2.51-1.36-3.66-1.67-6.17-.82.35-26.87-.38-26.78-.34-.38,5.58-1.07,9.77-1.56,15.49-.37,4.4.45,8.67,3.51,12.14,7.19,8.15,37.59,5.09,50.53,3.69,1.1-8.42,5.94-19.9,5.94-19.9Z"/>
        <path class="cls-12" d="M154.82,158.78c-2.27-3.27-6.85-5.2-9.45-6.2l-8.99-.73c-9.3,2.76-12.96,8.14-14.16,14.77-.92,5.06-1.8,18.41-1.8,18.41,2.47.21,3.59.39,7.23.54.46,2.19.94,4.38,1.46,6.56l29.97,1.8c-1.94-3.84-2.28-8.75-1.94-11.56l2.8-.69c0-10.49-2.12-18.57-5.13-22.9Z"/>
        <path class="cls-17" d="M145.37,152.59l.12-2.76c1.16.49,3.08.71,4.17-.13,2.11-1.63,3.01-5.4,2.43-9.69-.27-2.04-.27-3.33-.85-4.64-.5-3.27-7.53-5.89-12.02,6.91-.12,1.68-1.15,2.73-1.15,2.73-.25,2.58-.77,6.67-.77,6.67,6.18,1.84,8.05.91,8.05.91Z"/>
        <path class="cls-4" d="M145.4,149.74c-1.35-.32-2.67-.84-3.71-1.78-.17-.15-.37.15-.2.29,1.07.95,2.42,1.5,3.79,1.82.22.05.34-.28.12-.33h0Z"/>
        <path class="cls-16" d="M152.27,129.94c-1.03-1.93-3.25-2.7-5.42-2.26-6.45-3.48-11.51.75-12.66,3.41-.66,1.53-1.01,3.04-2.09,4.35-.9,1.1-1.99,2.04-2.91,3.13-.76.92-1.38,1.94-1.58,3.13-.31,1.87.42,3.78-.17,5.62-.54,1.66-1.77,3-2.29,4.69-.37,1.21-.42,2.53.16,3.68.51,1.01,1.42,1.76,2.57,1.87.9.08,1.8-.2,2.69.06.86.24,1.57.83,2.35,1.24,2.48,1.3,5.67,1.37,7.65-.84,1.95-2.19,1.64-5.15.16-7.48-1.05-1.65-2.39-3.39-1.54-5.45.75-1.8,2.59-2.42,4.16-3.31,1.19-.67,2.07-1.52,2.63-2.79.76-1.71,1.68-4.25,3.65-5.04,1.14,1.13,2.28,4.38,2.28,4.38.94-2.74,1.83-5.64.36-8.39Z"/>
        <path class="cls-8" d="M137.07,162.03c1.39,7.96,1.14,16.07.22,24.06-.02.23.33.25.35.03.93-8.02,1.17-16.17-.22-24.16-.04-.23-.39-.16-.35.07h0Z"/>
        <path class="cls-8" d="M134.03,186.19c1.14.03,2.28.06,3.43.09.23,0,.25-.35.02-.36-1.14-.03-2.29-.06-3.43-.09-.23,0-.25.35-.03.35h0Z"/>
        <path class="cls-8" d="M147.88,189.99c2.02-4.16,3.32-8.62,3.85-13.22.02-.23-.33-.25-.36-.02-.53,4.56-1.82,8.99-3.83,13.12-.1.21.24.32.34.12h0Z"/>
        <path class="cls-13" d="M137.63,209.28c2.33,6.41,8.46,9.55,14.72,11.4.22.06.32-.28.1-.34-6.13-1.8-12.18-4.86-14.47-11.15-.08-.21-.42-.12-.35.09h0Z"/>
        <path class="cls-13" d="M149.14,215.71c5,2.24,10.48,3.21,15.95,2.8.23-.01.23-.37,0-.36-5.4.4-10.82-.54-15.77-2.75-.2-.09-.39.21-.18.31h0Z"/>
        <path class="cls-16" d="M204.4,179.69c-.38-.26-.84-.13-1.12.21-1.87,2.32-3.74,4.64-5.6,6.96-2.95,3.67-5.92,7.35-8.87,11.02-.57.71-1.15,1.43-1.72,2.14-2.88-.39-5.76-.77-8.64-1.16-4.79-.64-9.58-1.29-14.38-1.93-1.09-.15-2.19-.29-3.28-.44-1.03-.14-1.14,1.47-.11,1.61,2.98.4,5.97.8,8.95,1.2,4.78.64,9.56,1.28,14.34,1.92,1.1.15,2.21.35,3.32.45.45.04.71-.23.96-.54.32-.39.64-.79.95-1.18,2.84-3.53,5.68-7.06,8.53-10.59,2.25-2.8,4.51-5.6,6.77-8.4.04-.05.08-.1.11-.14.28-.34.13-.89-.21-1.12Z"/>
        <path class="cls-17" d="M170.86,189.86c-1.14-.5-2.47-.8-3.73-.69-1.57.14-6.32,3.53-7.99,3.93,0,0-16.99-2.9-25.35-4.36,0-1.51.04-2.9.04-2.9,0,0-8.18-.25-11.88-.66-.03,3.79.5,8.32,2.23,10.26,2.72,3.04,6.01,2.98,9.49,3.06,8.31.19,23.42-1.26,25.47-1.51,4.12.79,6.51-1.3,7.92-1.64,1.52-.36,5.87.63,7.28-1.76.62-1.04-2.11-3.13-3.49-3.74Z"/>
        <path class="cls-8" d="M157.11,182.23s-.01,0-.02,0c-.1-.01-.17-.1-.16-.2,1.46-12-1.6-18.74-2.98-21.09-.05-.09-.02-.2.06-.25.09-.05.2-.02.25.06,1.4,2.38,4.5,9.21,3.02,21.31-.01.09-.09.16-.18.16Z"/>
      </g>
      <g>
        <path class="cls-18" d="M417.33,317.53c.4-.64.72-1.33.9-2.08.46-1.9.03-4.05-1.64-5.22-1.6-1.12-3.76-.97-5.53-.4-.82.26-1.62.62-2.38,1.05.75-1.08,1.44-2.21,2.05-3.37,1.03-1.96,2.04-4.63.24-6.47-1.39-1.42-3.68-1.4-5.49-1.03-2.38.48-4.74,1.55-6.83,2.79-.57.34-1.12.7-1.66,1.08,1.61-2.54,2.89-5.28,3.81-8.16,1.2-3.76,2.47-9.6-1.6-12.16-4.05-2.55-9.36.78-12.69,3.1-4.04,2.82-7.52,6.37-10.53,10.26-2.38,3.08-4.46,6.36-6.34,9.76,0-.92-.15-1.81-.52-2.62-1.23-2.74-4.27-.97-5.87.33-4.02,3.27-6.74,8.05-7.57,13.15h61.66Z"/>
        <path class="cls-20" d="M389.17,295.74c-3.19,7.4-5.43,15.18-6.65,23.15-.06.38.53.55.59.16,1.21-7.91,3.42-15.65,6.58-23.01.15-.36-.37-.67-.52-.31h0Z"/>
        <path class="cls-20" d="M404.32,304.37c-4.31,4.08-7.67,9.04-9.87,14.54-.14.37.44.52.59.16,2.16-5.41,5.48-10.27,9.71-14.27.29-.27-.14-.7-.43-.43h0Z"/>
        <path class="cls-20" d="M412.83,311.79c-2.51,1.62-4.34,4.54-5.88,7.04-.21.33.32.64.53.31.82-1.33,1.7-2.61,2.67-3.83.88-1.11,1.79-2.22,2.99-2.99.33-.21.02-.74-.31-.53h0Z"/>
        <path class="cls-20" d="M365.18,307.57c-1.28,3.68-1.99,7.52-2.11,11.41-.01.39.6.39.61,0,.12-3.84.83-7.62,2.09-11.25.13-.37-.46-.53-.59-.16h0Z"/>
        <path class="cls-20" d="M381.02,306.33c.78,2.28,1.66,4.51,2.64,6.71.16.36.69.05.53-.31-.96-2.15-1.82-4.34-2.58-6.56-.12-.37-.71-.21-.59.16h0Z"/>
        <path class="cls-20" d="M409.15,312.28c-.08,1.09-.06,2.16.04,3.25.04.39.65.39.61,0-.1-1.08-.11-2.16-.04-3.25.03-.39-.58-.39-.61,0h0Z"/>
        <path class="cls-20" d="M365.55,312.28c-.61.73-1.22,1.47-1.83,2.2-.25.3.18.73.43.43.61-.73,1.22-1.47,1.83-2.2.25-.3-.18-.73-.43-.43h0Z"/>
      </g>
      <g>
        <g>
          <polygon class="cls-17" points="55.85 311.64 50.76 311.72 49.27 299.27 56.06 299.27 55.85 311.64"/>
          <path class="cls-16" d="M55.76,310.58c-.52-.74-1.5-.99-2.43-.85-1.08.16-2.74,1.35-3.78,3.58-.77,1.65-1.4,3.71-.47,5.34.51.9,1.41,1.45,2.41,1.61.96.16,2.18.15,3.05-.33.91-.5,1.47-1.45,1.64-2.44.2-1.2.24-2.47.28-3.68.03-1.1-.05-2.3-.7-3.23Z"/>
        </g>
        <g>
          <polygon class="cls-17" points="72.9 312.2 77.79 313.49 82.18 301.86 75.65 300.24 72.9 312.2"/>
          <path class="cls-16" d="M82.67,316.6c-.74-.85-1.62-1.58-2.48-2.31-.65-.54-1.46-1.11-2.05-1.73-1.78.21-5.01-1.33-5.01-1.33-.42,1.11-2.05,4.84-.81,6.17,1.25,1.35,4.47,2.13,6.46,2.51,1.59.31,4.74,1.11,5.06-.77.17-.98-.57-1.86-1.17-2.56Z"/>
        </g>
        <path class="cls-17" d="M91.48,170.02l6.24,1.38s.64-5.1.92-6.75c2.3-1.87,3.34-6.13,3.47-6.74.12-.54.29-1.1.25-1.65-.04-.56-.47-3.82-3.14-3.21l.26-.71c.27-.71.57-1.42.75-2.16.09-.38.3-1.12-.09-1.42-.38-.3-.81.05-1.02.36-.38.57-.7,1.19-1.02,1.8-.57,1.11-1.06,2.26-1.47,3.44.1-.64.12-1.28,0-1.92-.06-.38-.17-.88-.6-.97-.31-.07-.53.1-.61.39-.09.32-.07.7-.14,1.03-.08.4-.2.79-.34,1.17-.51,1.4-.92,2.7-.95,4.21-.02,1.38-.09,3.56.12,4.92-.84,2.58-1.61,4.52-2.65,6.83Z"/>
        <path class="cls-12" d="M82.05,224.87h-42.3c.17,11.25,5.03,31.63,5.03,44.3,0,14.86,3.1,33.82,3.86,39.56l8.11.27c3.02-20.78,4.8-58.63,6.62-67.34,1.83,3.43,9.34,20.44,12.19,27.68-1.25,12.71-2.85,27.18-3.42,39.91l8.34,1.99s10.73-34.46,10.73-45.02-7.36-34.83-9.17-41.34Z"/>
        <path class="cls-17" d="M63.31,155.75l-.05-2.93c1.26.44,3.3.55,4.4-.42,2.13-1.87,2.82-5.92,1.93-10.41-.43-2.14-.61-5.84-1.31-7.19-.71-2.07-2.15-2.9-6.52-1.99-1.93.4-5.46,12.45-5.62,12.43-.02,1.78-1.03,2.96-1.03,2.96-.09,2.74-.37,7.11-.37,7.11,3.57,1.31,8.57.42,8.57.42Z"/>
        <path class="cls-18" d="M91.77,168.06c-1.64,2.95-2.99,6.04-4.06,9.23-1.96-4.79-6.82-13.43-9-15.81-3.12-3.39-8.74-4.76-15.41-5.96l-9.13-.2c-7.12,1-14.39,4.37-16.54,8.18-2.72,4.8-2.11,17.04-.02,23.74.79,2.56,2.23,6.25,2.35,6.47.96,12.94-.83,24.22-.95,36.67,0,.13,14.81,2.09,21.88.12,3.45-.96,6.62-2.65,9.97-3.86,3.71-1.35,11.83-1.4,11.84-1.55.21-10.63-3.26-17.45-2.36-33.74.51.29,3.71,4.52,6.22,5.1,2.32.54,4.82-.01,6.43-2.55,2.01-3.16,3.06-7.44,3.75-11.05.81-4.21,1.35-8.49,1.81-12.75-2.45-.5-4.46-1.12-6.78-2.04Z"/>
        <path class="cls-8" d="M63.61,241.82c.53-3.86,1.06-7.72,1.59-11.57.03-.21-.29-.3-.32-.09-.53,3.86-1.06,7.71-1.59,11.57-.03.21.29.3.32.09h0Z"/>
        <path class="cls-19" d="M39.96,193.72c1.35,2.24,3.21,3.97,6.03,3.27,2.93-.73,4.94-3.67,6.13-6.25,1.45-3.15,2.01-6.76,2.75-10.12.82-3.7,1.51-7.42,1.87-11.19.02-.21-.31-.21-.33,0-.31,3.26-.87,6.49-1.55,9.7-.64,3.04-1.26,6.13-2.15,9.1-.84,2.8-2.38,5.82-4.83,7.53-1.31.92-3.01,1.39-4.57.83-1.44-.51-2.29-1.77-3.05-3.02-.11-.18-.39-.02-.28.16h0Z"/>
        <path class="cls-19" d="M41.22,185.17c1.64-6.37,4.98-12.06,8.32-17.66.11-.18-.18-.35-.28-.17-3.35,5.63-6.71,11.34-8.35,17.74-.05.2.27.29.32.09h0Z"/>
        <path class="cls-19" d="M80.31,191.2c.22-10.1-.75-16.67-2.89-26.54-.04-.21-.37-.13-.32.08,2.13,9.84,3.1,16.38,2.88,26.45,0,.21.32.22.33.01h0Z"/>
        <path class="cls-19" d="M87.65,177.02c-1.37,3.31-2.23,6.8-2.54,10.37-.02.21.31.21.33,0,.31-3.54,1.17-7,2.53-10.28.08-.2-.24-.28-.32-.09h0Z"/>
        <path class="cls-19" d="M65.88,223.91c.98-7.39,1.78-14.79,2.41-22.22.02-.21-.31-.21-.33,0-.63,7.42-1.43,14.83-2.41,22.22-.02.21.31.21.33,0h0Z"/>
        <path class="cls-19" d="M70.2,211.23c1.51-6.38,2.56-12.85,3.14-19.38.02-.21-.31-.21-.33,0-.58,6.5-1.63,12.94-3.13,19.29-.05.21.27.3.32.09h0Z"/>
        <path class="cls-15" d="M70.49,133.74c-.35-.45-.77-.89-.92-1.46-.14-.54.06-1.1-.07-1.64-.17-.72-.82-1.01-1.39-1.35-.85-.51-1.13-1.5-2-1.99-.72-.41-1.55-.45-2.32-.17-.7.26-1.2.56-1.96.22-.46-.21-.86-.45-1.36-.55-1.66-.36-3.24.34-4.19,1.63-1.03-.05-2.3.6-2.86,1.24-.62.71-.37,1.72-1.02,2.41-.6.64-1.48.84-2.01,1.57-.9,1.22-1.31,3.2-.47,4.54.27.43.68.77.9,1.23.38.75.17,1.49.06,2.27-.1.73-.12,1.43.29,2.08.37.6.99.98,1.47,1.49.59.64.66,1.22.62,2.1-.02.46-.12.93.03,1.38.12.36.3.53.56.78.4.39.75.75,1.03,1.23.34.57.59.96,1.29,1.1,1.44.29,2.47-1.01,2.56-2.33.08-1.2-.54-2.21.51-3.15.55-.5.87-.97.98-1.73.18-1.24-.7-3.13.41-4.06.32-.27.62-.31.88-.7.23-.34.31-.74.37-1.14.15-1.18-.24-2.53.97-3.26.25-.15.48-.25.66-.48.32-.4.38-.9.63-1.34.45-.19.95-.19,1.38.09.38.25.58.7.95.96.16.11.36.21.55.22.35.02.57-.27.91-.18.47.12.52.93.6,1.38.08.47.15.94.22,1.42.16,1.03.3,1.42.46,2.45.01.08.16.8.16.8.6-.21.89-.83.9-1.45,0-.71-.27-1.38.08-2.06.24-.46.63-.82.8-1.31.3-.82-.15-1.59-.65-2.23Z"/>
        <path class="cls-17" d="M57.29,145.23c.63,1.02,1.7,1.52,2.38,1.1.68-.42.72-1.59.08-2.61-.63-1.03-1.58-1.33-2.26-.91-.68.42-.83,1.4-.2,2.42Z"/>
        <path class="cls-17" d="M61.6,149.35c-.72-.4-1.71-.42-2.53-.51-.97-.1-2.04-.26-3.01-.14-1.73.22-1.97,2.55-2.16,3.9-.24,1.7-.48,3.4-.72,5.1-1.27,3.72-2.3,5.83-3.57,9.55l6.78,2.16c.82-3.58,1.31-5.82,1.91-9.44.83-1.04,1.34-2.33,1.46-3.66,1.22-.8,2.16-1.98,2.61-3.38.38-1.17.49-2.9-.78-3.59Z"/>
        <path class="cls-4" d="M58.02,148.97c.8.03,1.6.05,2.38.22.38.08.76.19,1.12.36.43.21.6.57.77,1,.31.8.27,1.59-.02,2.4-.27.76-.68,1.53-1.24,2.11-.15.15.08.39.23.23.6-.63,1.03-1.44,1.32-2.26.32-.9.33-1.79-.02-2.68-.14-.34-.29-.68-.58-.91-.34-.26-.8-.4-1.21-.51-.9-.23-1.83-.26-2.75-.29-.21,0-.21.32,0,.33h0Z"/>
        <path class="cls-4" d="M59.89,156.21c.22-1.33.17-2.68-.16-3.99-.05-.21-.37-.12-.32.09.32,1.24.37,2.54.16,3.81-.04.21.28.3.32.09h0Z"/>
      </g>
      <g>
        <path class="cls-18" d="M253.15,270.71c6.95,14.84,11.05,31.01,13.78,47.12.08.48-.65.68-.73.2-2.72-16.04-6.78-32.16-13.7-46.94-.21-.44.45-.82.65-.38h0Z"/>
        <path class="cls-18" d="M249.07,263.06c3.21,1.47,5.28,5.37,4.31,8.79-.02.09-.12.14-.21.1-3.3-1.33-5.11-5.35-4.32-8.79.02-.1.13-.15.22-.11Z"/>
        <path class="cls-18" d="M247.28,273.67c3.46-.7,7.43,1.21,8.67,4.55.03.09-.02.19-.11.21-3.45.88-7.29-1.3-8.68-4.54-.04-.09.02-.2.11-.22Z"/>
        <path class="cls-18" d="M259.64,269.29c1.05,3.37-.46,7.51-3.66,9.08-.08.04-.19,0-.22-.09-1.22-3.34.57-7.38,3.65-9.08.09-.05.2,0,.23.09Z"/>
        <path class="cls-18" d="M250.85,282.87c3.46-.71,7.43,1.21,8.67,4.55.03.09-.02.19-.11.21-3.45.88-7.29-1.3-8.67-4.54-.04-.09.02-.2.11-.22Z"/>
        <path class="cls-18" d="M263.21,278.5c1.04,3.37-.46,7.52-3.66,9.08-.09.04-.19,0-.22-.08-1.22-3.35.56-7.38,3.65-9.09.08-.05.2,0,.23.09Z"/>
        <path class="cls-18" d="M253.85,291.93c3.49-.5,7.35,1.64,8.38,5.05.03.09-.03.18-.12.2-3.5.68-7.2-1.73-8.39-5.05-.03-.09.03-.2.13-.21Z"/>
        <path class="cls-18" d="M266.44,288.29c.84,3.42-.91,7.48-4.19,8.85-.08.04-.19-.01-.21-.1-1.02-3.41,1-7.33,4.18-8.85.09-.04.2,0,.22.11Z"/>
        <path class="cls-18" d="M256.67,302.69c3.51-.36,7.28,1.94,8.18,5.38.03.09-.04.18-.13.2-3.52.54-7.12-2.01-8.18-5.38-.03-.09.03-.19.13-.2Z"/>
        <path class="cls-18" d="M269.4,299.56c.71,3.46-1.2,7.43-4.54,8.67-.09.03-.19-.02-.21-.11-.88-3.45,1.29-7.29,4.53-8.68.09-.04.2.02.22.11Z"/>
      </g>
      <g>
        <path class="cls-18" d="M243.7,291.37c1.79,4.15,3.44,8.35,4.78,12.66,1.42,4.57,2.52,9.24,3.58,13.9.08.37-.48.53-.57.16-1.04-4.59-2.12-9.17-3.51-13.68-1.34-4.34-2.99-8.58-4.79-12.75-.15-.34.36-.64.51-.3h0Z"/>
        <path class="cls-18" d="M240.53,285.43c2.49,1.15,4.1,4.17,3.35,6.84-.02.07-.1.11-.16.08-2.57-1.03-3.97-4.16-3.36-6.83.02-.08.1-.12.17-.09Z"/>
        <path class="cls-18" d="M239.79,294.88c2.69-.55,5.78.94,6.74,3.54.03.07-.01.15-.09.17-2.68.68-5.66-1.01-6.74-3.53-.03-.07.01-.15.09-.17Z"/>
        <path class="cls-18" d="M251.04,297.5c.81,2.62-.36,5.84-2.85,7.06-.06.03-.15,0-.17-.07-.95-2.6.44-5.74,2.84-7.06.07-.04.15,0,.18.07Z"/>
        <path class="cls-18" d="M243.82,306.81c2.72-.39,5.71,1.28,6.52,3.93.02.07-.02.14-.09.16-2.72.53-5.6-1.34-6.53-3.92-.02-.07.03-.15.1-.16Z"/>
      </g>
      <g>
        <g>
          <path class="cls-14" d="M111.97,309.27h40.12c.37,0,.67.3.67.67v4.79c0,.37-.3.67-.67.67h-40.12c-.37,0-.67-.3-.67-.67v-4.79c0-.37.3-.67.67-.67Z" transform="translate(264.06 624.67) rotate(180)"/>
          <rect class="cls-11" x="116.37" y="309.27" width="16.98" height="6.13" transform="translate(249.72 624.67) rotate(180)"/>
          <rect class="cls-7" x="111.99" y="308.55" width="40.07" height=".72" transform="translate(264.06 617.82) rotate(180)"/>
          <rect class="cls-7" x="111.99" y="315.4" width="40.07" height=".72" transform="translate(264.06 631.52) rotate(180)"/>
        </g>
        <g>
          <path class="cls-14" d="M111.97,302.42h40.12c.37,0,.67.3.67.67v4.79c0,.37-.3.67-.67.67h-40.12c-.37,0-.67-.3-.67-.67v-4.79c0-.37.3-.67.67-.67Z" transform="translate(264.06 610.98) rotate(180)"/>
          <rect class="cls-11" x="116.37" y="302.42" width="16.98" height="6.13" transform="translate(249.72 610.98) rotate(180)"/>
          <rect class="cls-7" x="111.99" y="301.71" width="40.07" height=".72" transform="translate(264.06 604.13) rotate(180)"/>
        </g>
        <g>
          <path class="cls-14" d="M111.97,316.12h40.12c.37,0,.67.3.67.67v4.79c0,.37-.3.67-.67.67h-40.12c-.37,0-.67-.3-.67-.67v-4.79c0-.37.3-.67.67-.67Z" transform="translate(264.06 638.36) rotate(180)"/>
          <rect class="cls-11" x="116.37" y="316.12" width="16.98" height="6.13" transform="translate(249.72 638.36) rotate(180)"/>
        </g>
        <g>
          <path class="cls-14" d="M111.97,295.58h40.12c.37,0,.67.3.67.67v4.79c0,.37-.3.67-.67.67h-40.12c-.37,0-.67-.3-.67-.67v-4.79c0-.37.3-.67.67-.67Z" transform="translate(264.06 597.29) rotate(180)"/>
          <rect class="cls-11" x="116.37" y="295.58" width="16.98" height="6.13" transform="translate(249.72 597.29) rotate(180)"/>
        </g>
        <g>
          <path class="cls-14" d="M111.97,288.73h40.12c.37,0,.67.3.67.67v4.79c0,.37-.3.67-.67.67h-40.12c-.37,0-.67-.3-.67-.67v-4.79c0-.37.3-.67.67-.67Z" transform="translate(264.06 583.6) rotate(180)"/>
          <rect class="cls-11" x="116.37" y="288.73" width="16.98" height="6.13" transform="translate(249.72 583.6) rotate(180)"/>
          <rect class="cls-7" x="111.99" y="294.86" width="40.07" height=".72" transform="translate(264.06 590.44) rotate(180)"/>
        </g>
      </g>
      <g>
        <path class="cls-16" d="M276.31,152.28l2.3,17.45c.03.26-.17.49-.43.49h-7.95c-.21,0-.39-.16-.43-.38l-2.3-17.45c-.03-.26.16-.49.42-.49h7.95c.22,0,.39.16.43.37Z"/>
        <g>
          <polygon class="cls-5" points="318.96 308.55 314.07 311.01 306.79 299.68 313.35 296.49 318.96 308.55"/>
          <path class="cls-16" d="M308.94,318.39c.77,1.92,3.92.35,5.54-.33,2.02-.86,5.26-2.41,6.28-4.12,1.01-1.69-1.56-5.27-2.25-6.36,0,0-3.08,2.35-5.01,2.53-.49.79-1.21,1.57-1.78,2.3-.75.96-1.52,1.93-2.11,3-.49.88-1.06,1.99-.66,2.98Z"/>
        </g>
        <path class="cls-21" d="M267.36,174.22c.83,4.82,1.79,12.21,3.56,16.64,3.91,9.78,8.17,12.65,10.92,12.78,3.98.19,9.36-9.4,13-15.03l-10.93-9.22c-1.6,2.43-3,5.7-4.28,8.3-2.28-3.47-5.93-9.75-7.83-13.45.82-1,1.19-2.27,1.09-3.59-.17-2.12-1.71-2.7-1.89-4.78-.23-2.68,3.53-3.67,3.02-7.3-.15-1.06-.7-1.74-1.79-1.42-1.43.42-5.56,5.12-6.33,6.49-1.23,2.19.31,7.31,1.46,10.58Z"/>
        <path class="cls-21" d="M336,217.23c1.88-4.11,3.34-10.03,4.59-14.37-.99-4.07-2.03-6.42-3.35-10.4,4-2.56,13.38-6.03,13.38-6.03,1.16,4.21,2.45,8.74,2.54,13.13.09,4.15-1.96,7.95-3.89,11.5-3.78,6.99-8.49,13.39-13.29,19.71v-13.54Z"/>
        <g>
          <polygon class="cls-21" points="318.19 310.84 323.67 310.92 325.27 297.55 317.97 297.55 318.19 310.84"/>
          <path class="cls-10" d="M317.54,313.17c.04,1.3.09,2.67.3,3.95.17,1.07.78,2.09,1.76,2.62.94.52,2.25.52,3.28.35,1.08-.18,2.05-.77,2.59-1.73,1-1.75.32-3.96-.51-5.73-1.11-2.39-2.89-3.68-4.06-3.85-.99-.14-2.04.12-2.6.92-.7,1-.79,2.29-.76,3.47Z"/>
        </g>
        <path class="cls-9" d="M285.86,170.47c2.05-2.96,4.17-6.02,6.91-8.4,2.72-2.37,6.16-3.69,9.47-4.99,4.94-1.94,6.35-2.78,10.05-3.5l9.05-.35c3.57.4,10.09,2.54,12.58,3.38,1.93.65,4.18,1.2,5.81,2.44,6.72,5.14,13.44,28.16,13.44,28.16,0,0-11.89,6.72-14.08,7.69-.19,3.66-.38,7.33-.57,10.99h-42.56l-1.21-15.24c-5.35-3.02-9.33-5.47-14.32-9.05-.14-.1,3.16-7.85,5.42-11.13Z"/>
        <path class="cls-21" d="M321.38,153.65s-.3-4.64-.41-7.55c0,0-1.07-1.25-1.1-3.14-.17.02-2.87-10.23-4.96-10.22-4.56.02-6.77.57-8.07,1.64-.74,1.44-.82,2.88-1.26,5.16-.94,4.77-.18,9.07,2.08,11.05,1.16,1.02,3.34.9,4.68.43l-.05,3.11s5.31.92,9.1-.48Z"/>
        <path class="cls-5" d="M312.48,150.94c1.46-.46,2.88-1.14,3.96-2.25.17-.17.42.09.26.26-1.13,1.15-2.6,1.87-4.13,2.35-.23.07-.32-.28-.1-.35h0Z"/>
        <path class="cls-12" d="M291.73,274.19c1.45,3.22,13.15,24.57,19.68,33.71l5.63-2.91c0,.24.02.49.03.73l8.22,1.27c6.19-15.39,14.46-64.98,13.31-95.6h.19s.11-3.84,0-6.21c0,0-1.53.03-2.84-.04-.27-4.68-.81-9.34-1.31-14-.62-5.82-1.22-11.93-1.84-17.75l-2.62-.05c.43-6.25.73-11.42.95-17.68l-3.42-1.05c-.22,6.31-.48,12.56-.91,18.86-11.12.09-6.92.06-18.04.15-.54-6.24-.92-12.45-1.27-18.71l-3.4,1.36c.35,6.27.75,11.13,1.29,17.38l-2.05.02c-1.93,10.5-3.61,21.05-5.05,31.62-.65-.01-2.83.04-2.83.04-.19,1.74-.48,6.26-.48,6.26l.33.04s-5.33,34.94-6.5,42.73c-1.54,10.35.32,14.01,2.93,19.82ZM308.17,266c-.96-3.4,4.22-18.11,6.74-26.49.25,20.66-.08,39.7,1.78,56.67-.05-.11-6.08-21.54-8.52-30.18Z"/>
        <path class="cls-16" d="M301.27,137.22c-1.04,1.2-.19,3.12,1.44,3.11.06.49.45.9.95.97.56.08,1.39-.25,1.71-.68,0,0,.53-2.94.69-3.89.28.1.42.11.74.1,1.08-.02,2.02-.77,2.39-1.75.34.69.93,1.26,1.72,1.35.63.07,1.26-.21,1.63-.7.12.81.53,1.58,1.26,2,.3.17.64.27.98.29-.29,1.31.54,3.2,2.33,3.05-.24,1.33.12,2.49,1.56,2.75-.69.75-.96,1.83-.58,2.81.18.45.47.84.85,1.14.2.16.42.26.64.38.24.13.23.23.35.47.39.76,1.44,1.13,2.18.64.61-.41.81-1.22.57-1.88,1.36.05,2.3-1.17,1.93-2.48.82.04,1.59-.4,1.99-1.14.48-.87.32-1.9-.13-2.75.49-.05.92-.43,1.02-.95.06-.29.02-.56-.09-.81.99-.9.95-2.62-.32-3.41,1.48-1.11.79-3.16-.31-4.36,1.05-1.34-.12-2.98-1.54-3.45-.19-.06-.36-.06-.48-.21-.08-.11-.09-.4-.15-.55-.16-.34-.41-.63-.71-.85-.54-.4-1.19-.54-1.85-.58-.29-.62-.83-1.11-1.53-1.29-.3-.08-.55-.03-.85-.05-1.04-.06-1-.16-1.54-.66-.45-.44-.98-.77-1.6-.92-.6-.15-1.25-.12-1.84.1-.3.1-.58.25-.83.43-.18.12-.5.58-.67.64-.5.18-1.35-.69-1.88-.82-.5-.12-1.02-.1-1.49.09-.5.19-.73.51-1.1.87-.33.32-.19.29-.76.31-.46.01-.91-.02-1.38.05-1.2.18-2.34.82-2.79,2.01-.11.3-.13.56-.16.86-.06.47.13.27-.3.53-.44.27-.83.49-1.12.95-.49.79-.42,1.71.02,2.46-.77.55-1.04,1.64-.49,2.53-.73.19-1.37.73-1.5,1.51-.12.77.32,1.52,1.01,1.82Z"/>
        <path class="cls-21" d="M319.59,142.85c-.67,1.09-1.79,1.62-2.52,1.17-.73-.44-.77-1.69-.1-2.78.67-1.09,1.67-1.41,2.39-.97.72.44.89,1.48.23,2.57Z"/>
        <path class="cls-8" d="M314.79,238.79c-.63-5.45-1.25-10.9-1.88-16.34-.03-.23.33-.23.36,0,.63,5.45,1.26,10.9,1.88,16.34.03.23-.34.23-.36,0h0Z"/>
        <path class="cls-8" d="M311.67,230.99c-.92-4.45-1.86-8.9-2.79-13.35-.05-.23.3-.33.35-.09.93,4.45,1.86,8.9,2.79,13.34.05.23-.3.33-.35.1h0Z"/>
        <path class="cls-8" d="M335.68,205.27c-9.01.11-18.03.18-27.04.21-3.38,0-6.75.02-10.13,0-.23,0-.23-.36,0-.36,11.37.05,22.74-.06,34.11-.18,1.02,0,2.04-.02,3.06-.03.23,0,.23.36,0,.36h0Z"/>
        <path class="cls-8" d="M338.06,211.5c-7.66-.08-15.32-.16-22.98-.25-.23,0-.23-.37,0-.36,7.66.08,15.32.17,22.98.25.23,0,.23.37,0,.36h0Z"/>
        <path class="cls-8" d="M311.84,211.3c-4.42.03-8.83.13-13.24.31-.23,0-.23-.35,0-.36,4.42-.18,8.83-.28,13.24-.31.23,0,.23.36,0,.36h0Z"/>
        <path class="cls-8" d="M325.27,183.2c-1.13,5.82-3.05,11.44-5.73,16.73-.1.21-.42.03-.31-.18,2.66-5.26,4.57-10.86,5.69-16.64.04-.23.39-.13.35.1h0Z"/>
        <path class="cls-8" d="M322.07,183.83c-.31,2.89-.85,5.75-1.64,8.55-.07.23-.42.13-.35-.1.78-2.77,1.33-5.59,1.63-8.45.02-.23.39-.23.36,0h0Z"/>
        <path class="cls-13" d="M338.92,194.8c.63-5.74,1.07-11.5,1.31-17.27.01-.23.37-.24.37,0-.25,5.77-.68,11.53-1.31,17.27-.03.23-.39.23-.36,0h0Z"/>
        <path class="cls-13" d="M294.48,190.68c-.36-5.29-.44-10.59-.26-15.89,0-.24.37-.24.36,0-.18,5.3-.1,10.6.26,15.89.02.23-.35.23-.36,0h0Z"/>
      </g>
      <g>
        <g>
          <path class="cls-14" d="M223.25,72.44c0,14.01-11.36,25.37-25.37,25.37s-25.36-11.36-25.36-25.37,11.36-25.37,25.36-25.37,25.37,11.36,25.37,25.37Z"/>
          <path class="cls-7" d="M197.88,92.95c-11.3,0-20.5-9.2-20.5-20.5s9.2-20.5,20.5-20.5,20.5,9.2,20.5,20.5-9.2,20.5-20.5,20.5ZM197.88,52.41c-11.04,0-20.03,8.99-20.03,20.03s8.98,20.03,20.03,20.03,20.03-8.99,20.03-20.03-8.98-20.03-20.03-20.03Z"/>
          <path class="cls-7" d="M201.67,77.93c0-.83-.29-1.52-.87-2.09-.58-.57-1.56-1.08-2.94-1.54-1.92-.59-3.31-1.35-4.19-2.29-.88-.94-1.32-2.14-1.32-3.58s.43-2.68,1.29-3.63c.86-.94,2.04-1.51,3.54-1.69v-1.95c0-.55.45-1,1-1h0c.56,0,1.01.45,1.01,1v1.97c1.51.21,2.69.84,3.53,1.9.62.78,1,1.76,1.17,2.95.1.74-.49,1.41-1.24,1.41h0c-.61,0-1.14-.45-1.23-1.06-.13-.79-.4-1.45-.83-1.98-.6-.75-1.42-1.12-2.44-1.12s-1.89.28-2.46.83c-.57.55-.85,1.33-.85,2.32,0,.92.3,1.65.9,2.2.6.55,1.58,1.04,2.96,1.49,1.37.45,2.44.94,3.21,1.47.77.53,1.34,1.16,1.7,1.87.36.71.54,1.54.54,2.5,0,1.52-.46,2.74-1.37,3.67-.91.93-2.19,1.48-3.84,1.65v1.58c0,.55-.45,1-1,1h0c-.55,0-1-.45-1-1v-1.58c-1.67-.15-2.98-.75-3.94-1.79-.68-.74-1.11-1.67-1.31-2.8-.13-.75.47-1.43,1.24-1.43h0c.61,0,1.12.44,1.23,1.03.14.76.44,1.38.9,1.85.66.68,1.59,1.01,2.79,1.01s2.11-.28,2.78-.85c.68-.57,1.01-1.34,1.01-2.32Z"/>
        </g>
        <path class="cls-9" d="M156.82,77.9l.61,3.46c.17.96,1.09,1.6,2.04,1.43l2.63-.46c.53,1.91,1.21,3.77,2.02,5.55l-2.31,1.33c-.84.48-1.13,1.57-.64,2.4l1.76,3.04c.48.84,1.56,1.14,2.4.65l2.31-1.33c1.14,1.6,2.42,3.12,3.79,4.52l-1.72,2.05c-.62.74-.52,1.86.21,2.48l2.7,2.27c.74.62,1.85.53,2.48-.22l1.72-2.05c1.61,1.11,3.32,2.11,5.11,2.96l-.91,2.51c-.33.9.14,1.91,1.05,2.25l3.3,1.21c.91.32,1.92-.14,2.25-1.05l.91-2.51c1.89.49,3.84.83,5.83,1.01v2.68c0,.97.79,1.76,1.75,1.76h3.52c.97,0,1.76-.8,1.76-1.76v-2.68c1.99-.18,3.93-.52,5.82-1.01l.91,2.51c.34.91,1.35,1.37,2.25,1.05l3.3-1.21c.91-.34,1.39-1.35,1.05-2.25l-.91-2.51c1.79-.85,3.49-1.85,5.11-2.96l1.72,2.05c.62.75,1.74.84,2.48.22l2.69-2.27c.74-.62.84-1.74.22-2.48l-1.72-2.05c1.38-1.4,2.65-2.91,3.8-4.52l2.31,1.33c.83.49,1.92.2,2.4-.65l1.76-3.04c.48-.84.2-1.92-.64-2.4l-2.32-1.33c.82-1.78,1.49-3.63,2.02-5.55l2.63.46c.95.18,1.87-.47,2.04-1.43l.61-3.46c.17-.96-.48-1.87-1.43-2.04l-2.63-.46c.07-.98.12-1.96.12-2.95s-.04-1.99-.12-2.96l2.63-.46c.95-.17,1.6-1.08,1.43-2.04l-.61-3.46c-.17-.95-1.09-1.59-2.04-1.43l-2.63.46c-.53-1.92-1.21-3.78-2.02-5.55l2.32-1.33c.84-.48,1.12-1.57.64-2.4l-1.76-3.04c-.49-.84-1.57-1.13-2.4-.65l-2.31,1.33c-1.15-1.6-2.42-3.12-3.8-4.52l1.72-2.05c.62-.74.53-1.86-.22-2.48l-2.69-2.26c-.74-.62-1.86-.52-2.48.22l-1.72,2.05c-1.62-1.12-3.32-2.11-5.11-2.96l.91-2.51c.33-.9-.14-1.92-1.05-2.25l-3.31-1.2c-.91-.33-1.92.14-2.25,1.05l-.91,2.5c-1.88-.48-3.83-.83-5.82-1.01v-2.68c0-.97-.79-1.76-1.76-1.76h-3.52c-.96,0-1.75.79-1.75,1.76v2.68c-1.99.19-3.94.53-5.83,1.01l-.91-2.5c-.33-.91-1.34-1.38-2.25-1.05l-3.3,1.2c-.91.33-1.38,1.35-1.05,2.25l.91,2.51c-1.79.85-3.5,1.84-5.11,2.96l-1.72-2.05c-.62-.74-1.74-.84-2.48-.22l-2.7,2.26c-.74.62-.84,1.73-.21,2.48l1.72,2.05c-1.38,1.4-2.65,2.91-3.79,4.52l-2.31-1.33c-.84-.49-1.92-.19-2.4.65l-1.76,3.04c-.49.83-.2,1.92.64,2.4l2.31,1.33c-.82,1.78-1.49,3.63-2.02,5.55l-2.63-.46c-.95-.17-1.86.47-2.04,1.43l-.61,3.46c-.17.95.48,1.87,1.43,2.04l2.63.46c-.07.97-.12,1.96-.12,2.96s.05,1.98.12,2.95l-2.63.46c-.95.16-1.6,1.08-1.43,2.04ZM194.37,44.99c0,.35-.25.64-.6.69-2.45.38-4.81,1.08-7.03,2.09-.84-.99-2.28-1.27-3.45-.61-1.17.67-1.64,2.07-1.19,3.29-1.97,1.42-3.77,3.11-5.32,5.05-.14.17-.35.26-.55.26-.11,0-.24-.03-.35-.1l-3.29-1.9c-.18-.1-.3-.28-.34-.48-.04-.2.01-.4.13-.56,5.16-6.66,12.88-11.13,21.2-12.24.03,0,.06,0,.09,0,.17,0,.34.06.46.17.15.13.25.33.25.53v3.8ZM223.53,53.3c-.04.2-.16.38-.33.48l-3.29,1.9c-.11.07-.24.1-.35.1-.21,0-.41-.09-.55-.26-1.56-1.94-3.35-3.63-5.32-5.05.44-1.22-.04-2.62-1.2-3.29-1.16-.67-2.61-.38-3.45.61-2.22-1.01-4.58-1.71-7.03-2.09-.35-.05-.6-.35-.6-.69v-3.8c0-.2.09-.4.24-.53.13-.11.29-.17.46-.17.03,0,.06,0,.09,0,8.31,1.12,16.04,5.58,21.19,12.24.13.16.18.37.13.56ZM223.42,83.13c-.3-.18-.43-.55-.31-.87.9-2.3,1.47-4.7,1.71-7.13,1.28-.22,2.25-1.34,2.25-2.68s-.97-2.46-2.25-2.68c-.24-2.45-.81-4.84-1.71-7.14-.13-.33,0-.69.31-.87l3.3-1.9c.1-.06.22-.1.34-.1.08,0,.15.01.23.04.19.06.34.21.42.4,1.6,3.89,2.41,8,2.41,12.24s-.81,8.35-2.41,12.24c-.08.19-.23.34-.42.4-.08.03-.15.04-.23.04-.12,0-.24-.03-.34-.09l-3.3-1.9ZM201.4,99.9c0-.35.25-.64.6-.7,2.45-.37,4.81-1.08,7.03-2.08.84.99,2.28,1.27,3.45.61,1.16-.67,1.64-2.07,1.2-3.29,1.97-1.42,3.76-3.11,5.32-5.05.14-.18.34-.26.55-.26.12,0,.24.03.35.09l3.29,1.9c.18.11.3.28.34.48.04.2,0,.41-.13.57-5.15,6.66-12.88,11.12-21.19,12.24-.03,0-.06,0-.09,0-.17,0-.33-.06-.46-.17-.15-.13-.24-.33-.24-.53v-3.8ZM175.28,72.45c0-12.49,10.12-22.61,22.6-22.61s22.61,10.12,22.61,22.61-10.12,22.6-22.61,22.6-22.6-10.12-22.6-22.6ZM172.24,91.59c.04-.2.16-.37.34-.48l3.29-1.9c.11-.06.24-.09.35-.09.21,0,.42.08.55.26,1.55,1.93,3.35,3.62,5.32,5.05-.44,1.22.03,2.62,1.19,3.29,1.16.67,2.61.39,3.45-.61,2.22,1.01,4.58,1.71,7.03,2.08.35.06.6.35.6.7v3.8c0,.2-.09.4-.25.53-.12.11-.29.17-.46.17-.03,0-.06,0-.09,0-8.31-1.12-16.04-5.58-21.2-12.24-.12-.16-.17-.37-.13-.57ZM165.64,72.45c0-4.24.81-8.36,2.41-12.24.08-.19.23-.34.42-.4.08-.03.15-.04.23-.04.12,0,.24.04.35.1l3.29,1.9c.3.18.43.54.31.87-.89,2.3-1.46,4.69-1.71,7.14-1.28.22-2.25,1.34-2.25,2.68s.97,2.46,2.25,2.68c.24,2.43.82,4.83,1.71,7.13.12.32,0,.69-.31.87l-3.29,1.9c-.11.07-.23.1-.35.1-.08,0-.15-.01-.23-.04-.19-.06-.35-.21-.42-.4-1.6-3.89-2.41-8-2.41-12.24Z"/>
      </g>
    </g>
  </g>
</svg>